<svg width="92" height="104" viewBox="0 0 92 104" fill="none" xmlns="http://www.w3.org/2000/svg">
<path d="M14.4715 17.1245C15.0519 17.5341 15.2436 17.8085 15.4363 18.4942C15.4919 19.3082 15.2946 19.7106 14.9259 20.4326C13.8643 22.6044 13.426 24.4543 13.4366 26.8713C13.4358 27.0508 13.435 27.2302 13.4342 27.4151C13.4355 28.2737 13.4643 29.0616 13.6638 29.9006C13.7725 30.8113 13.8196 31.4853 13.3104 32.2707C12.5297 32.8285 11.7122 33.217 10.85 33.6324C9.94093 34.1081 9.1827 34.7007 8.41326 35.376C8.29143 35.4793 8.1696 35.5825 8.04409 35.6889C5.51109 38.0092 4.14901 41.5911 3.92635 44.9691C3.81928 48.9924 5.18224 52.4678 7.80743 55.4527C10.0844 57.8618 13.2061 59.0956 16.3979 59.7573C16.9521 59.9322 17.1728 60.0428 17.5007 60.5225C17.6198 61.0659 17.6198 61.0659 17.69 61.7139C17.9936 63.9397 18.5431 65.8332 19.924 67.6203C20.0739 67.8295 20.2239 68.0386 20.3784 68.2541C23.0041 71.0108 26.9087 72.2392 30.6312 72.3802C33.009 72.4092 35.4363 72.0267 37.6949 71.2706C38.0952 68.8553 38.3903 65.934 37.0891 63.7672C37.0081 63.6268 36.9272 63.4865 36.8438 63.3418C36.0882 62.13 35.1752 61.0241 34.2903 59.9062C33.5842 59.0142 32.8879 58.1145 32.192 57.2144C31.9638 56.9195 31.7355 56.6245 31.5073 56.3296C31.3976 56.1872 31.2878 56.0448 31.1748 55.8981C30.9284 55.5808 30.6796 55.2652 30.4293 54.9509C30.2998 54.7874 30.1703 54.6238 30.0369 54.4553C29.918 54.3065 29.7991 54.1577 29.6766 54.0044C29.4153 53.6275 29.4153 53.6275 29.4153 53.2219C29.2674 53.1668 29.1194 53.1117 28.967 53.0549C28.4289 52.8262 27.9852 52.5685 27.5002 52.2433C27.3278 52.1282 27.1553 52.0131 26.9776 51.8945C26.7941 51.7705 26.6107 51.6465 26.4216 51.5188C26.2313 51.3907 26.0409 51.2627 25.8448 51.1308C25.4434 50.8602 25.0423 50.5892 24.6416 50.3176C24.0274 49.9021 23.4113 49.4897 22.795 49.0773C22.405 48.814 22.0152 48.5504 21.6255 48.2867C21.3485 48.1019 21.3485 48.1019 21.0658 47.9134C20.8953 47.7971 20.7247 47.6807 20.549 47.5608C20.3987 47.4593 20.2484 47.3579 20.0935 47.2534C19.6819 46.9009 19.5047 46.6316 19.3182 46.1241C19.3461 45.451 19.4367 45.035 19.8057 44.4705C20.6209 43.8861 21.4199 43.9802 22.3978 43.9884C22.7035 43.9873 22.7035 43.9873 23.0153 43.9861C23.4471 43.9855 23.879 43.987 24.3108 43.9904C24.9646 43.9947 25.618 43.9905 26.2718 43.9853C29.399 43.98 31.6452 44.3102 34.1988 46.2255C34.5151 46.4558 34.8314 46.6861 35.1478 46.9163C35.3163 47.0404 35.4848 47.1646 35.6584 47.2926C36.9997 48.27 38.3589 49.2226 39.7144 50.18C39.8303 48.8775 39.9452 47.575 40.0595 46.2724C40.0984 45.8296 40.1376 45.3869 40.177 44.9441C40.2337 44.3064 40.2897 43.6685 40.3454 43.0307C40.3719 42.7356 40.3719 42.7356 40.399 42.4346C40.4447 41.9071 40.4844 41.3795 40.5221 40.8515C40.5518 40.4893 40.5518 40.4893 40.5821 40.1198C40.4996 39.1731 40.1497 38.4508 39.7396 37.6028C39.6583 37.4289 39.5769 37.255 39.4931 37.0759C39.2328 36.5207 38.9689 35.9673 38.7046 35.414C38.5332 35.0509 38.362 34.6877 38.1911 34.3244C38.107 34.1456 38.0228 33.9667 37.9361 33.7825C37.8524 33.6043 37.7686 33.4262 37.6823 33.2427C37.5988 33.0652 37.5153 32.8877 37.4293 32.7048C37.1808 32.1758 36.9329 31.6466 36.6852 31.1173C36.604 30.9442 36.5227 30.7711 36.439 30.5928C36.2072 30.0963 35.9787 29.5983 35.7512 29.0997C35.682 28.9524 35.6127 28.805 35.5414 28.6532C35.1666 27.8217 34.964 27.1821 35.0697 26.2502C35.3726 25.6672 35.3726 25.6672 35.8774 25.2363C37.4214 25.0097 38.2409 25.6033 39.4706 26.4855C39.6542 26.612 39.8378 26.7386 40.0269 26.8689C40.611 27.2718 41.1916 27.6794 41.7716 28.0881C42.354 28.4972 42.9371 28.9052 43.5229 29.3094C43.8868 29.5606 44.2487 29.8146 44.6085 30.0718C44.773 30.1855 44.9375 30.2992 45.107 30.4163C45.2506 30.5176 45.3941 30.6189 45.542 30.7233C46.106 30.9726 46.4031 30.8895 46.9843 30.7117C47.3597 30.5372 47.7292 30.3496 48.0934 30.1525C48.3024 30.0424 48.5115 29.9323 48.7268 29.819C49.1633 29.5864 49.5987 29.3519 50.0331 29.1155C51.822 28.1805 51.822 28.1805 52.6671 28.2901C53.5333 28.5765 53.5333 28.5765 53.8503 29.0894C54.223 30.2925 53.8174 31.1287 53.3652 32.2398C53.2172 32.6212 53.0693 33.0026 52.9215 33.3841C52.6867 33.9795 52.4506 34.5744 52.2128 35.1686C51.983 35.7457 51.7589 36.3247 51.5351 36.9041C51.4281 37.1641 51.4281 37.1641 51.319 37.4293C50.3884 39.8569 50.862 42.457 51.1233 44.9826C51.1546 45.2942 51.1858 45.6058 51.2169 45.9174C51.2819 46.5649 51.3476 47.2123 51.4141 47.8597C51.499 48.6871 51.5824 49.5147 51.6653 50.3423C51.7449 51.1372 51.8254 51.932 51.9058 52.7268C51.921 52.8768 51.9361 53.0267 51.9517 53.1812C51.9947 53.6071 52.0383 54.033 52.0821 54.4588C52.1068 54.7004 52.1314 54.9419 52.1568 55.1907C52.2307 55.8234 52.3266 56.4478 52.4367 57.075C52.7206 56.7248 53.0045 56.3744 53.2882 56.0241C53.5294 55.7263 53.7707 55.4287 54.0121 55.1312C54.6697 54.3197 55.3181 53.5025 55.9581 52.6769C56.8592 51.5482 57.6618 50.7394 59.1008 50.3828C60.1565 50.3285 61.2153 50.3377 62.272 50.357C63.6187 50.34 64.3967 50.2007 65.3488 49.2227C65.5548 48.9939 65.5548 48.9939 65.7649 48.7604C66.0401 48.4762 66.3152 48.192 66.591 47.9085C66.8913 47.5991 67.1904 47.2887 67.4889 46.9777C67.5895 46.873 67.69 46.7684 67.7936 46.6606C67.9992 46.4451 68.2038 46.2285 68.4073 46.011C68.7057 45.6928 69.0085 45.3795 69.3123 45.0666C69.4892 44.8802 69.6661 44.6938 69.8484 44.5018C70.5603 43.9873 70.9638 43.9879 71.8232 44.0962C72.429 44.4891 72.429 44.4891 72.8329 45.1101C72.7587 46.5529 72.4268 47.9208 72.0796 49.3189C72.0245 49.542 71.9694 49.7652 71.9126 49.9951C71.796 50.4644 71.6787 50.9336 71.5607 51.4027C71.382 52.1169 71.2088 52.8323 71.0356 53.5479C70.9211 54.0057 70.8064 54.4635 70.6912 54.9211C70.6407 55.1332 70.5902 55.3454 70.5381 55.5639C70.146 57.0854 69.5574 58.2304 68.3689 59.2733C67.0388 59.9775 65.7664 60.0336 64.2885 60.0254C63.54 60.031 63.0605 60.0481 62.3982 60.4195C61.7451 61.126 61.186 61.8811 60.628 62.6645C60.378 63.011 60.128 63.3575 59.8778 63.7039C59.7501 63.8816 59.6223 64.0594 59.4906 64.2425C59.1078 64.7716 58.7201 65.2967 58.3301 65.8205C58.1431 66.0724 58.1431 66.0724 57.9522 66.3294C57.7161 66.6472 57.4794 66.9645 57.242 67.2813C56.2619 68.6065 55.3779 69.9872 54.6581 71.4734C55.1322 71.5724 55.6067 71.6686 56.082 71.7618C56.4608 71.8363 56.839 71.9141 57.2163 71.9962C61.6596 72.8773 66.1082 72.1923 69.9568 69.7536C71.9408 68.4034 73.4131 66.5229 74.0446 64.1728C74.1823 63.3817 74.3005 62.5872 74.3875 61.7888C74.4882 61.019 74.5608 60.6247 75.0827 60.0298C75.7664 59.6527 76.3716 59.5078 77.1368 59.3564C80.7191 58.5541 83.9634 56.5202 85.9655 53.3922C86.8017 52.0016 87.4388 50.6154 87.9573 49.0741C88.1806 48.5576 88.1806 48.5576 88.7864 48.1521C89.5612 48.0672 90.0207 48.0412 90.6922 48.4562C91.1472 49.1872 91.1574 49.7626 91.0078 50.5856C89.6718 55.0044 86.8142 58.7387 82.766 60.9511C79.3541 62.7533 79.3541 62.7533 77.6796 62.7533C77.6534 62.9709 77.6534 62.9709 77.6267 63.1929C77.1476 66.6046 75.6997 69.6542 73.0349 71.879C68.7321 75.1157 63.3661 76.343 58.058 75.603C56.9164 75.4219 55.7752 75.2218 54.6581 74.9209C55.0082 85.3348 57.1053 92.7079 64.7552 100.067C65.0688 100.332 65.384 100.594 65.7018 100.853C66.2152 101.296 66.362 101.464 66.6106 102.121C66.5613 102.88 66.301 103.382 65.7649 103.921C65.2581 103.942 64.7568 103.95 64.2498 103.949C64.0892 103.95 63.9287 103.95 63.7632 103.951C63.2211 103.953 62.6789 103.953 62.1368 103.953C61.7498 103.954 61.3628 103.955 60.9757 103.956C59.9214 103.959 58.8671 103.96 57.8127 103.961C57.1547 103.962 56.4967 103.963 55.8388 103.963C53.7822 103.966 51.7257 103.968 49.6691 103.969C47.2912 103.97 44.9133 103.973 42.5353 103.979C40.6999 103.984 38.8645 103.986 37.0291 103.986C35.9317 103.986 34.8343 103.987 33.7368 103.991C32.7048 103.994 31.6729 103.995 30.6409 103.993C30.2615 103.993 29.882 103.994 29.5026 103.996C28.9859 103.998 28.4693 103.997 27.9526 103.995C27.7256 103.998 27.7256 103.997 27.4941 104C26.4859 103.99 26.4859 103.99 25.9964 103.648C25.6614 103.127 25.6029 102.712 25.5784 102.095C26.0413 101.082 26.8388 100.421 27.6483 99.6872C31.9767 95.7237 34.9777 91.3724 36.3097 85.5993C36.7966 83.5191 36.7966 83.5191 37.3415 83.0327C38.0328 82.7803 38.4084 82.8187 39.1085 83.0327C39.511 83.3532 39.6872 83.5865 39.9163 84.0467C40.0737 90.3676 35.8785 96.0788 31.8386 100.473C31.772 100.54 31.7053 100.607 31.6367 100.676C41.1663 100.676 50.696 100.676 60.5144 100.676C59.7147 99.8727 58.915 99.0697 58.0911 98.2423C57.6821 97.7523 57.3053 97.2902 56.9426 96.772C56.808 96.5825 56.808 96.5825 56.6706 96.3892C55.2704 94.3788 54.1294 92.3025 53.2697 90.0038C53.2144 89.8564 53.159 89.709 53.1019 89.5572C52.2758 87.2229 51.9378 84.805 51.7173 82.3483C51.6805 81.9543 51.6805 81.9544 51.643 81.5525C51.5934 81.0178 51.5447 80.483 51.4967 79.9481C51.4321 79.235 51.3628 78.5225 51.2921 77.8099C50.7897 72.5867 51.4831 69.1698 54.6581 64.984C54.7906 64.8082 54.923 64.6323 55.0595 64.4512C55.7541 63.5296 56.4522 62.611 57.154 61.6949C57.7209 60.9525 58.2649 60.1996 58.7979 59.4325C59.746 58.1135 60.7268 57.0738 62.3319 56.6694C63.1567 56.595 63.9832 56.5856 64.8108 56.5724C65.0594 56.5643 65.0594 56.5643 65.3129 56.5561C65.5377 56.552 65.5377 56.552 65.7671 56.5479C66.2861 56.4429 66.4553 56.278 66.7747 55.8582C66.9466 55.4618 66.9466 55.4618 67.0547 55.0217C67.0983 54.8617 67.1419 54.7017 67.1868 54.5369C67.2299 54.3707 67.273 54.2044 67.3174 54.0331C67.3628 53.8668 67.4082 53.7006 67.455 53.5293C67.634 52.8607 67.7844 52.2955 67.7844 51.5996C67.6865 51.695 67.5886 51.7904 67.4878 51.8887C67.3524 52.015 67.217 52.1412 67.0776 52.2713C66.9464 52.396 66.8152 52.5207 66.68 52.6492C65.0571 53.8237 63.3584 53.7155 61.4393 53.7166C60.2219 53.7268 60.2219 53.7268 59.1111 54.1686C58.6375 54.7094 58.1918 55.2553 57.763 55.8329C57.5877 56.0664 57.4123 56.2999 57.2368 56.5332C57.1461 56.6543 57.0554 56.7755 56.962 56.9003C56.4745 57.5471 55.9769 58.1858 55.4785 58.8241C55.3855 58.9441 55.2926 59.064 55.1968 59.1876C54.0485 60.659 54.0485 60.659 53.2445 60.9281C52.1752 61.0309 51.2948 61.0596 50.3163 60.5859C49.1663 59.5176 49.065 58.4628 48.9122 56.9625C48.8758 56.633 48.8758 56.633 48.8387 56.2969C48.7564 55.5426 48.678 54.7879 48.5998 54.0331C48.57 53.7518 48.5401 53.4704 48.51 53.1891C48.3136 51.3479 48.1242 49.506 47.9391 47.6636C47.858 46.8569 47.7748 46.0504 47.6912 45.244C47.6263 44.6143 47.5629 43.9845 47.5 43.3546C47.4699 43.0569 47.4394 42.7592 47.4082 42.4616C47.365 42.0483 47.324 41.6348 47.2835 41.2213C47.2597 40.9876 47.236 40.7538 47.2115 40.513C47.1673 39.3322 47.3864 38.3112 47.8055 37.2146C47.9275 36.8921 47.9275 36.8921 48.052 36.5631C48.137 36.3428 48.222 36.1226 48.3095 35.8957C48.3953 35.6699 48.4811 35.4442 48.5695 35.2116C48.7802 34.6575 48.9923 34.104 49.2057 33.5508C49.0325 33.641 48.8594 33.7312 48.6811 33.8241C48.4502 33.9389 48.2193 34.0537 47.9814 34.1719C47.7541 34.2872 47.5269 34.4025 47.2927 34.5213C46.4186 34.8236 46.0552 34.8325 45.1668 34.5648C44.3976 34.1336 43.6796 33.6393 42.9581 33.1326C42.7622 32.9981 42.5663 32.8636 42.3645 32.725C41.8833 32.3942 41.404 32.0611 40.926 31.7257C41.3393 32.8176 41.7856 33.882 42.2986 34.9308C42.3962 35.1329 42.4938 35.3349 42.5944 35.5431C42.7948 35.9556 42.9983 36.3665 43.205 36.7758C43.3015 36.9784 43.3981 37.181 43.4976 37.3897C43.5855 37.5679 43.6735 37.7462 43.7641 37.9298C44.2588 39.7185 43.9298 41.7224 43.7627 43.5488C43.7319 43.8897 43.7319 43.8897 43.7006 44.2374C43.6571 44.7134 43.6129 45.1894 43.5681 45.6653C43.5007 46.3916 43.438 47.1183 43.3754 47.8451C43.3323 48.31 43.2889 48.7749 43.2452 49.2397C43.2273 49.4554 43.2094 49.6711 43.1909 49.8933C43.0555 51.2588 42.8471 52.3967 41.7693 53.3423C40.7007 53.8642 39.8484 54.0041 38.7046 53.6275C37.0945 52.8127 35.6655 51.6168 34.2185 50.5428C30.8612 48.0404 30.8612 48.0404 26.79 47.5437C26.9853 47.6736 27.1805 47.8035 27.3817 47.9374C27.9286 48.3016 28.4739 48.6683 29.0185 49.0361C29.4744 49.3434 29.9311 49.6407 30.399 49.9297C31.784 50.8109 32.6669 51.9665 33.6091 53.2828C34.0005 53.8248 34.4093 54.3528 34.8172 54.8823C34.9837 55.0999 35.1501 55.3175 35.3166 55.535C35.7364 56.082 36.1594 56.6264 36.5835 57.1701C37.2944 58.0817 38.0013 58.9965 38.7046 59.9141C38.8561 60.1115 39.0077 60.3089 39.1637 60.5122C42.1446 64.571 41.4496 69.2448 41.0281 73.984C40.9938 74.3716 40.9605 74.7592 40.9285 75.1469C40.8821 75.6984 40.8307 76.2491 40.7777 76.7999C40.7575 77.05 40.7575 77.05 40.7368 77.3051C40.6589 78.054 40.6022 78.4658 40.1393 79.0756C39.5769 79.4816 39.1944 79.571 38.5027 79.5852C37.5808 79.1531 37.5808 79.1531 37.291 78.5712C37.2714 78.2591 37.2648 77.946 37.2658 77.6333C37.2653 77.4676 37.2648 77.3018 37.2642 77.1311C37.2982 76.3862 37.3941 75.6599 37.493 74.9209C37.1365 75.0088 37.1365 75.0088 36.7728 75.0984C31.5336 76.3131 25.8919 76.1209 21.1978 73.2422C17.7321 71.0102 15.5401 68.1458 14.5686 64.0976C14.4715 63.5644 14.4715 63.5644 14.4715 62.7533C14.3195 62.7282 14.1675 62.7031 14.0109 62.6772C9.66269 61.8293 5.87848 59.1273 3.39995 55.4683C0.779576 51.44 -0.0702251 46.6808 0.871871 41.9897C1.12775 40.8209 1.4788 39.7183 1.9511 38.6207C2.05614 38.3725 2.05614 38.3725 2.1633 38.1193C3.76969 34.6213 6.61585 31.817 10.0288 30.1033C10.0246 29.9494 10.0203 29.7954 10.016 29.6368C9.91101 25.2275 10.0778 21.5423 12.4521 17.7329C13.1203 17.1089 13.5574 16.9906 14.4715 17.1245Z" fill="#A6C7A5"/>
<path d="M46.0377 0.00104453C46.276 0.00287443 46.5142 0.00470434 46.7597 0.00658969C51.6516 0.103687 55.7726 2.25027 59.1695 5.74979C61.5242 8.38668 61.5242 8.38668 61.5242 9.62111C61.874 9.57091 61.874 9.57091 62.2309 9.51971C67.5203 8.95447 71.9847 10.2434 76.1902 13.5249C79.3444 16.1968 81.6532 20.2758 82.1223 24.4251C82.1172 24.8887 82.1012 25.3523 82.0765 25.8154C82.0643 26.0586 82.0521 26.3018 82.0395 26.5525C82.0104 27.0552 81.9735 27.5576 81.929 28.0592C81.8993 28.8085 81.9014 29.3857 82.1223 30.1033C82.8505 30.757 83.6656 31.1133 84.5456 31.5229C85.4358 32.1603 86.1966 32.9792 86.9689 33.7536C87.104 33.887 87.2391 34.0203 87.3783 34.1576C89.5874 36.5018 91.067 39.9525 91.5 43.1202C91.3735 43.9371 91.055 44.2198 90.4019 44.7045C89.7961 44.8313 89.7961 44.8313 89.1903 44.7045C88.2154 43.9201 87.9661 43.2094 87.6883 42.0429C86.7442 38.5016 84.6072 35.5462 81.4254 33.6872C80.8537 33.3642 80.2762 33.0525 79.699 32.7397C78.7167 32.1864 78.7167 32.1864 78.4873 31.7257C78.468 31.4347 78.4611 31.1428 78.4621 30.8512C78.4616 30.6972 78.461 30.5432 78.4605 30.3846C78.4873 29.9006 78.4873 29.9006 78.5851 29.4577C79.2284 25.9294 78.5612 22.3206 76.6596 19.2966C75.9924 18.3647 75.2538 17.5319 74.4485 16.7189C74.3292 16.5921 74.21 16.4653 74.0872 16.3347C71.697 13.9926 68.0566 12.8493 64.7805 12.7898C63.7384 12.8173 62.7825 12.9599 61.7687 13.1882C60.9743 13.3362 60.4913 13.309 59.7067 13.0686C59.2528 12.5885 58.9849 12.0378 58.697 11.4463C56.8891 7.73594 54.0878 5.34559 50.2154 3.94286C49.6105 3.7516 49.0257 3.62389 48.3979 3.53727C48.2211 3.51035 48.0444 3.48342 47.8623 3.45568C44.2002 3.01635 40.6197 4.00046 37.6302 6.14825C35.4625 7.87453 34.1624 9.95205 32.9406 12.4167C32.6079 12.9245 32.4112 13.0872 31.8386 13.2714C31.4047 13.2738 31.4047 13.2738 30.9551 13.208C30.7341 13.1778 30.7341 13.1778 30.5086 13.147C30.1527 13.0898 29.7975 13.0276 29.4429 12.9625C25.7391 12.3974 22.4535 13.3668 19.3182 15.2993C19.2182 15.3997 19.2182 15.3997 19.1162 15.5021C18.2369 15.604 17.8371 15.5998 17.1094 15.0712C16.6929 14.4882 16.6929 14.4882 16.5667 13.8798C16.7813 12.8454 17.3768 12.4809 18.2027 11.9144C21.9644 9.55726 26.2874 8.99856 30.6269 9.62111C30.6795 9.47707 30.7321 9.33303 30.7863 9.18462C32.4758 5.19484 36.1174 2.61886 39.9486 0.959565C41.9448 0.235419 43.9251 -0.0185578 46.0377 0.00104453Z" fill="#A6C7A5"/>
</svg>
