<svg width="20" height="20" viewBox="0 0 20 20" fill="none" xmlns="http://www.w3.org/2000/svg">
<path d="M16.5557 1.21582C16.1519 0.812086 15.5115 0.736025 15.0029 1.02051C13.8569 1.66063 12.9173 2.58321 12.292 3.68945C11.8783 4.42224 11.6142 5.21685 11.5059 6.03418C8.92163 4.09139 5.71198 3.00862 2.38672 2.97656H2.375C1.76496 2.97656 1.22436 3.39825 1.125 3.98145C0.766027 6.10356 0.758852 8.25645 1.10645 10.3789L1.10547 10.3799C1.11248 10.4324 1.12955 10.4791 1.14648 10.5186C1.81963 13.1183 3.56838 15.3589 5.99023 16.7471L6.4834 17.0137C8.07613 17.8252 9.845 18.2344 11.6211 18.2344C12.7657 18.2344 13.9125 18.0612 15.0186 17.7178C16.0052 18.2529 17.0329 18.7178 18.1025 19.1094L18.1016 19.1104C18.1721 19.1367 18.2462 19.1504 18.3203 19.1504C18.5564 19.1504 18.7874 19.0164 18.8828 18.7861V18.7852C19.0118 18.4803 18.8425 18.1475 18.5381 18.0361L18.1328 17.8828C17.1918 17.5166 16.2841 17.0896 15.4131 16.6035L15.3955 16.5928C15.3903 16.5898 15.3829 16.5868 15.375 16.583C12.2705 14.8435 9.66006 12.3767 7.83496 9.42578C7.66526 9.1492 7.29745 9.06088 7.01367 9.21484L6.91406 9.28223C6.70079 9.45856 6.63669 9.76043 6.78906 10.0068C8.05822 12.0718 9.68046 13.9091 11.6104 15.4629C12.2461 15.9745 12.9098 16.4477 13.5967 16.8867C11.3836 17.3257 9.05585 17.021 7.04297 15.998L6.59961 15.7588C4.5706 14.5951 3.08044 12.7611 2.41895 10.626L2.29004 10.1641C2.28703 10.15 2.28285 10.1369 2.2793 10.126C1.96643 8.14698 1.9761 6.14349 2.31055 4.16699L2.32812 4.14453C2.34107 4.13433 2.35523 4.12903 2.36621 4.12891H2.36816C8.44073 4.18865 13.6934 8.06488 15.3164 13.3906C15.3232 13.4289 15.3351 13.4661 15.3516 13.5039C15.4745 13.9178 15.5728 14.3425 15.6494 14.7744L15.7188 15.209C15.7597 15.5074 16.0265 15.7097 16.3174 15.71L16.3965 15.7061C16.7209 15.6639 16.9647 15.3829 16.9199 15.0576C16.8452 14.5127 16.735 13.977 16.5918 13.4502C18.2042 11.8285 19.1107 9.73019 19.1484 7.5C19.1894 5.15435 18.2668 2.92222 16.5557 1.21582ZM15.6826 2.00879L15.6836 2.01074C18.5527 4.86986 18.6986 9.155 16.1758 12.1553C15.9871 11.6617 15.7695 11.1806 15.5234 10.7129C15.464 9.65581 15.4715 8.79705 15.5449 8.01855C15.6219 7.19645 15.7729 6.32486 16.0049 5.35156L16.0059 5.35059C16.0799 5.03118 15.8664 4.72597 15.5439 4.66016C15.2279 4.59586 14.8977 4.77729 14.8232 5.09668L14.6572 5.84473C14.5565 6.33185 14.4761 6.79722 14.415 7.24805L14.3379 7.91504C14.3122 8.19356 14.2969 8.48025 14.2861 8.7793C13.8005 8.14292 13.2577 7.54657 12.6641 6.99609C12.617 4.96105 13.7283 3.06701 15.6172 2.01367L15.6641 2.00293C15.6764 2.00406 15.6815 2.00773 15.6826 2.00879Z" fill="#A6C7A5" stroke="#A6C7A5" stroke-width="0.3"/>
</svg>
