<svg width="63" height="64" viewBox="0 0 63 64" fill="none" xmlns="http://www.w3.org/2000/svg">
<path d="M28.1733 9.5C28.8292 9.5 29.4851 9.5 30.1609 9.5C30.1397 9.95439 30.1397 9.95439 30.1182 10.418C30.0259 13.4427 30.5781 15.7411 31.8169 18.4771C32.3826 19.728 32.8837 21.0041 33.3892 22.2806C33.6639 22.9726 33.9421 23.6633 34.2201 24.354C34.331 24.63 34.4419 24.906 34.5528 25.1819C34.6073 25.3175 34.6617 25.4531 34.7179 25.5928C34.9839 26.255 35.2498 26.9173 35.5157 27.5796C36.6264 30.3459 37.7391 33.1115 38.8567 35.875C38.94 35.8819 39.0233 35.8888 39.1091 35.896C39.4883 35.9277 39.8674 35.9599 40.2465 35.9922C40.3775 36.0031 40.5086 36.0139 40.6437 36.0251C40.7706 36.036 40.8975 36.0469 41.0282 36.0581C41.2029 36.0728 41.2029 36.0728 41.3811 36.0879C41.7047 36.124 42.017 36.1807 42.335 36.25C42.5096 34.5674 42.5096 34.5674 41.8303 33.0859C41.7288 32.9711 41.6273 32.8562 41.5227 32.7378C40.5934 31.635 40.0212 30.1707 40.0611 28.7217C40.1987 27.4617 40.6161 26.4482 41.5897 25.625C42.5557 24.9823 43.6327 24.8522 44.7642 25.0576C45.7326 25.3157 46.6075 25.76 47.1721 26.6172C47.7499 27.6858 47.8796 28.9147 47.5913 30.1016C47.084 31.4629 46.0959 32.8267 44.9117 33.6597C44.5415 34.026 44.5415 34.026 44.4983 34.4985C44.5032 34.6789 44.512 34.8591 44.5245 35.0391C44.5279 35.1316 44.5312 35.2242 44.5347 35.3196C44.5434 35.5465 44.5568 35.7733 44.5711 36C44.6489 35.9639 44.7267 35.9278 44.8069 35.8906C44.9084 35.8442 45.01 35.7978 45.1146 35.75C45.2155 35.7036 45.3163 35.6572 45.4203 35.6094C45.6891 35.5 45.6891 35.5 45.9376 35.5C45.9878 35.3668 45.9878 35.3668 46.039 35.231C46.6653 33.7148 47.8499 31.9176 49.4159 31.25C50.5236 30.8758 51.8745 30.7506 52.9641 31.25C53.8401 31.7789 54.4574 32.5345 54.7993 33.5039C55.0496 34.6295 55.0621 35.8494 54.4606 36.8608C53.7542 37.7942 52.7984 38.3951 51.652 38.625C50.0294 38.7687 48.5311 38.3711 47.1012 37.6069C46.7462 37.4778 46.5437 37.5206 46.186 37.625C46.6144 37.9747 47.0522 38.3062 47.4982 38.6328C48.9084 39.6975 50.1058 40.9331 51.2793 42.25C51.8627 42.1607 52.4189 42.0188 52.8144 41.5502C53.0972 41.1337 53.3405 40.6955 53.5891 40.2578C54.2802 39.0464 55.3736 37.888 56.721 37.4414C57.8751 37.1604 58.9542 37.1705 59.9984 37.7734C60.8888 38.3862 61.4683 39.1866 61.7143 40.25C61.8416 41.4297 61.8321 42.513 61.0931 43.5C60.3314 44.3774 59.2119 44.9124 58.0705 45.0298C56.5911 45.0743 55.2345 44.6409 53.9235 43.9883C53.5456 43.8375 53.2745 43.8655 52.8942 44C53.1242 44.3496 53.3767 44.6747 53.6396 45C53.7275 45.1138 53.8154 45.2275 53.906 45.3447C54.4279 45.9253 54.8042 46.2699 55.5859 46.3203C56.1224 46.3247 56.6565 46.2922 57.1918 46.2605C58.5828 46.2116 59.9704 46.5565 61.0621 47.4375C61.9092 48.2581 62.37 49.1886 62.4286 50.375C62.3753 51.5029 61.9274 52.4304 61.163 53.25C60.276 54.0596 59.4364 54.2977 58.2563 54.2847C57.1235 54.1847 56.1449 53.5785 55.3943 52.7397C54.532 51.6122 54.1854 50.317 54.0278 48.9297C53.8163 47.7468 53.0013 47.1788 52.127 46.4469C51.6284 46.0136 51.2088 45.5033 50.7824 45C50.7055 44.9106 50.6286 44.8211 50.5495 44.729C50.3777 44.5285 50.2072 44.3269 50.037 44.125C49.8824 44.7418 49.9363 45.0291 50.2467 45.5781C51.0329 47.0721 51.6001 48.7954 51.1284 50.4897C50.7527 51.4921 50.1904 52.4103 49.2242 52.915C48.0108 53.4076 46.8936 53.3853 45.6891 52.875C44.7378 52.3925 44.1111 51.7339 43.7209 50.7305C43.4243 49.6465 43.5715 48.4488 44.0227 47.4297C44.7391 46.1872 45.9434 45.1616 47.2264 44.5625C47.6661 44.3162 47.8356 44.1042 47.9892 43.6338C48.1235 43.1357 48.2173 42.6344 48.2979 42.125C46.0001 39.8551 43.6536 38.6479 40.4716 38.125C40.2232 38.0834 39.9747 38.0417 39.7263 38C39.7677 38.1001 39.8091 38.2003 39.8517 38.3034C40.0061 38.6795 40.1587 39.0563 40.3101 39.4336C40.3757 39.5959 40.4419 39.758 40.5089 39.9198C40.6058 40.154 40.7 40.3891 40.7938 40.6245C40.8511 40.7653 40.9083 40.906 40.9673 41.051C41.2433 42.0388 41.0592 43.0915 40.9465 44.0968C40.9309 44.2398 40.9154 44.3829 40.8994 44.5302C40.8481 45 40.796 45.4697 40.7439 45.9395C40.7079 46.267 40.672 46.5946 40.6361 46.9222C40.561 47.6073 40.4855 48.2924 40.4096 48.9774C40.322 49.7684 40.235 50.5595 40.1484 51.3506C40.0648 52.1137 39.9809 52.8768 39.8969 53.6398C39.8612 53.9638 39.8256 54.2877 39.79 54.6117C39.7404 55.0638 39.6903 55.5158 39.6402 55.9679C39.6182 56.1688 39.6182 56.1688 39.5958 56.3737C39.582 56.497 39.5682 56.6204 39.5541 56.7474C39.5423 56.8542 39.5305 56.9609 39.5183 57.0709C39.4768 57.3827 39.4149 57.6915 39.3536 58C40.0505 58 40.7474 58 41.4654 58C41.4654 59.98 41.4654 61.96 41.4654 64C34.2094 64 26.9534 64 19.4775 64C19.4775 62.02 19.4775 60.04 19.4775 58C20.1744 58 20.8713 58 21.5893 58C21.567 57.8331 21.5447 57.6661 21.5217 57.4941C21.2828 55.6892 21.0695 53.882 20.87 52.0723C20.8199 51.6184 20.769 51.1647 20.718 50.7109C20.6857 50.4193 20.6534 50.1276 20.6212 49.8359C20.6061 49.7018 20.5909 49.5677 20.5753 49.4295C20.5047 48.7819 20.4536 48.1515 20.4713 47.5C20.3175 47.5464 20.1638 47.5928 20.0054 47.6406C19.0096 47.8577 18.0774 47.6622 17.1948 47.1641C16.2924 46.5616 15.6953 45.7996 15.378 44.75C15.337 44.42 15.296 44.09 15.2538 43.75C14.5569 44.1213 13.86 44.4925 13.1419 44.875C13.1307 45.9854 13.1428 47.0932 13.1807 48.2031C13.1835 48.3216 13.1863 48.44 13.1892 48.5621C13.2329 49.676 13.6335 50.1459 14.4152 50.8828C15.4851 51.9241 16.3844 53.157 16.419 54.7137C16.4161 55.8687 16.2853 56.9314 15.4707 57.8276C14.4762 58.6179 13.2844 58.9964 12.0239 58.875C11.0136 58.684 10.2074 58.2932 9.56946 57.4673C9.11073 56.7571 8.88509 56.0891 8.79402 55.25C8.77865 55.1134 8.76328 54.9767 8.74744 54.8359C8.9202 53.1265 9.72785 51.6774 10.8268 50.3989C11.1659 49.9421 11.1691 49.5416 11.1436 48.9834C11.1382 48.8621 11.1327 48.7407 11.1271 48.6157C11.1207 48.4899 11.1143 48.364 11.1077 48.2344C11.1023 48.1076 11.0968 47.9808 11.0912 47.8501C11.0852 47.2169 11.0852 47.2169 10.9059 46.625C10.8173 46.7307 10.7288 46.8364 10.6375 46.9453C10.3911 47.2393 10.144 47.5326 9.89653 47.8257C9.69523 48.0641 9.49582 48.3035 9.29869 48.5454C8.09744 49.9953 6.44824 51.1879 4.55093 51.4058C3.39469 51.445 2.36703 51.1011 1.46469 50.375C0.584164 49.3538 0.399355 48.3046 0.432066 46.9902C0.482412 46.3545 0.619458 45.904 0.96779 45.375C1.04466 45.2563 1.04466 45.2563 1.12307 45.1353C1.67783 44.3915 2.54539 43.9176 3.45231 43.75C5.70764 43.5737 7.19481 44.5185 8.91825 45.875C8.94595 45.8057 8.97365 45.7364 9.0022 45.665C10.0421 43.8316 12.6662 42.5683 14.5084 41.75C14.5904 41.75 14.6724 41.75 14.7569 41.75C14.7569 41.6675 14.7569 41.585 14.7569 41.5C14.6339 41.4588 14.5109 41.4175 14.3842 41.375C14.1891 41.1113 14.1891 41.1113 13.996 40.7812C13.9316 40.6736 13.8672 40.566 13.8009 40.4551C13.5028 39.8479 13.5015 39.2951 13.5146 38.625C13.4469 38.6113 13.3791 38.5976 13.3093 38.5835C12.7987 38.4755 12.318 38.3506 11.8298 38.1641C11.1613 37.936 10.6197 38.0302 9.95524 38.2183C8.49904 38.6124 6.47809 38.8947 5.08423 38.1821C4.02041 37.4522 3.36383 36.7329 2.9554 35.5C2.81829 34.2405 3.08042 33.2121 3.80412 32.1733C4.47182 31.3637 5.12979 30.9128 6.16975 30.7656C7.40173 30.6898 8.5587 31.0531 9.53598 31.8164C10.1299 32.3733 10.5221 33.0363 10.9059 33.75C10.9638 33.8565 11.0218 33.963 11.0815 34.0728C11.4132 34.708 11.6331 35.2968 11.7754 36C11.864 36.0242 11.9526 36.0483 12.0438 36.0732C12.7009 36.253 13.3573 36.4348 14.0115 36.625C13.9531 36.5673 13.8946 36.5096 13.8344 36.4502C13.0979 35.6738 12.7774 34.9085 12.7149 33.8359C12.7675 32.64 13.1561 31.5803 13.9926 30.7261C14.8177 30.0284 15.6992 29.8249 16.7595 29.8408C18.721 30.0283 19.8885 31.1595 21.0924 32.625C21.8377 33.6315 21.8377 33.6315 21.8377 34C22.0427 34.0412 22.2477 34.0825 22.4589 34.125C22.3391 33.6318 22.2173 33.1394 22.0906 32.6479C22.0147 32.3506 21.9531 32.0664 21.9071 31.7622C21.7181 30.7051 20.87 30.2493 20.0586 29.6567C19.013 28.8709 18.3235 27.8452 17.8625 26.625C17.7661 26.6294 17.6697 26.6337 17.5704 26.6382C16.1452 26.6741 14.6509 26.5754 13.5146 25.625C13.4278 25.5528 13.341 25.4806 13.2516 25.4062C12.504 24.7229 12.1051 24.0187 11.9773 23.0059C11.9273 21.7786 12.3036 20.7968 13.0628 19.8442C13.6854 19.1729 14.3734 18.802 15.2906 18.708C16.8009 18.6908 17.7225 19.0062 18.8224 20.0605C19.3099 20.6034 19.8501 21.2437 19.8501 22C19.9254 21.9729 20.0007 21.9459 20.0782 21.918C21.1775 21.5504 22.0167 21.4929 23.1198 21.8784C23.2524 21.9243 23.385 21.9702 23.5216 22.0175C23.6219 22.053 23.7221 22.0885 23.8254 22.125C23.8727 22.036 23.92 21.947 23.9688 21.8553C24.8565 20.1866 25.7448 18.5183 26.636 16.8516C26.7064 16.7198 26.7768 16.588 26.8493 16.4522C26.9498 16.2644 26.9498 16.2644 27.0523 16.0728C27.1156 15.9519 27.1788 15.8311 27.244 15.7066C27.4279 15.375 27.4279 15.375 27.6115 15.1194C28.284 14.1457 28.1465 12.9421 28.15 11.8047C28.1529 11.581 28.156 11.3573 28.1594 11.1335C28.1677 10.589 28.1704 10.0448 28.1733 9.5ZM28.9186 16.875C28.8775 16.9553 28.8364 17.0355 28.794 17.1182C28.0449 18.579 27.2905 20.0358 26.504 21.4766C25.914 22.5584 25.914 22.5584 25.3394 23.6484C25.2822 23.7585 25.225 23.8685 25.1661 23.9819C25.0299 24.2666 25.0299 24.2666 25.1918 24.625C25.3213 26.302 25.1135 27.7112 24.1586 29.136C23.6433 29.865 23.6433 29.865 23.6002 30.7188C23.6704 30.9391 23.7465 31.1576 23.8254 31.375C23.8795 31.5579 23.9322 31.7412 23.984 31.9248C24.1327 32.4516 24.2882 32.976 24.4465 33.5C24.5695 33.5 24.6925 33.5 24.8192 33.5C25.0283 32.8419 25.1188 32.2257 25.1763 31.5391C25.3318 29.9615 25.7215 28.5191 26.9 27.4062C27.8415 26.6367 28.6483 26.4126 29.8663 26.4521C30.8405 26.5635 31.6117 27.0301 32.2727 27.75C32.9404 28.609 33.2365 29.5256 33.1423 30.625C32.9043 31.8507 32.3296 32.7448 31.3105 33.4609C30.2465 34.0843 28.9547 34.393 27.7273 34.3647C27.26 34.3592 26.8837 34.3684 26.4341 34.5C25.8994 35.0373 25.5543 35.656 25.3161 36.375C25.3906 36.7011 25.4743 37.0132 25.5713 37.3325C25.5988 37.4257 25.6262 37.5189 25.6545 37.615C25.7426 37.9129 25.8321 38.2103 25.9217 38.5078C25.9811 38.7087 26.0405 38.9096 26.0998 39.1106C26.3419 40.0122 26.3419 40.0122 26.6826 40.875C27.0105 40.875 27.3385 40.875 27.6764 40.875C27.7127 40.8088 27.749 40.7426 27.7865 40.6744C27.9515 40.374 28.1167 40.0737 28.282 39.7734C28.3391 39.6693 28.3963 39.5651 28.4552 39.4578C28.5104 39.3575 28.5657 39.2572 28.6226 39.1538C28.6734 39.0615 28.7241 38.9692 28.7764 38.8741C28.8981 38.6609 29.0315 38.4546 29.1671 38.25C29.7087 38.4186 30.1998 38.6311 30.7044 38.8906C30.836 38.958 30.9676 39.0253 31.1032 39.0947C31.2022 39.146 31.3012 39.1972 31.4031 39.25C31.4712 39.1909 31.5393 39.1317 31.6094 39.0708C32.9343 37.9588 34.2995 37.1239 35.9534 36.6174C36.1791 36.5465 36.4005 36.4618 36.6206 36.375C36.7729 35.9154 36.705 35.8249 36.5182 35.3901C36.4635 35.2602 36.4087 35.1303 36.3523 34.9965C36.2584 34.7778 36.2584 34.7778 36.1625 34.5547C36.0228 34.2235 35.8842 33.8918 35.7457 33.5601C35.7075 33.4687 35.6692 33.3773 35.6298 33.2832C35.1488 32.1293 34.691 30.9661 34.2312 29.8036C33.2124 27.2281 32.1785 24.6592 31.1352 22.0937C30.4292 20.3575 29.729 18.6192 29.0428 16.875C29.0019 16.875 28.9609 16.875 28.9186 16.875ZM14.26 21.625C13.981 22.0946 13.9638 22.4526 14.0115 23C14.2574 23.5967 14.7192 24.03 15.2538 24.375C16.0551 24.6855 17.0444 24.7744 17.8625 24.5C18.2156 23.8656 18.3087 23.4714 18.111 22.75C17.733 21.8712 17.2835 21.3797 16.5116 20.8359C15.4913 20.5038 14.9294 20.847 14.26 21.625ZM20.0442 24.2734C19.6934 24.9088 19.6564 25.4813 19.8346 26.1719C20.215 27.1915 21.1213 27.9743 21.962 28.625C22.3572 28.493 22.456 28.3801 22.6661 28.0083C22.7284 27.8638 22.7907 27.7192 22.8548 27.5703C22.9181 27.4261 22.9813 27.2819 23.0465 27.1333C23.395 26.2864 23.4826 25.449 23.1809 24.5703C22.7986 24.0265 22.511 23.7936 21.861 23.6328C21.1432 23.5768 20.5759 23.7933 20.0442 24.2734ZM42.7077 27.375C42.247 27.8887 42.1073 28.3703 42.0672 29.0454C42.1294 30.1025 42.8001 31.1982 43.453 32C43.8926 32 43.9303 31.9487 44.2295 31.6484C45.0711 30.7673 45.7386 29.7795 45.7245 28.5356C45.6574 27.9944 45.3605 27.6484 44.9641 27.2988C44.2679 26.8486 43.3646 26.8871 42.7077 27.375ZM27.6885 29.4033C27.4314 29.8213 27.3048 30.2781 27.1795 30.75C27.1372 30.9047 27.1372 30.9047 27.0941 31.0625C27.0346 31.5412 27.0458 32.0183 27.0552 32.5C28.0863 32.5622 29.3464 32.454 30.2385 31.8906C30.7253 31.4524 31.1072 31.0192 31.2789 30.375C31.2524 29.7483 31.0457 29.3603 30.6578 28.875C30.1698 28.4509 29.7942 28.2907 29.1608 28.3271C28.5317 28.4515 28.0747 28.9111 27.6885 29.4033ZM15.0907 32.5781C14.8315 33.0999 14.7299 33.542 14.7569 34.125C14.9359 34.6369 15.1347 35.0026 15.6264 35.25C15.7528 35.2222 15.7528 35.2222 15.8817 35.1938C16.206 35.1328 16.4587 35.1227 16.7852 35.1348C18.3594 35.2174 18.3594 35.2174 19.7259 34.5C19.3861 33.4742 18.5287 32.6059 17.5908 32.1016C16.6276 31.6845 15.8047 31.7626 15.0907 32.5781ZM5.68837 33.125C5.21903 33.61 4.98146 34.072 4.89643 34.7422C4.9774 35.4075 5.33174 35.8298 5.84366 36.2344C6.75414 36.7689 8.10096 36.5847 9.09682 36.3984C9.31589 36.325 9.31589 36.325 9.53938 36.25C9.69441 35.782 9.57091 35.5989 9.36541 35.1688C9.32034 35.0796 9.27526 34.9904 9.22881 34.8984C9.16024 34.7626 9.16024 34.7626 9.09027 34.6239C8.63368 33.7544 8.17814 33.26 7.26449 32.8906C6.62724 32.695 6.26273 32.8005 5.68837 33.125ZM48.8981 34.3267C48.3073 35.0324 48.3073 35.0324 48.0494 35.875C48.3054 35.9772 48.5617 36.0786 48.8181 36.1797C48.9607 36.2362 49.1034 36.2928 49.2504 36.3511C50.1346 36.6692 51.0622 36.8224 51.9392 36.4141C52.3675 36.1655 52.6605 35.9508 52.8942 35.5C52.9952 34.8777 52.9758 34.32 52.6768 33.7578C52.3688 33.336 52.1389 33.0453 51.6151 32.9458C50.3589 32.9438 49.6978 33.3665 48.8981 34.3267ZM20.5955 36.25C20.7993 36.7109 21.0833 37.0849 21.3874 37.4844C21.6819 37.8719 21.966 38.2562 22.2308 38.665C22.4249 39.0082 22.4249 39.0082 22.7073 39.125C22.7854 39.4166 22.8508 39.7116 22.9092 40.0078C22.9577 40.2498 22.9577 40.2498 23.0072 40.4966C23.0312 40.6215 23.0553 40.7463 23.08 40.875C23.5719 40.875 24.0639 40.875 24.5707 40.875C24.5137 40.6137 24.4565 40.3524 24.3982 40.0914C24.3471 39.8618 24.2972 39.6319 24.2483 39.4017C23.9592 37.7713 23.9592 37.7713 23.0261 36.498C22.6084 36.2646 22.1765 36.1192 21.7135 36C21.5749 35.9553 21.5749 35.9553 21.4335 35.9097C21.0814 35.8534 20.876 36.054 20.5955 36.25ZM15.9991 37.375C15.5949 38.0066 15.3987 38.6156 15.5265 39.3647C15.7138 39.8524 16.0574 40.1159 16.496 40.375C16.8432 40.553 16.8432 40.553 17.2414 40.5C17.5464 40.3667 17.8342 40.2123 18.126 40.0518C18.7541 39.7413 19.4266 39.5647 20.0986 39.375C20.0986 38.7401 19.6396 38.3301 19.229 37.875C18.4618 37.2056 17.9749 36.9577 16.9551 36.9751C16.5174 37.0077 16.3128 37.0594 15.9991 37.375ZM33.0181 40.5C33.1001 40.6237 33.1821 40.7475 33.2665 40.875C33.5065 40.9295 33.5065 40.9295 33.7851 40.9176C33.892 40.9175 33.9989 40.9175 34.1091 40.9175C34.2824 40.9146 34.2824 40.9146 34.4593 40.9116C34.6366 40.9108 34.6366 40.9108 34.8175 40.91C35.196 40.9079 35.5744 40.9032 35.9529 40.8984C36.2091 40.8966 36.4653 40.8948 36.7216 40.8933C37.3505 40.8892 37.9793 40.8827 38.6082 40.875C38.4893 40.5547 38.3702 40.2343 38.2511 39.9141C38.2176 39.8239 38.1842 39.7338 38.1497 39.6409C37.9763 39.1751 37.8005 38.7108 37.6144 38.25C35.9459 38.25 34.1952 39.3963 33.0181 40.5ZM56.4837 39.8247C55.8226 40.4513 55.3117 41.197 54.8818 42C54.8818 42.0825 54.8818 42.165 54.8818 42.25C55.1586 42.3521 55.4355 42.4536 55.7126 42.5547C55.7903 42.5835 55.8681 42.6122 55.9482 42.6418C56.94 43.0024 57.7758 43.1882 58.7639 42.7266C59.2389 42.4658 59.5562 42.2891 59.7266 41.75C59.8445 40.934 59.7058 40.4153 59.2297 39.75C58.4588 38.9475 57.2849 39.2129 56.4837 39.8247ZM29.9124 40.75C29.7903 41.0311 29.6688 41.3123 29.5475 41.5938C29.513 41.673 29.4785 41.7523 29.4429 41.834C29.0645 42.7148 28.8459 43.5865 29.1278 44.5361C29.3914 45.124 29.6919 45.4691 30.2851 45.75C30.9611 45.8366 31.4259 45.6931 32.0243 45.375C32.3717 45.0806 32.501 44.9359 32.6454 44.5C32.7239 43.5682 32.5319 42.9616 31.9335 42.2412C31.3694 41.6453 30.745 41.1617 30.0367 40.75C29.9957 40.75 29.9547 40.75 29.9124 40.75ZM20.9682 41.125C19.097 41.562 19.097 41.562 17.6684 42.7734C17.3836 43.3342 17.3127 43.7465 17.3656 44.375C17.7429 45.1495 18.2583 45.4462 19.0427 45.7422C19.6062 45.7564 20.0232 45.5529 20.4354 45.1855C21.1731 44.3816 21.2579 43.517 21.2477 42.4609C21.2486 42.3597 21.2496 42.2584 21.2506 42.1541C21.2732 41.5797 21.2732 41.5797 20.9682 41.125ZM23.2042 42.875C23.153 43.1844 23.1017 43.4938 23.0489 43.8125C22.9479 44.3909 22.8541 44.9144 22.5598 45.4297C22.1379 46.264 22.3421 47.2309 22.4487 48.1375C22.4608 48.2449 22.4729 48.3524 22.4854 48.4631C22.5251 48.8142 22.5658 49.1651 22.6064 49.5161C22.6343 49.7611 22.6621 50.0061 22.6899 50.2512C22.7629 50.893 22.8366 51.5347 22.9105 52.1764C22.9992 52.948 23.0869 53.7198 23.1748 54.4915C23.3081 55.6611 23.4426 56.8305 23.5769 58C26.4465 58 29.3161 58 32.2727 58C32.2727 58.6188 32.2727 59.2375 32.2727 59.875C28.7062 59.875 25.1397 59.875 21.4651 59.875C21.4651 60.6175 21.4651 61.36 21.4651 62.125C27.4093 62.125 33.3535 62.125 39.4778 62.125C39.4778 61.3825 39.4778 60.64 39.4778 59.875C37.7151 59.875 35.9523 59.875 34.1361 59.875C34.1361 59.2562 34.1361 58.6375 34.1361 58C35.202 58 36.2678 58 37.366 58C37.5216 56.6262 37.6772 55.2525 37.8326 53.8787C37.9048 53.2404 37.977 52.602 38.0494 51.9637C38.4482 48.4484 38.4482 48.4484 38.8349 44.9316C38.8502 44.7919 38.8655 44.6522 38.8812 44.5082C38.8947 44.382 38.9082 44.2557 38.9221 44.1256C38.9393 43.9652 38.9393 43.9652 38.9569 43.8015C38.9814 43.4935 38.9809 43.1839 38.9809 42.875C37.5051 42.875 36.0293 42.875 34.5088 42.875C34.5088 43.535 34.5088 44.195 34.5088 44.875C34.253 45.7913 33.9119 46.4313 33.1423 47C32.0537 47.6069 30.9557 47.7929 29.7212 47.5674C28.8722 47.3178 28.2835 46.9027 27.8341 46.1309C27.2272 44.9299 27.1601 44.3516 27.0552 42.875C25.7844 42.875 24.5136 42.875 23.2042 42.875ZM2.66037 46.4453C2.35589 47.0934 2.33174 47.6977 2.53614 48.3867C2.73995 48.8188 2.9897 49.0602 3.41349 49.25C4.20085 49.4847 4.8929 49.3702 5.6185 49C6.29589 48.5918 6.85975 48.0475 7.42754 47.5C6.67592 46.6681 5.6936 45.8363 4.55142 45.7236C3.74673 45.6886 3.22389 45.8335 2.66037 46.4453ZM48.1736 46.25C47.1513 46.944 46.1279 47.6533 45.6192 48.8203C45.5324 49.5072 45.5187 50.0231 45.9531 50.6016C46.4615 50.9908 46.9258 51.2135 47.5603 51.3047C48.1311 51.2191 48.4993 50.9346 48.8879 50.5156C49.3359 49.7493 49.3483 49.101 49.1674 48.25C48.8525 47.1418 48.8525 47.1418 48.1736 46.25ZM55.9999 48.375C56.0301 49.6265 56.3958 50.8102 57.2421 51.75C57.6715 52.0552 58.1061 52.2291 58.6241 52.3125C59.361 52.1836 59.8036 51.7198 60.2235 51.125C60.4253 50.7189 60.4164 50.3139 60.3478 49.875C60.09 49.2969 59.6799 48.8854 59.1157 48.5972C58.1443 48.2322 57.0054 48.097 55.9999 48.375ZM12.2723 51.75C11.14 53.3052 11.14 53.3052 10.7894 55.1406C10.9637 55.8654 11.1434 56.3362 11.7987 56.75C12.5048 56.9364 13.0745 56.8813 13.7475 56.6016C14.1695 56.2394 14.3482 55.8888 14.424 55.3335C14.4763 54.1912 14.0611 53.5503 13.3283 52.7109C12.9977 52.3482 12.6729 52.033 12.2723 51.75Z" fill="#A6C7A5"/>
<path d="M28.1733 0C28.8292 0 29.4851 0 30.1609 0C30.1609 2.5575 30.1609 5.115 30.1609 7.75C29.505 7.75 28.8491 7.75 28.1733 7.75C28.1733 5.1925 28.1733 2.635 28.1733 0Z" fill="#A6C7A5"/>
</svg>
