<svg width="16" height="16" viewBox="0 0 16 16" fill="none" xmlns="http://www.w3.org/2000/svg">
<path d="M6.15385 12.3077C6.15385 11.8216 6.15315 11.4878 6.13542 11.2276C6.12237 11.0364 6.10121 10.9101 6.07372 10.8165L6.04487 10.7324C5.91736 10.4245 5.68709 10.1719 5.39583 10.016L5.26763 9.95513C5.16663 9.91329 5.02717 9.88196 4.77244 9.86458C4.51222 9.84685 4.17841 9.84615 3.69231 9.84615C3.2062 9.84615 2.87239 9.84685 2.61218 9.86458C2.421 9.87763 2.29477 9.89879 2.20112 9.92628L2.11699 9.95513C1.80912 10.0826 1.55658 10.3129 1.40064 10.6042L1.33974 10.7324C1.29791 10.8334 1.26658 10.9728 1.2492 11.2276C1.23147 11.4878 1.23077 11.8216 1.23077 12.3077C1.23077 12.7938 1.23147 13.1276 1.2492 13.3878C1.26658 13.6425 1.29791 13.782 1.33974 13.883L1.40064 14.0112C1.55658 14.3025 1.80912 14.5327 2.11699 14.6603L2.20112 14.6891C2.29477 14.7166 2.421 14.7378 2.61218 14.7508C2.87239 14.7685 3.2062 14.7692 3.69231 14.7692C4.17841 14.7692 4.51222 14.7685 4.77244 14.7508C5.02717 14.7334 5.16663 14.7021 5.26763 14.6603L5.39583 14.5994C5.68709 14.4434 5.91736 14.1909 6.04487 13.883L6.07372 13.7989C6.10121 13.7052 6.12237 13.579 6.13542 13.3878C6.15315 13.1276 6.15385 12.7938 6.15385 12.3077ZM14.7692 12.3077C14.7692 11.8216 14.7685 11.4878 14.7508 11.2276C14.7378 11.0364 14.7166 10.9101 14.6891 10.8165L14.6603 10.7324C14.5327 10.4245 14.3025 10.1719 14.0112 10.016L13.883 9.95513C13.782 9.9133 13.6425 9.88196 13.3878 9.86458C13.1276 9.84685 12.7938 9.84615 12.3077 9.84615C11.8216 9.84615 11.4878 9.84685 11.2276 9.86458C11.0364 9.87763 10.9101 9.89879 10.8165 9.92628L10.7324 9.95513C10.4245 10.0826 10.1719 10.3129 10.016 10.6042L9.95513 10.7324C9.9133 10.8334 9.88196 10.9728 9.86458 11.2276C9.84685 11.4878 9.84615 11.8216 9.84615 12.3077C9.84615 12.7938 9.84685 13.1276 9.86458 13.3878C9.88196 13.6425 9.9133 13.782 9.95513 13.883L10.016 14.0112C10.1719 14.3025 10.4245 14.5327 10.7324 14.6603L10.8165 14.6891C10.9101 14.7166 11.0364 14.7378 11.2276 14.7508C11.4878 14.7685 11.8216 14.7692 12.3077 14.7692C12.7938 14.7692 13.1276 14.7685 13.3878 14.7508C13.6425 14.7334 13.782 14.7021 13.883 14.6603L14.0112 14.5994C14.3025 14.4434 14.5327 14.1909 14.6603 13.883L14.6891 13.7989C14.7166 13.7052 14.7378 13.579 14.7508 13.3878C14.7685 13.1276 14.7692 12.7938 14.7692 12.3077ZM6.15385 3.69231C6.15385 3.2062 6.15315 2.87239 6.13542 2.61218C6.12237 2.421 6.10121 2.29477 6.07372 2.20112L6.04487 2.11699C5.91737 1.80913 5.68711 1.55659 5.39583 1.40064L5.26763 1.33974C5.16663 1.29791 5.02717 1.26658 4.77244 1.2492C4.51222 1.23146 4.17841 1.23077 3.69231 1.23077C3.2062 1.23077 2.87239 1.23146 2.61218 1.2492C2.421 1.26224 2.29477 1.28341 2.20112 1.3109L2.11699 1.33974C1.80911 1.46729 1.55658 1.69754 1.40064 1.98878L1.33974 2.11699C1.29791 2.21799 1.26658 2.35745 1.2492 2.61218C1.23146 2.87239 1.23077 3.2062 1.23077 3.69231C1.23077 4.17841 1.23146 4.51222 1.2492 4.77244C1.26658 5.02717 1.29791 5.16663 1.33974 5.26763L1.40064 5.39583C1.55659 5.68711 1.80913 5.91737 2.11699 6.04487L2.20112 6.07372C2.29477 6.10121 2.421 6.12237 2.61218 6.13542C2.87239 6.15315 3.2062 6.15385 3.69231 6.15385C4.17841 6.15385 4.51222 6.15315 4.77244 6.13542C5.02717 6.11804 5.16663 6.08671 5.26763 6.04487L5.39583 5.98397C5.68708 5.82805 5.91736 5.57551 6.04487 5.26763L6.07372 5.18349C6.10121 5.08985 6.12237 4.96362 6.13542 4.77244C6.15315 4.51222 6.15385 4.17841 6.15385 3.69231ZM14.7692 3.69231C14.7692 3.2062 14.7685 2.87239 14.7508 2.61218C14.7378 2.421 14.7166 2.29477 14.6891 2.20112L14.6603 2.11699C14.5327 1.80912 14.3025 1.55658 14.0112 1.40064L13.883 1.33974C13.782 1.29791 13.6425 1.26658 13.3878 1.2492C13.1276 1.23147 12.7938 1.23077 12.3077 1.23077C11.8216 1.23077 11.4878 1.23147 11.2276 1.2492C11.0364 1.26224 10.9101 1.28341 10.8165 1.3109L10.7324 1.33974C10.4245 1.46729 10.1719 1.69756 10.016 1.98878L9.95513 2.11699C9.91329 2.21799 9.88196 2.35745 9.86458 2.61218C9.84685 2.87239 9.84615 3.2062 9.84615 3.69231C9.84615 4.17841 9.84685 4.51222 9.86458 4.77244C9.88196 5.02717 9.91329 5.16663 9.95513 5.26763L10.016 5.39583C10.1719 5.68709 10.4245 5.91736 10.7324 6.04487L10.8165 6.07372C10.9101 6.10121 11.0364 6.12237 11.2276 6.13542C11.4878 6.15315 11.8216 6.15385 12.3077 6.15385C12.7938 6.15385 13.1276 6.15315 13.3878 6.13542C13.6425 6.11804 13.782 6.0867 13.883 6.04487L14.0112 5.98397C14.3025 5.82806 14.5327 5.57552 14.6603 5.26763L14.6891 5.18349C14.7166 5.08985 14.7378 4.96362 14.7508 4.77244C14.7685 4.51222 14.7692 4.17841 14.7692 3.69231ZM7.38462 12.3077C7.38462 12.7772 7.38506 13.1601 7.36378 13.472C7.34754 13.71 7.31779 13.9318 7.25561 14.1442L7.18189 14.3542C6.9281 14.9668 6.4555 15.4612 5.85897 15.7436L5.73878 15.7973C5.46282 15.9116 5.17397 15.9575 4.85657 15.9792C4.5447 16.0004 4.16177 16 3.69231 16C3.22284 16 2.83992 16.0004 2.52805 15.9792C2.29004 15.9629 2.06818 15.9332 1.85577 15.871L1.64583 15.7973C1.0332 15.5435 0.538779 15.0709 0.256411 14.4744L0.202725 14.3542C0.0884133 14.0782 0.0424899 13.7893 0.020834 13.472C-0.000442917 13.1601 7.17294e-07 12.7772 7.17294e-07 12.3077C7.17294e-07 11.8382 -0.00044289 11.4553 0.020834 11.1434C0.0424899 10.826 0.0884133 10.5372 0.202725 10.2612L0.256411 10.141C0.538779 9.54449 1.0332 9.0719 1.64583 8.81811L1.85577 8.74439C2.06818 8.68221 2.29004 8.65246 2.52805 8.63622C2.83992 8.61494 3.22284 8.61538 3.69231 8.61538C4.16177 8.61538 4.5447 8.61494 4.85657 8.63622C5.17397 8.65787 5.46282 8.7038 5.73878 8.81811L5.85897 8.87179C6.4555 9.15414 6.9281 9.64858 7.18189 10.2612L7.25561 10.4712C7.31779 10.6836 7.34754 10.9054 7.36378 11.1434C7.38506 11.4553 7.38462 11.8382 7.38462 12.3077ZM16 12.3077C16 12.7772 16.0004 13.1601 15.9792 13.472C15.9629 13.71 15.9332 13.9318 15.871 14.1442L15.7973 14.3542C15.5435 14.9668 15.0709 15.4612 14.4744 15.7436L14.3542 15.7973C14.0782 15.9116 13.7893 15.9575 13.472 15.9792C13.1601 16.0004 12.7772 16 12.3077 16C11.8382 16 11.4553 16.0004 11.1434 15.9792C10.9054 15.9629 10.6836 15.9332 10.4712 15.871L10.2612 15.7973C9.64859 15.5435 9.15415 15.0709 8.87179 14.4744L8.81811 14.3542C8.7038 14.0782 8.65787 13.7893 8.63622 13.472C8.61494 13.1601 8.61538 12.7772 8.61538 12.3077C8.61538 11.8382 8.61494 11.4553 8.63622 11.1434C8.65787 10.826 8.7038 10.5372 8.81811 10.2612L8.87179 10.141C9.15415 9.54447 9.64859 9.07189 10.2612 8.81811L10.4712 8.74439C10.6836 8.68221 10.9054 8.65246 11.1434 8.63622C11.4553 8.61494 11.8382 8.61538 12.3077 8.61538C12.7772 8.61538 13.1601 8.61494 13.472 8.63622C13.7893 8.65787 14.0782 8.7038 14.3542 8.81811L14.4744 8.87179C15.0709 9.15415 15.5435 9.64859 15.7973 10.2612L15.871 10.4712C15.9332 10.6836 15.9629 10.9054 15.9792 11.1434C16.0004 11.4553 16 11.8382 16 12.3077ZM7.38462 3.69231C7.38462 4.16177 7.38506 4.5447 7.36378 4.85657C7.34754 5.09458 7.31779 5.31643 7.25561 5.52885L7.18189 5.73878C6.92811 6.35139 6.45551 6.84585 5.85897 7.1282L5.73878 7.18189C5.46282 7.2962 5.17397 7.34213 4.85657 7.36378C4.5447 7.38506 4.16177 7.38462 3.69231 7.38462C3.22284 7.38462 2.83992 7.38506 2.52805 7.36378C2.29004 7.34754 2.06818 7.31779 1.85577 7.25561L1.64583 7.18189C1.0332 6.9281 0.538776 6.45549 0.256411 5.85897L0.202725 5.73878C0.088418 5.46282 0.0424898 5.17397 0.020834 4.85657C-0.000444291 4.5447 7.17294e-07 4.16177 7.17294e-07 3.69231C7.17294e-07 3.22284 -0.000444291 2.83992 0.020834 2.52805C0.0424898 2.21065 0.088418 1.9218 0.202725 1.64583L0.256411 1.52564C0.538788 0.929107 1.03322 0.456539 1.64583 0.202725L1.85577 0.129007C2.06818 0.0668303 2.29004 0.0370731 2.52805 0.020834C2.83992 -0.000444291 3.22284 7.17294e-07 3.69231 7.17294e-07C4.16177 7.17294e-07 4.5447 -0.000444291 4.85657 0.020834C5.17397 0.0424898 5.46282 0.088418 5.73878 0.202725L5.85897 0.256411C6.45549 0.538776 6.9281 1.0332 7.18189 1.64583L7.25561 1.85577C7.31779 2.06818 7.34754 2.29004 7.36378 2.52805C7.38506 2.83992 7.38462 3.22284 7.38462 3.69231ZM16 3.69231C16 4.16177 16.0004 4.5447 15.9792 4.85657C15.9629 5.09458 15.9332 5.31643 15.871 5.52885L15.7973 5.73878C15.5435 6.35138 15.0709 6.84585 14.4744 7.1282L14.3542 7.18189C14.0782 7.2962 13.7893 7.34213 13.472 7.36378C13.1601 7.38506 12.7772 7.38462 12.3077 7.38462C11.8382 7.38462 11.4553 7.38506 11.1434 7.36378C10.9054 7.34754 10.6836 7.31779 10.4712 7.25561L10.2612 7.18189C9.64858 6.9281 9.15414 6.4555 8.87179 5.85897L8.81811 5.73878C8.7038 5.46282 8.65787 5.17397 8.63622 4.85657C8.61494 4.5447 8.61538 4.16177 8.61538 3.69231C8.61538 3.22284 8.61494 2.83992 8.63622 2.52805C8.65787 2.21065 8.7038 1.9218 8.81811 1.64583L8.87179 1.52564C9.15415 0.929092 9.64861 0.456531 10.2612 0.202725L10.4712 0.129007C10.6836 0.0668301 10.9054 0.037073 11.1434 0.020834C11.4553 -0.00044289 11.8382 7.17294e-07 12.3077 7.17294e-07C12.7772 7.17294e-07 13.1601 -0.000442917 13.472 0.020834C13.7893 0.0424899 14.0782 0.0884133 14.3542 0.202725L14.4744 0.256411C15.0709 0.538779 15.5435 1.0332 15.7973 1.64583L15.871 1.85577C15.9332 2.06818 15.9629 2.29004 15.9792 2.52805C16.0004 2.83992 16 3.22284 16 3.69231Z" fill="#3D853C"/>
</svg>
