<svg width="46" height="64" viewBox="0 0 46 64" fill="none" xmlns="http://www.w3.org/2000/svg">
<path d="M25.8358 1.12152C27.3186 2.1627 28.3051 3.56957 28.7111 5.34984C28.9396 6.78147 28.8914 8.23278 28.8669 9.67801C29.0471 9.58078 29.2269 9.48291 29.4066 9.38479C29.5569 9.30314 29.5569 9.30314 29.7102 9.21985C30.0776 9.00216 30.335 8.75493 30.6126 8.43109C30.6931 8.34164 30.6931 8.34164 30.7753 8.25038C31.5549 7.29776 31.6221 6.11446 31.6647 4.93193C31.7254 3.41999 32.1255 2.28067 33.2311 1.19896C34.6212 0.134267 35.889 -0.081329 37.5953 0.0767386C38.8285 0.348721 39.8637 1.1812 40.5879 2.1965C41.7799 4.07468 41.4777 6.76614 41.0216 8.85399C40.5045 10.9926 39.5814 13.0261 38.0941 14.6657C38.0073 14.7685 37.9205 14.8714 37.8311 14.9774C35.5387 17.6438 32.3288 19.1825 28.8669 19.5287C28.8669 24.8779 28.8669 30.2272 28.8669 35.7386C31.3468 35.03 33.227 34.0014 34.5764 31.7504C35.3526 30.2746 35.5937 28.8254 35.6237 27.1786C35.6625 25.5139 35.9865 24.1001 37.2213 22.8953C38.2451 22.1174 39.1492 21.7237 40.4321 21.7264C40.5315 21.7266 40.6308 21.7268 40.7332 21.727C41.5165 21.7432 42.1465 21.8778 42.8324 22.2719C42.9636 22.3465 43.0947 22.421 43.2299 22.4979C44.4374 23.4371 45.0861 24.4941 45.3262 26.0126C45.3588 26.4265 45.362 26.8368 45.3574 27.2518C45.3565 27.3657 45.3555 27.4797 45.3546 27.5971C45.2795 32.4339 43.54 36.703 40.2139 40.2275C40.13 40.3194 40.0461 40.4114 39.9596 40.5061C38.8781 41.6484 37.5605 42.5283 36.2237 43.3448C36.3875 43.3466 36.5513 43.3483 36.7201 43.3502C36.9365 43.356 37.1529 43.362 37.3693 43.3682C37.531 43.3693 37.531 43.3693 37.6959 43.3704C38.2245 43.3886 38.5225 43.4236 38.9733 43.7174C39.5788 44.6531 39.3304 45.8908 39.2553 46.9531C39.2496 47.0348 39.2439 47.1165 39.238 47.2006C38.865 52.4363 37.4911 57.4318 35.0703 62.0875C35.0189 62.1867 34.9675 62.2858 34.9145 62.3879C34.2359 63.666 34.2359 63.666 33.7299 63.9189C33.4235 63.9322 33.1206 63.9379 32.8142 63.9381C32.7187 63.9387 32.6232 63.9392 32.5248 63.9398C32.203 63.9415 31.8813 63.9422 31.5596 63.943C31.3296 63.944 31.0996 63.945 30.8696 63.9461C30.1129 63.9493 29.3562 63.9513 28.5995 63.953C28.3393 63.9537 28.0791 63.9544 27.8188 63.9551C26.7367 63.9577 25.6545 63.9601 24.5723 63.9615C23.0199 63.9635 21.4676 63.9677 19.9152 63.9748C18.8245 63.9796 17.7338 63.982 16.643 63.9827C15.9912 63.9831 15.3394 63.9846 14.6875 63.9887C14.0743 63.9924 13.4612 63.9932 12.8481 63.9917C12.6229 63.9917 12.3978 63.9928 12.1726 63.9949C11.8654 63.9978 11.5584 63.9967 11.2511 63.9948C11.1619 63.9965 11.0726 63.9982 10.9807 64C10.5023 63.9924 10.305 63.9331 9.93089 63.6249C6.58087 59.4836 5.16877 52.8877 4.8014 47.709C4.78787 47.5192 4.78787 47.5192 4.77406 47.3256C4.74607 46.9054 4.72231 46.4852 4.70009 46.0646C4.69193 45.9319 4.68377 45.7992 4.67537 45.6625C4.64249 44.9086 4.66392 44.3761 5.05078 43.7189C5.50722 43.4146 5.84431 43.436 6.37159 43.4412C6.51812 43.4411 6.51811 43.4411 6.6676 43.4411C6.98382 43.4413 7.30001 43.4432 7.61622 43.4451C7.81144 43.4455 8.00666 43.4458 8.20189 43.4459C8.92578 43.4472 9.64967 43.4507 10.3736 43.4539C11.9912 43.459 13.6088 43.4642 15.2755 43.4695C15.2755 39.3958 15.2755 35.3221 15.2755 31.125C14.9463 31.125 14.6171 31.125 14.278 31.125C12.998 30.9933 11.7521 30.6053 10.5606 30.1353C10.4055 30.0747 10.4055 30.0747 10.2473 30.013C9.58937 29.7411 8.87613 29.4238 8.54215 28.7559C8.47392 28.0462 8.59286 27.6883 9.04092 27.1349C9.52041 26.8951 10.0622 26.9396 10.5628 27.0961C10.8587 27.2172 11.15 27.346 11.4412 27.4778C12.7046 28.0198 13.9209 28.2743 15.2755 28.5065C15.2755 27.0663 15.2755 25.6261 15.2755 24.1423C14.5348 24.0188 14.5348 24.0188 13.7792 23.8929C13.4067 23.7619 13.0775 23.6357 12.7271 23.4642C12.5929 23.3993 12.5929 23.3993 12.4561 23.3331C10.2849 22.2301 8.81158 20.3344 8.04387 18.0343C7.70074 16.8457 7.65289 15.7047 7.65178 14.4747C7.64949 14.17 7.64705 13.8652 7.64447 13.5605C7.64085 13.0836 7.63814 12.6067 7.63808 12.1298C7.63766 11.667 7.63335 11.2045 7.6284 10.7418C7.62928 10.6 7.63016 10.4583 7.63107 10.3123C7.61803 9.45873 7.51391 8.82536 6.92116 8.18171C6.41041 7.79823 5.98148 7.64157 5.33913 7.69073C4.71845 7.79844 4.33983 8.01056 3.90518 8.47006C3.3627 9.27442 3.39316 10.0693 3.39667 11.0063C3.39643 11.1475 3.39619 11.2887 3.39595 11.4341C3.39578 11.7329 3.39624 12.0317 3.39728 12.3305C3.3986 12.782 3.3973 13.2335 3.3957 13.6849C3.39449 15.5982 3.48907 17.3501 3.97727 19.2057C4.11218 19.7791 4.13773 20.2114 3.89738 20.7522C3.5471 21.1901 3.31343 21.2571 2.75957 21.3289C2.31564 21.2753 2.05594 21.2012 1.72746 20.892C0.596601 19.2695 0.668363 16.5718 0.661243 14.6779C0.660532 14.5284 0.659821 14.3789 0.659089 14.2248C0.657918 13.9106 0.657099 13.5963 0.656616 13.282C0.655403 12.8049 0.651526 12.3278 0.647605 11.8506C0.646791 11.5435 0.646136 11.2364 0.645656 10.9293C0.644117 10.7886 0.642577 10.6479 0.640991 10.5029C0.645556 8.85313 0.998661 7.36911 2.19602 6.17397C3.34328 5.21962 4.69519 4.82322 6.17301 4.93972C7.54875 5.1914 8.74174 5.90621 9.53969 7.05948C10.0081 7.86738 10.3021 8.54371 10.3055 9.48257C10.3068 9.6863 10.3068 9.6863 10.3082 9.89414C10.3087 10.0408 10.3092 10.1874 10.3098 10.3385C10.3127 10.6517 10.3157 10.9649 10.3188 11.2781C10.3231 11.7697 10.3268 12.2612 10.3285 12.7529C10.2986 16.1324 10.2986 16.1324 11.6594 19.1546C11.752 19.2857 11.8446 19.4169 11.94 19.552C12.8244 20.4565 13.9212 21.1008 15.1508 21.399C15.151 21.3182 15.1512 21.2373 15.1514 21.154C15.156 19.1805 15.1634 17.207 15.1737 15.2336C15.1787 14.2792 15.1827 13.3248 15.1846 12.3704C15.1862 11.538 15.1896 10.7056 15.195 9.87318C15.1978 9.43295 15.1998 8.99276 15.1997 8.55252C15.1996 8.05948 15.2034 7.56651 15.2074 7.07348C15.2065 6.85769 15.2065 6.85769 15.2055 6.63753C15.2286 4.82888 15.9281 3.25799 17.1503 1.93153C19.5056 -0.316098 23.116 -0.623505 25.8358 1.12152ZM19.8891 3.19403C19.801 3.24981 19.7129 3.30558 19.6222 3.36305C18.7326 3.97753 18.1634 4.75461 17.894 5.81256C17.8423 6.32952 17.8451 6.84294 17.8491 7.36212C17.8487 7.51675 17.8484 7.67137 17.8481 7.83069C17.8476 8.2578 17.8487 8.68486 17.8506 9.11197C17.8522 9.57333 17.8517 10.0347 17.8514 10.496C17.8512 11.2947 17.8524 12.0933 17.8545 12.8919C17.8575 14.0466 17.8585 15.2013 17.859 16.356C17.8598 18.2295 17.8623 20.1031 17.8658 21.9766C17.8693 23.7962 17.8719 25.6159 17.8735 27.4355C17.8736 27.5477 17.8737 27.6599 17.8738 27.7756C17.8743 28.3386 17.8748 28.9015 17.8752 29.4645C17.8791 34.1329 17.886 38.8012 17.894 43.4695C20.651 43.4695 23.4079 43.4695 26.2484 43.4695C26.2539 38.8226 26.2585 34.1758 26.2611 29.529C26.2614 28.9801 26.2618 28.4312 26.2621 27.8822C26.2622 27.7183 26.2622 27.7183 26.2623 27.5511C26.2634 25.783 26.2653 24.0148 26.2676 22.2467C26.27 20.4317 26.2713 18.6167 26.2719 16.8017C26.2722 15.6823 26.2733 14.5628 26.2753 13.4433C26.2766 12.6751 26.277 11.9069 26.2767 11.1387C26.2765 10.6959 26.2768 10.253 26.2781 9.81013C26.2796 9.32901 26.2791 8.8479 26.2784 8.36677C26.2795 8.1588 26.2795 8.1588 26.2806 7.94664C26.2749 6.44489 26.0992 5.03601 25.0697 3.87302C24.0065 2.8797 22.9173 2.62083 21.4999 2.6563C20.8646 2.70697 20.4207 2.85062 19.8891 3.19403ZM34.807 3.39118C34.3015 4.12555 34.2534 4.78163 34.2209 5.6567C34.1001 7.62721 33.5866 9.39874 32.1089 10.8002C31.1515 11.5947 30.0728 12.1197 28.8669 12.4212C28.8669 13.9026 28.8669 15.3839 28.8669 16.9101C30.3872 16.6307 30.3872 16.6307 31.8128 16.1464C31.9447 16.0904 31.9447 16.0904 32.0793 16.0333C34.9925 14.7433 36.9978 12.2994 38.1336 9.38089C38.6653 7.78374 39.2032 5.38646 38.4838 3.77804C38.1704 3.30901 37.7237 2.94647 37.2213 2.69527C36.2601 2.59804 35.465 2.62717 34.807 3.39118ZM38.8423 25.0151C38.3492 25.7119 38.2723 26.2392 38.2656 27.0803C38.2586 27.3032 38.2512 27.5262 38.2432 27.7491C38.2395 27.8573 38.2358 27.9656 38.2321 28.0772C38.1048 30.9975 36.9074 33.7142 34.7776 35.7386C32.9669 37.2461 31.1488 37.8733 28.8669 38.4818C28.8669 39.922 28.8669 41.3622 28.8669 42.846C30.5627 42.6498 30.5627 42.6498 32.1635 42.2148C32.3277 42.1582 32.3277 42.1582 32.4953 42.1005C36.4797 40.6751 39.5645 37.726 41.3907 33.9384C42.3123 31.837 42.7012 29.6501 42.7389 27.3687C42.7416 27.2748 42.7442 27.181 42.747 27.0843C42.7515 26.3122 42.6273 25.6092 42.1149 25.0078C42.0405 24.9511 41.9661 24.8943 41.8894 24.8359C41.8147 24.7769 41.7399 24.7179 41.6629 24.6571C40.7983 24.055 39.5596 24.2882 38.8423 25.0151ZM7.41993 45.9633C7.41993 47.0468 7.44769 48.0422 7.59138 49.104C7.60713 49.229 7.62288 49.3539 7.63911 49.4827C7.74152 50.2707 7.87664 51.0469 8.04339 51.8238C8.41052 51.8626 8.41052 51.8626 8.61424 51.6675C8.68304 51.596 8.75183 51.5244 8.82271 51.4507C8.89858 51.3731 8.97445 51.2955 9.05261 51.2155C9.13105 51.1333 9.20949 51.0512 9.29031 50.9666C9.44589 50.8056 9.60175 50.6448 9.7579 50.4844C9.82669 50.4125 9.89549 50.3407 9.96637 50.2667C10.3156 49.932 10.5835 49.7847 11.0594 49.7586C11.5474 49.7767 11.773 49.8724 12.1295 50.2038C12.2152 50.2829 12.3009 50.362 12.3892 50.4436C12.8371 50.8752 13.2797 51.3112 13.7169 51.7537C13.8075 51.8449 13.8982 51.9361 13.9916 52.0301C14.212 52.252 14.4322 52.4742 14.6521 52.6967C15.1072 52.5056 15.3926 52.2326 15.7363 51.8818C15.8461 51.7706 15.9559 51.6595 16.069 51.545C16.1826 51.4287 16.2962 51.3124 16.4133 51.1926C16.6394 50.9622 16.8657 50.7322 17.0923 50.5024C17.2423 50.349 17.2423 50.349 17.3953 50.1926C17.7774 49.8262 18.0854 49.7627 18.6179 49.7703C18.958 49.843 19.1036 49.9683 19.3582 50.2033C19.4444 50.2825 19.5306 50.3617 19.6194 50.4433C20.069 50.874 20.5114 51.3109 20.949 51.7537C21.0396 51.8449 21.1303 51.9361 21.2237 52.0301C21.4442 52.252 21.6643 52.4742 21.8842 52.6967C22.3393 52.5056 22.6248 52.2326 22.9684 51.8818C23.0782 51.7706 23.188 51.6595 23.3011 51.545C23.4147 51.4287 23.5284 51.3124 23.6454 51.1926C23.8715 50.9622 24.0978 50.7322 24.3244 50.5024C24.4244 50.4002 24.5244 50.2979 24.6275 50.1926C25.0352 49.8015 25.3783 49.7461 25.9313 49.7567C26.5273 49.8922 26.8945 50.3299 27.3083 50.7582C27.5234 50.9799 27.7426 51.1971 27.9624 51.4142C28.3914 51.839 28.8169 52.267 29.241 52.6967C29.9155 52.1354 30.5358 51.5379 31.1503 50.912C31.3262 50.733 31.5024 50.5542 31.6788 50.3758C31.7555 50.2976 31.8323 50.2194 31.9113 50.1389C32.2977 49.7763 32.6659 49.7631 33.178 49.7713C33.7552 49.881 34.0844 50.2906 34.4781 50.7016C34.5901 50.8124 34.7021 50.9231 34.8175 51.0372C35.1225 51.3387 35.4246 51.6426 35.725 51.9485C35.8073 51.9074 35.8896 51.8662 35.9743 51.8238C36.0546 51.5429 36.0546 51.5429 36.1034 51.2009C36.1246 51.0719 36.1457 50.9429 36.1675 50.81C36.1886 50.6739 36.2098 50.5379 36.2315 50.3977C36.2531 50.2659 36.2748 50.1342 36.297 49.9985C36.517 48.6307 36.5978 47.3626 36.5978 45.9633C26.9691 45.9633 17.3404 45.9633 7.41993 45.9633ZM25.3669 53.0692C25.2558 53.1826 25.1447 53.2959 25.0302 53.4127C24.9079 53.5366 24.7856 53.6605 24.6632 53.7843C24.4701 53.9806 24.2771 54.177 24.0845 54.3737C23.8989 54.5631 23.7126 54.7517 23.5261 54.9402C23.4146 55.0538 23.3031 55.1674 23.1882 55.2845C22.7417 55.6926 22.5234 55.8116 21.9153 55.8218C21.2295 55.7052 20.8641 55.2972 20.3879 54.8164C20.2284 54.6584 20.0688 54.5004 19.9091 54.3425C19.4426 53.8796 18.9793 53.4137 18.5175 52.9461C18.0769 53.1332 17.8011 53.3872 17.4693 53.7293C17.3663 53.8342 17.2632 53.9392 17.1571 54.0473C17.0505 54.1571 16.944 54.2669 16.8342 54.38C16.623 54.5975 16.4113 54.8144 16.199 55.0308C16.0588 55.1753 16.0588 55.1753 15.9158 55.3228C15.5498 55.6553 15.2818 55.7969 14.7923 55.8607C13.7913 55.7406 13.0906 54.78 12.4232 54.0995C12.3136 53.9887 12.2039 53.878 12.091 53.7639C11.8219 53.4918 11.5534 53.2192 11.2854 52.9461C10.8923 53.1198 10.6293 53.3232 10.3288 53.6289C10.246 53.7125 10.1632 53.7961 10.0779 53.8822C9.99288 53.9693 9.90785 54.0565 9.82025 54.1462C9.73329 54.2343 9.64633 54.3224 9.55674 54.4131C9.34266 54.6301 9.12919 54.8477 8.91623 55.0658C9.3335 56.4104 9.78036 57.7319 10.358 59.017C10.4018 59.1152 10.4456 59.2133 10.4907 59.3145C10.5764 59.5007 10.6656 59.6854 10.7589 59.8679C10.9113 60.1782 10.9113 60.1782 11.0333 60.5021C11.2033 60.8824 11.3577 61.1355 11.6594 61.4251C12.3173 61.6112 12.9677 61.5829 13.6445 61.5667C13.8485 61.5663 14.0525 61.5665 14.2566 61.5672C14.8095 61.5676 15.3621 61.5602 15.915 61.5515C16.4931 61.5437 17.0712 61.543 17.6494 61.5415C18.7437 61.5377 19.8379 61.5274 20.9322 61.5149C22.1782 61.501 23.4242 61.4941 24.6703 61.4879C27.233 61.4748 29.7956 61.4529 32.3583 61.4251C32.5176 61.1505 32.6765 60.8756 32.835 60.6005C32.8796 60.5238 32.9243 60.447 32.9702 60.3679C33.3783 59.6584 33.7048 58.9265 34.0105 58.1675C34.0866 57.9841 34.0866 57.9841 34.1644 57.7969C34.3154 57.4285 34.4606 57.0586 34.6027 56.6868C34.6803 56.4848 34.6803 56.4848 34.7593 56.2788C34.8073 56.1463 34.8553 56.0138 34.9047 55.8773C34.9486 55.7576 34.9924 55.6378 35.0376 55.5145C35.1274 55.1976 35.1274 55.1976 35.0162 54.9268C34.8357 54.6682 34.6436 54.455 34.4186 54.2339C34.2933 54.1097 34.2933 54.1097 34.1653 53.983C34.0782 53.898 33.9911 53.813 33.9013 53.7254C33.8133 53.6384 33.7252 53.5515 33.6344 53.4619C33.4174 53.2478 33.1999 53.0343 32.9817 52.8214C32.4905 53.2261 32.0327 53.6394 31.595 54.1019C31.5067 54.1946 31.4184 54.2872 31.3274 54.3827C31.146 54.5742 30.9661 54.7671 30.7877 54.9613C30.039 55.7386 30.039 55.7386 29.4626 55.8388C28.6774 55.7974 28.2732 55.3755 27.7388 54.8306C27.6233 54.7136 27.5077 54.5967 27.3886 54.4762C27.2683 54.3533 27.148 54.2303 27.0277 54.1073C26.7898 53.8648 26.5513 53.6228 26.3127 53.381C26.2076 53.2737 26.1025 53.1664 25.9943 53.0558C25.6821 52.7397 25.6821 52.7397 25.3669 53.0692Z" fill="#A6C7A5"/>
<path d="M5.92363 23.5188C6.26533 23.6741 6.4803 23.807 6.71074 24.1033C6.83981 24.5374 6.88529 24.946 6.79647 25.3892C6.40492 25.8735 6.13717 26.1127 5.51838 26.1841C4.91309 26.1236 4.70122 25.9694 4.30263 25.5139C4.12528 25.0224 4.12454 24.6498 4.31822 24.1656C4.78537 23.6206 5.20549 23.429 5.92363 23.5188Z" fill="#A6C7A5"/>
</svg>
