<svg width="81" height="64" viewBox="0 0 81 64" fill="none" xmlns="http://www.w3.org/2000/svg">
<path d="M70.6501 0.696144C71.3363 1.67374 71.2255 3.15175 71.1174 4.2788C70.6653 6.52653 69.5201 8.33367 67.6126 9.61383C66.5796 10.2065 65.4179 10.4218 64.2636 10.6653C64.4178 11.2821 64.572 11.8989 64.7309 12.5345C65.0265 12.5023 65.3221 12.4702 65.6266 12.4371C67.7803 12.2808 69.5775 12.822 71.2537 14.209C72.5245 15.413 73.4006 17.1204 73.4801 18.8753C73.4823 19.0885 73.4833 19.3016 73.4831 19.5148C73.4832 19.6251 73.4833 19.7355 73.4834 19.8492C73.4755 20.6306 73.3886 21.2976 73.1424 22.0363C73.2817 22.0987 73.4211 22.1612 73.5647 22.2255C75.7191 23.2243 77.3697 24.6291 78.3314 26.8553C79.1286 29.0382 79.1418 31.3382 78.1993 33.4846C78.0352 33.8078 77.8665 34.1288 77.6919 34.4466C77.48 34.7872 77.48 34.7872 77.5039 35.1208C77.7088 35.3061 77.9212 35.4832 78.1367 35.6562C79.3832 36.7398 80.3041 38.1967 80.5101 39.859C80.5314 40.2475 80.5363 40.6314 80.5316 41.0205C80.5298 41.2254 80.5298 41.2254 80.528 41.4344C80.5012 42.4895 80.3482 43.3731 79.8404 44.311C79.7761 44.4313 79.7119 44.5516 79.6457 44.6755C78.7317 46.1944 77.3394 47.3814 75.6347 47.8937C74.8621 48.0497 74.0827 48.1343 73.2981 48.2052C73.3495 48.308 73.4009 48.4108 73.4539 48.5168C73.6779 51.1223 72.8266 53.193 71.2732 55.2148C71.449 55.2154 71.6249 55.216 71.8061 55.2167C72.4652 55.2201 73.1241 55.2286 73.7831 55.2385C74.0671 55.2421 74.3511 55.2444 74.6351 55.2452C76.4559 55.2517 77.8711 55.2745 79.3195 56.4992C79.4143 56.6119 79.5091 56.7245 79.6067 56.8406C79.7047 56.9528 79.8027 57.0651 79.9037 57.1807C80.6388 58.2781 80.5899 59.551 80.4634 60.8224C80.1464 61.9051 79.5397 62.7046 78.5942 63.3147C77.5902 63.8596 76.6296 63.9609 75.5048 63.9582C75.3823 63.9585 75.2599 63.9589 75.1337 63.9592C74.7218 63.9601 74.3099 63.9598 73.898 63.9596C73.6003 63.96 73.3026 63.9605 73.0049 63.961C72.1856 63.9623 71.3663 63.9626 70.547 63.9627C69.6639 63.963 68.7808 63.9641 67.8976 63.9652C65.966 63.9673 64.0343 63.9682 62.1027 63.9689C60.8968 63.9694 59.6909 63.97 58.4851 63.9707C55.147 63.9726 51.8089 63.9742 48.4709 63.9748C48.255 63.9748 48.0392 63.9748 47.8233 63.9748C47.607 63.9749 47.3906 63.9749 47.1743 63.975C46.7402 63.975 46.3062 63.9751 45.8722 63.9752C45.7645 63.9752 45.6569 63.9752 45.546 63.9752C42.0566 63.9758 38.5672 63.9783 35.0777 63.9819C31.388 63.9857 27.6982 63.9879 24.0084 63.988C21.9973 63.9882 19.9862 63.9891 17.975 63.9919C16.2626 63.9943 14.5502 63.9951 12.8377 63.9938C11.964 63.9932 11.0902 63.9934 10.2165 63.9955C9.4164 63.9975 8.61632 63.9973 7.81622 63.9955C7.52701 63.9951 7.23779 63.9956 6.94859 63.997C3.40599 64.0126 3.40599 64.0125 1.91891 62.8084C1.01261 61.9062 0.686049 60.9754 0.661813 59.7125C0.660216 58.2302 1.04108 57.2991 2.07041 56.2437C3.08395 55.5267 4.06557 55.2775 5.29164 55.2756C5.42449 55.273 5.55735 55.2705 5.69423 55.2678C6.11314 55.2603 6.53196 55.2569 6.95092 55.2537C7.23721 55.2493 7.5235 55.2447 7.80978 55.2397C8.50677 55.2283 9.20371 55.2205 9.90077 55.2148C9.83816 55.1333 9.77555 55.0518 9.71104 54.9678C8.24275 53.0376 7.50873 50.9752 7.72003 48.5168C7.77143 48.414 7.82283 48.3111 7.87579 48.2052C7.78002 48.1994 7.68424 48.1936 7.58556 48.1876C7.39671 48.1722 7.39671 48.1722 7.20405 48.1565C7.07935 48.1475 6.95466 48.1385 6.82619 48.1292C6.40907 48.0348 6.26529 47.9178 6.00658 47.5822C5.83766 47.0271 5.80393 46.7561 6.03579 46.2192C6.33863 45.8433 6.48275 45.6973 6.94119 45.5572C7.30459 45.5506 7.66816 45.5508 8.03156 45.5572C8.15364 45.5315 8.27573 45.5058 8.40151 45.4793C9.17415 45.3321 9.92171 45.2242 10.6115 45.6448C10.9302 46.1853 10.905 46.4887 10.8354 47.1149C10.7614 47.3982 10.6832 47.6805 10.6017 47.9618C10.1751 49.4437 10.3108 50.8401 11.0398 52.2065C11.9932 53.7936 13.1778 54.6422 14.9587 55.1145C16.1344 55.3289 17.333 55.2775 18.5242 55.2722C18.8273 55.2726 19.1304 55.2732 19.4335 55.274C20.0831 55.2753 20.7327 55.2752 21.3823 55.274C22.4093 55.2722 23.4362 55.2741 24.4631 55.2766C27.0122 55.2822 29.5612 55.2832 32.1103 55.2828C34.0948 55.2825 36.0794 55.2836 38.0639 55.289C39.0852 55.2916 40.1064 55.2913 41.1277 55.2889C41.7617 55.288 42.3956 55.2896 43.0296 55.292C43.324 55.2926 43.6184 55.2921 43.9127 55.2905C44.3139 55.2884 44.7149 55.2901 45.1161 55.2928C45.2916 55.2905 45.2916 55.2905 45.4707 55.2882C46.0131 55.2957 46.2988 55.3306 46.7335 55.6675C46.9921 56.019 47.0619 56.1852 47.0611 56.6167C47.0662 56.7709 47.0662 56.7709 47.0714 56.9282C46.9095 57.443 46.654 57.5835 46.1946 57.8628C45.6352 57.9553 45.0813 57.9452 44.5154 57.9395C44.3442 57.9402 44.173 57.9409 43.9966 57.9417C43.4217 57.9434 42.847 57.9406 42.2721 57.938C41.8604 57.9383 41.4488 57.9389 41.0371 57.9398C40.1501 57.9413 39.2631 57.9406 38.3761 57.9385C37.0928 57.9355 35.8095 57.9365 34.5261 57.9386C32.4429 57.9419 30.3596 57.943 28.2764 57.9421C28.1517 57.9421 28.0271 57.942 27.8986 57.942C26.8871 57.9416 25.8755 57.941 24.864 57.9405C23.9798 57.94 23.0956 57.9396 22.2113 57.9392C22.0246 57.9392 22.0246 57.9392 21.834 57.9391C19.7586 57.9383 17.6831 57.94 15.6076 57.9434C14.3274 57.9454 13.0471 57.9451 11.7669 57.9421C10.8899 57.9401 10.013 57.9403 9.136 57.9423C8.62986 57.9433 8.12378 57.943 7.61764 57.9406C7.06915 57.9382 6.52079 57.9396 5.9723 57.9419C5.81206 57.9403 5.65183 57.9387 5.48674 57.937C4.79887 57.9435 4.40498 57.9501 3.80851 58.3154C3.31361 58.8642 3.29684 59.2846 3.30378 60.0028C3.33784 60.4038 3.33784 60.4038 3.70901 60.8224C4.42839 61.3456 5.08862 61.3123 5.95597 61.3102C6.07765 61.3105 6.19932 61.3108 6.32469 61.3111C6.73487 61.312 7.14504 61.3118 7.55522 61.3116C7.85129 61.312 8.14736 61.3124 8.44343 61.313C9.25895 61.3142 10.0745 61.3145 10.89 61.3146C11.7688 61.3149 12.6475 61.3161 13.5263 61.3171C15.4486 61.3193 17.3709 61.3202 19.2931 61.3209C20.4928 61.3213 21.6924 61.322 22.8921 61.3227C26.2118 61.3246 29.5316 61.3262 32.8513 61.3267C33.066 61.3267 33.2807 61.3268 33.4953 61.3268C33.7105 61.3268 33.9258 61.3269 34.1409 61.3269C34.5727 61.327 35.0044 61.327 35.4361 61.3271C35.5432 61.3271 35.6502 61.3271 35.7605 61.3272C39.2327 61.3277 42.7048 61.3302 46.177 61.3338C49.8472 61.3377 53.5175 61.3398 57.1877 61.34C59.1888 61.3401 61.1898 61.341 63.1908 61.3439C64.8943 61.3463 66.5978 61.3471 68.3013 61.3458C69.1709 61.3452 70.0404 61.3453 70.91 61.3475C71.7056 61.3495 72.5011 61.3493 73.2967 61.3474C73.5849 61.3471 73.8732 61.3476 74.1614 61.3489C74.5525 61.3507 74.9435 61.3495 75.3345 61.3476C75.4471 61.3488 75.5597 61.35 75.6757 61.3512C76.3975 61.3437 76.8936 61.2086 77.5039 60.8224C77.9212 60.1964 77.9238 59.689 77.8154 58.9532C77.536 58.5061 77.3508 58.2536 76.8808 58.0186C76.5411 58.0033 76.201 57.9985 75.861 57.9981C75.7551 57.9978 75.6491 57.9975 75.54 57.9971C75.1833 57.9962 74.8266 57.9963 74.4699 57.9965C74.2148 57.996 73.9597 57.9955 73.7047 57.9948C73.1545 57.9936 72.6043 57.9928 72.0541 57.9923C71.1843 57.9914 70.3145 57.9888 69.4446 57.9859C69.147 57.9849 68.8494 57.9839 68.5518 57.9829C68.4028 57.9824 68.2537 57.9819 68.1002 57.9814C66.0745 57.9749 64.0489 57.9697 62.0233 57.9678C60.6577 57.9665 59.2922 57.963 57.9266 57.957C57.2037 57.9539 56.4809 57.952 55.758 57.9528C55.0779 57.9535 54.3979 57.9514 53.7179 57.947C53.4683 57.9459 53.2187 57.9459 52.9691 57.947C52.6282 57.9484 52.2876 57.946 51.9467 57.9426C51.756 57.9422 51.5653 57.9419 51.3688 57.9415C50.7715 57.8477 50.5138 57.6621 50.0888 57.2397C49.8609 56.6985 49.9155 56.5044 50.1375 55.9547C50.4003 55.5263 50.4003 55.5263 50.7119 55.3705C51.1733 55.3538 51.6312 55.3465 52.0927 55.346C52.2359 55.3452 52.379 55.3444 52.5265 55.3436C52.8383 55.3419 53.15 55.3406 53.4618 55.3395C53.9563 55.3377 54.4508 55.3346 54.9453 55.3312C56.3517 55.3216 57.7581 55.3132 59.1645 55.308C60.0244 55.3047 60.8842 55.2992 61.7441 55.2923C62.0709 55.2901 62.3977 55.2888 62.7245 55.2883C66.2785 55.2883 66.2785 55.2883 69.2543 53.4952C70.2751 52.2659 70.8545 50.7939 70.8424 49.1879C70.7989 48.7602 70.6922 48.3745 70.5722 47.9618C70.3787 47.2933 70.2384 46.7256 70.3386 46.0245C70.5625 45.6448 70.5625 45.6448 70.9616 45.4014C71.6697 45.3023 72.3617 45.3991 73.0645 45.4988C74.2938 45.6418 75.2478 45.3024 76.2456 44.5873C77.1886 43.7825 77.7229 42.8652 77.8787 41.6277C77.9169 40.2431 77.6941 39.2186 76.8808 38.0803C76.1843 37.3556 75.2933 36.9489 74.3891 36.5348C74.077 36.3669 74.077 36.3669 73.9212 36.0554C73.8562 35.5759 73.818 35.271 73.9212 34.8092C74.1584 34.5118 74.424 34.279 74.708 34.0261C75.7679 32.9534 76.1714 31.536 76.3064 30.0778C76.1586 28.3632 75.5305 26.8261 74.262 25.6384C73.2017 24.7846 72.0642 24.4617 70.7438 24.2024C70.2636 24.0352 70.1201 23.8749 69.8713 23.4382C69.7122 22.603 70.0787 22.015 70.4645 21.2994C70.9687 20.339 70.9604 19.2116 70.6939 18.1731C70.2216 16.918 69.5609 16.1127 68.3635 15.5001C67.2976 15.0228 66.3466 14.9275 65.1982 15.1825C64.8315 15.3305 64.4797 15.4982 64.1237 15.6699C63.6249 15.8767 63.2352 15.8886 62.706 15.8056C62.3683 15.5774 62.3683 15.5774 62.0829 15.1825C61.9985 14.7126 62.0045 14.2473 62.005 13.7709C61.954 11.9351 61.5757 10.4282 60.2137 9.10759C59.7134 8.7595 59.1881 8.46916 58.656 8.17298C58.2701 7.93228 58.0371 7.7348 57.7214 7.39415C57.5853 6.70131 57.6411 6.42414 58.0329 5.83647C58.5485 5.49272 58.8179 5.45976 59.4239 5.57726C59.9493 5.74581 60.3738 6.00478 60.8367 6.30377C60.8432 6.13671 60.8496 5.96965 60.8562 5.79753C61.0523 4.24257 62.0133 2.7797 63.2177 1.81207C65.2543 0.320005 68.2968 -0.775103 70.6501 0.696144ZM64.7309 3.96726C64.6444 4.04738 64.5578 4.12749 64.4687 4.21004C63.6186 5.09401 63.1387 6.27259 63.1343 7.50124C63.1472 7.67151 63.16 7.84178 63.1733 8.01722C64.6485 8.13021 65.8044 7.83565 66.9604 6.8879C67.8985 6.00089 68.5586 4.94364 68.6482 3.62774C68.6536 3.32548 68.6407 3.02302 68.6251 2.72112C68.465 2.52652 68.465 2.52652 68.1219 2.54467C66.789 2.60859 65.7023 3.0642 64.7309 3.96726Z" fill="#A6C7A5"/>
<path d="M40.1197 3.03266C40.3258 3.13951 40.5329 3.24472 40.7427 3.34419C40.8353 3.27271 40.9279 3.20123 41.0232 3.12758C42.6334 1.93563 44.3391 1.32113 46.3504 1.47498C48.4652 1.82886 50.1769 2.68547 51.4402 4.44612C52.1138 5.42569 52.1138 5.42569 52.1138 5.99224C52.3499 5.87176 52.3499 5.87176 52.5908 5.74885C53.2042 5.48631 53.6433 5.50539 54.2945 5.6807C54.5963 5.84621 54.5963 5.84621 54.7618 6.14801C54.8569 7.00398 54.8569 7.00398 54.7618 7.39415C54.3574 7.88056 53.9057 8.18226 53.3599 8.49425C52.9711 8.71768 52.6068 8.93146 52.2549 9.20981C51.7874 9.53935 51.4217 9.48838 50.8676 9.41912C50.2969 8.97197 50.1524 8.60182 50.0206 7.90039C49.7129 6.54769 49.0992 5.50008 47.908 4.7461C46.523 4.08831 45.3978 3.95158 43.9341 4.42909C43.0091 4.8139 42.3821 5.37406 41.8234 6.19668C41.4815 6.68157 41.405 6.758 40.8109 6.95605C40.188 6.92207 39.9717 6.86156 39.4966 6.45954C39.3472 6.26081 39.2015 6.0593 39.0585 5.85594C38.2971 4.79658 37.3331 4.34362 36.0697 4.12303C34.7927 4.00693 33.6389 4.41653 32.6428 5.2134C31.6321 6.13804 31.2972 7.27515 30.9294 8.5624C30.7416 9.03194 30.6023 9.19325 30.1505 9.41912C29.4028 9.49093 29.0651 9.38107 28.4858 8.91288C27.0704 7.87139 25.6739 7.49605 23.9198 7.70568C22.214 8.10731 20.9432 8.94257 19.949 10.3762C19.2915 11.6213 19.1794 12.7568 19.1784 14.1442C19.1563 15.0921 19.1563 15.0921 18.8051 15.5786C18.2958 15.9215 17.983 15.885 17.3776 15.8056C17.1541 15.7114 16.9335 15.6102 16.7156 15.5038C15.5288 14.9396 14.3211 14.88 13.0812 15.3176C11.8453 15.8966 11.0451 16.7275 10.5238 17.9863C10.1411 19.1962 10.2523 20.46 10.8244 21.5787C10.8794 21.6783 10.9345 21.7779 10.9911 21.8805C11.2897 22.4385 11.3945 22.7955 11.3027 23.4382C10.9511 23.9981 10.7168 24.1656 10.076 24.3363C9.90574 24.3708 9.73546 24.4054 9.56003 24.4409C7.95347 24.7677 6.79955 25.5267 5.85082 26.8651C5.06928 28.1023 4.72205 29.5479 4.98862 30.9972C5.29626 32.2951 5.82791 33.4704 6.84383 34.3614C7.25489 34.8116 7.32091 34.8852 7.35008 35.4518C7.23975 36.1358 7.14672 36.2499 6.62965 36.6784C6.32924 36.8307 6.02365 36.9731 5.71452 37.1068C4.8084 37.5449 4.31594 37.9873 3.82584 38.8592C3.72946 39.0198 3.63308 39.1804 3.53377 39.346C3.13358 40.3822 3.16826 41.7923 3.59219 42.8118C3.87933 43.5057 3.92484 43.88 3.82584 44.6226C3.50457 45.0217 3.50457 45.0217 3.047 45.2456C2.42094 45.2566 2.09487 45.2084 1.61589 44.7978C0.55568 42.9699 0.387247 40.9421 0.842526 38.8859C1.41612 37.2449 2.47986 36.0306 3.82584 34.965C3.71018 34.7979 3.59452 34.6309 3.47536 34.4587C2.78581 33.3559 2.36603 32.056 2.26816 30.7593C2.26013 30.6601 2.2521 30.5609 2.24383 30.4587C2.1468 28.2514 2.91496 26.1297 4.35155 24.4702C5.45391 23.3219 6.56357 22.6462 8.03156 22.0363C7.98016 21.8821 7.92875 21.7279 7.87579 21.569C7.45583 19.865 7.66192 18.0799 8.18733 16.4287C8.06103 16.3963 7.93473 16.364 7.8046 16.3307C5.69954 15.745 4.07902 14.7575 2.92957 12.863C1.9375 10.9984 1.71048 9.12707 2.15438 7.06314C2.29252 6.70855 2.4373 6.53939 2.73547 6.30377C4.4808 5.62382 6.43588 5.97298 8.12952 6.6147C9.74571 7.34565 11.0497 8.5714 11.77 10.198C12.0686 11.0169 12.3136 11.8513 12.5488 12.6902C12.6472 12.6659 12.7456 12.6416 12.847 12.6166C14.0764 12.3491 15.1971 12.3999 16.443 12.5345C16.4771 12.3857 16.5113 12.2369 16.5464 12.0836C17.1622 9.52302 18.2858 7.58314 20.563 6.15466C22.471 5.03144 24.6897 4.71235 26.8472 5.18785C27.6027 5.41493 28.3294 5.6962 29.0602 5.99224C29.0666 5.88943 29.073 5.78662 29.0796 5.6807C29.4984 4.24494 30.9368 3.01546 32.1755 2.25382C35.0511 0.963073 37.5003 1.39558 40.1197 3.03266ZM4.44891 8.48452C4.33853 9.94699 4.80521 11.273 5.73156 12.4122C6.72571 13.4173 7.85057 13.947 9.26797 13.9559C9.47894 13.9509 9.68991 13.945 9.90077 13.9364C10.0135 12.4642 9.71726 11.3096 8.78119 10.1493C7.8939 9.20879 6.65873 8.53389 5.35066 8.46687C5.05002 8.46529 4.74936 8.47398 4.44891 8.48452Z" fill="#A6C7A5"/>
<path d="M24.3871 47.2706C24.7766 47.6114 24.7766 47.6114 25.166 48.0495C26.345 49.2106 27.6513 49.7765 29.3036 49.8116C30.9161 49.7965 32.238 49.3127 33.4217 48.2052C33.558 48.0359 33.6914 47.864 33.8208 47.6892C34.2005 47.2706 34.2005 47.2706 34.7457 47.1051C35.371 47.1163 35.5888 47.1899 36.0697 47.5822C36.2384 47.799 36.2384 47.799 36.4104 48.0203C37.1395 48.9425 38.3524 49.5722 39.4966 49.7629C41.4817 49.9201 42.9566 49.5929 44.5043 48.3214C44.821 48.0401 44.821 48.0401 45.114 47.6016C45.5019 47.1762 45.7823 47.1112 46.3473 47.0735C46.9008 47.1463 47.2332 47.5033 47.5965 47.8937C48.8441 49.1724 49.9936 49.7743 51.7828 49.8311C53.3749 49.7916 54.6795 49.2888 55.8522 48.2052C56.0627 47.9479 56.2711 47.6888 56.4753 47.4264C56.9064 47.0993 57.0997 47.1149 57.6532 47.1441C58.1887 47.2706 58.1887 47.2706 58.4905 47.4361C58.7826 47.9687 58.8206 48.4132 58.656 48.9841C57.4874 50.7275 55.6209 51.8233 53.6161 52.3519C51.2419 52.6921 48.9939 52.3398 46.9734 51.009C46.8581 50.8741 46.8581 50.8741 46.7404 50.7364C46.5082 50.4985 46.5082 50.4985 46.1277 50.563C45.7095 50.7035 45.4362 50.8716 45.0848 51.1356C43.3058 52.3752 41.2928 52.5771 39.1851 52.4109C37.8418 52.1643 36.7268 51.613 35.6024 50.8533C35.1862 50.5042 35.1862 50.5042 34.8339 50.5728C34.4663 50.7152 34.1963 50.9015 33.8792 51.1356C32.1052 52.3554 30.07 52.5891 27.9698 52.4109C25.8332 51.9945 24.1333 50.9312 22.7114 49.2913C22.3933 48.7861 22.3943 48.3135 22.5179 47.7379C23.0822 47.0369 23.5496 47.0164 24.3871 47.2706Z" fill="#A6C7A5"/>
<path d="M47.3081 23.5118C48.2876 24.282 48.9126 25.3263 49.1542 26.5535C49.313 28.0147 48.9645 29.3488 48.0443 30.5061C47.2177 31.3756 46.0714 31.939 44.8736 32.037C43.1584 32.0667 42.1765 31.6967 40.9253 30.5019C39.8793 29.3712 39.7071 28.2093 39.7461 26.7044C39.8754 25.4158 40.43 24.4096 41.4242 23.5842C43.278 22.3237 45.4313 22.2254 47.3081 23.5118ZM42.4659 26.1154C42.2296 26.741 42.1945 27.2954 42.3004 27.9555C42.6122 28.5567 42.9382 29.045 43.5465 29.3574C44.254 29.5473 44.8735 29.6153 45.5423 29.2795C46.1035 28.8962 46.4655 28.4542 46.6619 27.7997C46.7254 27.0552 46.6115 26.4551 46.1459 25.8623C45.5569 25.3007 45.3255 25.1734 44.5104 25.0932C43.6437 25.1175 43.0443 25.4624 42.4659 26.1154Z" fill="#A6C7A5"/>
<path d="M57.6046 34.9066C58.4827 35.6212 59.2153 36.6491 59.4348 37.7688C59.5625 39.3846 59.3506 40.7095 58.3262 41.9964C57.2294 43.0796 56.01 43.435 54.5136 43.4474C53.2732 43.4194 52.3001 42.9856 51.3459 42.1917C50.441 41.2441 50.0565 40.0724 50.0109 38.7813C50.0623 37.3708 50.5131 36.2692 51.481 35.2388C53.2378 33.7415 55.702 33.5995 57.6046 34.9066ZM52.9121 37.467C52.5494 38.0915 52.5219 38.6163 52.5811 39.3265C52.7916 39.8848 53.0918 40.3144 53.5351 40.7187C54.2143 40.9696 54.8278 41.023 55.5406 40.8842C56.2045 40.5084 56.6487 40.0309 56.9426 39.3265C57.0272 38.5788 56.9463 38.0368 56.5379 37.3916C56.0452 36.837 55.3893 36.5843 54.6742 36.4448C53.9667 36.5899 53.3962 36.9345 52.9121 37.467Z" fill="#A6C7A5"/>
<path d="M31.4843 13.7903C32.7568 14.5517 33.5599 15.5425 34.0058 16.9544C34.1553 18.5242 34.0236 19.7532 33.0907 21.0627C32.2819 22.0404 31.2331 22.5675 29.9948 22.8151C28.5843 22.9307 27.3326 22.5848 26.2284 21.684C25.1494 20.6536 24.6592 19.6281 24.6208 18.1226C24.6406 16.7803 25.018 15.7519 25.8888 14.7256C26.1536 14.4775 26.4164 14.2847 26.7237 14.0921C26.8204 14.0283 26.9172 13.9644 27.0169 13.8987C28.305 13.1885 30.1578 13.1778 31.4843 13.7903ZM27.3662 16.9252C27.1163 17.5498 27.0845 18.1017 27.191 18.7652C27.5033 19.3676 27.8314 19.8474 28.4371 20.1671C29.304 20.3838 29.8708 20.3712 30.6537 19.9219C31.2341 19.4543 31.5073 18.8697 31.5871 18.1342C31.5444 17.2541 31.0966 16.6978 30.4621 16.1171C29.3193 15.5457 28.1445 16.0172 27.3662 16.9252Z" fill="#A6C7A5"/>
<path d="M66.016 19.0183C66.8942 19.7329 67.6267 20.7608 67.8463 21.8805C67.9666 23.4034 67.7959 24.7515 66.8472 25.9877C65.8418 27.0228 64.6697 27.5325 63.2414 27.566C61.8549 27.5659 60.7347 27.2098 59.7172 26.2231C58.719 25.0233 58.4036 23.9404 58.4467 22.3862C58.588 21.0517 59.1927 19.9469 60.2137 19.0767C62.057 17.9189 64.17 17.7501 66.016 19.0183ZM61.7713 21.1017C61.1679 21.7704 60.9354 22.1868 60.9487 23.1011C61.0428 23.8253 61.4091 24.3403 61.9466 24.8304C62.6257 25.0813 63.2392 25.1347 63.9521 24.9959C64.615 24.6207 65.062 24.1428 65.354 23.4382C65.4296 22.6221 65.3316 22.1036 64.8867 21.4132C64.3386 20.8168 63.8342 20.6726 63.0503 20.6192C62.5228 20.6425 62.2012 20.8018 61.7713 21.1017Z" fill="#A6C7A5"/>
<path d="M27.3273 36.0943C28.2437 37.082 28.6574 38.375 28.6355 39.7062C28.4906 41.0637 27.8866 42.1605 26.8794 43.0649C25.82 43.9124 24.7317 44.2082 23.3844 44.1455C21.9231 43.9639 20.8889 43.314 19.9679 42.1771C19.1105 40.9661 19.1086 39.6937 19.2468 38.2361C19.5367 37.0491 20.3173 35.9987 21.3442 35.3428C23.4065 34.2605 25.5891 34.5041 27.3273 36.0943ZM22.5179 37.613C21.8558 38.3274 21.684 38.7916 21.6947 39.7439C21.7791 40.4309 22.1715 40.8492 22.6445 41.3223C23.3365 41.6979 23.8918 41.7169 24.6403 41.4975C25.3121 41.1118 25.7977 40.7162 26.0434 39.9562C26.1809 39.1912 26.0681 38.7116 25.6333 38.0803C25.155 37.5912 24.8217 37.3373 24.1632 37.1457C23.4895 37.1457 23.1032 37.2817 22.5179 37.613Z" fill="#A6C7A5"/>
</svg>
