<svg width="57" height="64" viewBox="0 0 57 64" fill="none" xmlns="http://www.w3.org/2000/svg">
<path d="M9.45505 10.5382C9.8122 10.7902 9.93014 10.9591 10.0487 11.381C10.083 11.882 9.96155 12.1296 9.73466 12.5739C9.08135 13.9104 8.81165 15.0488 8.81815 16.5362C8.81767 16.6466 8.81719 16.7571 8.8167 16.8708C8.81748 17.3992 8.83524 17.884 8.95796 18.4003C9.02486 18.9608 9.05387 19.3756 8.74048 19.8589C8.26009 20.2022 7.75702 20.4412 7.2264 20.6969C6.66698 20.9896 6.20038 21.3542 5.72688 21.7698C5.65191 21.8334 5.57693 21.8969 5.49969 21.9624C3.94093 23.3902 3.10272 25.5946 2.9657 27.6733C2.89981 30.1492 3.73855 32.2879 5.35406 34.1247C6.75525 35.6073 8.67631 36.3665 10.6405 36.7737C10.9815 36.8814 11.1174 36.9494 11.3191 37.2446C11.3924 37.579 11.3924 37.579 11.4356 37.9778C11.6225 39.3475 11.9606 40.5127 12.8104 41.6125C12.9027 41.7412 12.9949 41.8699 13.09 42.0025C14.7059 43.6989 17.1087 44.4549 19.3994 44.5417C20.8627 44.5595 22.3565 44.3241 23.7464 43.8588C23.9927 42.3725 24.1743 40.5748 23.3736 39.2414C23.3237 39.155 23.2739 39.0686 23.2226 38.9796C22.7576 38.2339 22.1958 37.5533 21.6512 36.8654C21.2167 36.3164 20.7882 35.7628 20.3599 35.2089C20.2195 35.0274 20.079 34.8459 19.9386 34.6644C19.8711 34.5767 19.8035 34.4891 19.734 34.3989C19.5823 34.2036 19.4293 34.0094 19.2752 33.8159C19.1955 33.7153 19.1158 33.6147 19.0337 33.511C18.9606 33.4194 18.8874 33.3278 18.812 33.2335C18.6512 33.0015 18.6512 33.0015 18.6512 32.7519C18.5602 32.718 18.4691 32.6841 18.3753 32.6492C18.0442 32.5085 17.7711 32.3498 17.4727 32.1497C17.3666 32.0789 17.2604 32.0081 17.1511 31.9351C17.0382 31.8588 16.9253 31.7825 16.809 31.7039C16.6918 31.6251 16.5747 31.5463 16.454 31.4651C16.207 31.2986 15.9602 31.1318 15.7135 30.9647C15.3356 30.709 14.9564 30.4552 14.5772 30.2014C14.3372 30.0394 14.0973 29.8772 13.8575 29.7149C13.687 29.6012 13.687 29.6012 13.5131 29.4852C13.4081 29.4136 13.3032 29.342 13.195 29.2682C13.1025 29.2058 13.01 29.1433 12.9147 29.079C12.6614 28.8621 12.5524 28.6963 12.4376 28.3841C12.4548 27.9698 12.5105 27.7138 12.7376 27.3664C13.2393 27.0069 13.7309 27.0648 14.3327 27.0698C14.5208 27.0691 14.5208 27.0691 14.7127 27.0684C14.9785 27.068 15.2442 27.0689 15.51 27.071C15.9123 27.0737 16.3144 27.0711 16.7167 27.0679C18.6412 27.0646 20.0235 27.2678 21.5949 28.4465C21.7895 28.5882 21.9842 28.7299 22.1789 28.8716C22.2826 28.948 22.3863 29.0244 22.4931 29.1031C23.3186 29.7046 24.155 30.2908 24.9891 30.88C25.0604 30.0785 25.1311 29.2769 25.2015 28.4753C25.2254 28.2028 25.2496 27.9304 25.2738 27.6579C25.3087 27.2655 25.3431 26.8729 25.3774 26.4804C25.3938 26.2988 25.3938 26.2988 25.4104 26.1136C25.4385 25.789 25.463 25.4643 25.4862 25.1394C25.5044 24.9165 25.5044 24.9165 25.5231 24.6891C25.4723 24.1065 25.257 23.662 25.0046 23.1402C24.9546 23.0332 24.9045 22.9262 24.853 22.8159C24.6928 22.4743 24.5303 22.1337 24.3677 21.7932C24.2622 21.5698 24.1569 21.3463 24.0517 21.1227C23.9999 21.0127 23.9481 20.9026 23.8948 20.7892C23.8432 20.6796 23.7917 20.57 23.7386 20.457C23.6872 20.3478 23.6358 20.2386 23.5829 20.126C23.43 19.8005 23.2774 19.4748 23.125 19.1491C23.075 19.0426 23.025 18.9361 22.9735 18.8263C22.8308 18.5208 22.6902 18.2143 22.5502 17.9075C22.5076 17.8168 22.465 17.7262 22.4211 17.6328C22.1905 17.121 22.0658 16.7275 22.1308 16.154C22.3172 15.7952 22.3172 15.7952 22.6279 15.53C23.578 15.3906 24.0824 15.7559 24.8391 16.2988C24.9521 16.3766 25.065 16.4545 25.1814 16.5347C25.5409 16.7826 25.8981 17.0335 26.2551 17.285C26.6135 17.5368 26.9723 17.7878 27.3328 18.0366C27.5567 18.1911 27.7795 18.3475 28.0009 18.5057C28.1021 18.5757 28.2033 18.6456 28.3076 18.7177C28.396 18.7801 28.4843 18.8424 28.5754 18.9067C28.9224 19.0601 29.1053 19.0089 29.4629 18.8995C29.6939 18.7921 29.9213 18.6767 30.1454 18.5554C30.2741 18.4876 30.4027 18.4199 30.5352 18.3501C30.8038 18.207 31.0718 18.0627 31.3391 17.9172C32.4399 17.3419 32.4399 17.3419 32.96 17.4093C33.4931 17.5855 33.4931 17.5855 33.6882 17.9012C33.9175 18.6415 33.6679 19.1562 33.3896 19.8399C33.2985 20.0746 33.2075 20.3093 33.1165 20.5441C32.9721 20.9105 32.8268 21.2766 32.6804 21.6422C32.539 21.9973 32.4011 22.3536 32.2634 22.7102C32.1976 22.8702 32.1976 22.8702 32.1304 23.0334C31.5578 24.5273 31.8492 26.1274 32.01 27.6816C32.0293 27.8733 32.0485 28.0651 32.0676 28.2568C32.1076 28.6553 32.148 29.0537 32.1889 29.4521C32.2412 29.9613 32.2925 30.4706 32.3435 30.9799C32.3925 31.469 32.442 31.9581 32.4915 32.4473C32.5008 32.5395 32.5102 32.6318 32.5197 32.7269C32.5462 32.989 32.5731 33.2511 32.6 33.5131C32.6152 33.6618 32.6304 33.8104 32.646 33.9635C32.6915 34.3529 32.7505 34.7371 32.8182 35.1231C32.993 34.9075 33.1676 34.692 33.3422 34.4763C33.4907 34.2931 33.6391 34.11 33.7877 33.9269C34.1924 33.4275 34.5914 32.9246 34.9852 32.4166C35.5398 31.722 36.0337 31.2242 36.9192 31.0048C37.5689 30.9714 38.2204 30.9771 38.8707 30.989C39.6994 30.9785 40.1782 30.8927 40.7641 30.2909C40.8909 30.1501 40.8909 30.1501 41.0202 30.0064C41.1895 29.8315 41.3588 29.6566 41.5286 29.4821C41.7134 29.2918 41.8974 29.1007 42.0811 28.9093C42.143 28.8449 42.2049 28.7805 42.2686 28.7142C42.3952 28.5816 42.5211 28.4483 42.6463 28.3144C42.8299 28.1187 43.0163 27.9258 43.2032 27.7333C43.3121 27.6186 43.421 27.5039 43.5331 27.3857C43.9712 27.0691 44.2195 27.0694 44.7484 27.1361C45.1212 27.3779 45.1212 27.3779 45.3698 27.7601C45.3241 28.6479 45.1198 29.4897 44.9062 30.3501C44.8722 30.4874 44.8383 30.6247 44.8034 30.7662C44.7316 31.055 44.6594 31.3438 44.5868 31.6324C44.4769 32.0719 44.3703 32.5122 44.2637 32.9525C44.1932 33.2343 44.1226 33.516 44.0518 33.7976C44.0207 33.9282 43.9896 34.0587 43.9575 34.1932C43.7162 35.1295 43.354 35.8341 42.6227 36.4759C41.8041 36.9092 41.0211 36.9438 40.1116 36.9387C39.651 36.9421 39.3559 36.9527 38.9484 37.1813C38.5465 37.616 38.2024 38.0807 37.859 38.5628C37.7052 38.776 37.5513 38.9892 37.3974 39.2024C37.3188 39.3118 37.2401 39.4212 37.1591 39.5339C36.9235 39.8595 36.6849 40.1826 36.445 40.5049C36.3298 40.66 36.3298 40.66 36.2124 40.8181C36.0671 41.0136 35.9214 41.2089 35.7753 41.4039C35.1722 42.2194 34.6282 43.069 34.1852 43.9836C34.477 44.0446 34.769 44.1037 35.0615 44.1611C35.2946 44.207 35.5273 44.2549 35.7595 44.3054C38.4938 44.8476 41.2314 44.4261 43.5998 42.9253C44.8207 42.0944 45.7268 40.9372 46.1154 39.491C46.2001 39.0041 46.2728 38.5152 46.3264 38.0239C46.3884 37.5502 46.4331 37.3075 46.7542 36.9414C47.175 36.7094 47.5474 36.6202 48.0183 36.527C50.2228 36.0333 52.2193 34.7817 53.4513 32.8568C53.9659 32.001 54.358 31.148 54.6771 30.1995C54.8144 29.8816 54.8144 29.8816 55.1873 29.632C55.6641 29.5798 55.9468 29.5638 56.3601 29.8192C56.64 30.2691 56.6463 30.6231 56.5543 31.1296C55.7321 33.8489 53.9736 36.1469 51.4824 37.5084C49.3828 38.6174 49.3828 38.6174 48.3523 38.6174C48.3362 38.7513 48.3362 38.7513 48.3198 38.8879C48.025 40.9874 47.1339 42.8641 45.494 44.2332C42.8462 46.225 39.544 46.9803 36.2775 46.5249C35.5749 46.4135 34.8727 46.2904 34.1852 46.1052C34.4007 52.5137 35.6912 57.051 40.3989 61.58C40.5918 61.7426 40.7858 61.9041 40.9814 62.0635C41.2973 62.3358 41.3876 62.4393 41.5406 62.8435C41.5103 63.3106 41.3501 63.6198 41.0202 63.9511C40.7083 63.9641 40.3998 63.969 40.0878 63.9686C39.989 63.969 39.8902 63.9694 39.7884 63.9697C39.4548 63.9708 39.1211 63.971 38.7875 63.9712C38.5493 63.9718 38.3112 63.9724 38.073 63.9731C37.4242 63.9747 36.7754 63.9755 36.1265 63.9761C35.7216 63.9764 35.3167 63.977 34.9118 63.9775C33.6462 63.9792 32.3807 63.9804 31.1151 63.9809C29.6518 63.9815 28.1884 63.9837 26.7251 63.9873C25.5956 63.99 24.4661 63.9912 23.3366 63.9914C22.6613 63.9915 21.986 63.9923 21.3106 63.9945C20.6755 63.9965 20.0405 63.9968 19.4054 63.9957C19.1719 63.9956 18.9384 63.9962 18.7049 63.9974C18.387 63.999 18.0691 63.9983 17.7511 63.997C17.6114 63.9985 17.6114 63.9985 17.4689 64C16.8485 63.994 16.8485 63.994 16.5473 63.7835C16.3411 63.4629 16.3051 63.2073 16.29 62.8279C16.5749 62.2041 17.0657 61.7973 17.5638 61.346C20.2275 58.9069 22.0742 56.2292 22.8939 52.6765C23.1936 51.3964 23.1936 51.3964 23.5289 51.097C23.9543 50.9417 24.1854 50.9654 24.6163 51.097C24.864 51.2943 24.9724 51.4378 25.1134 51.721C25.2102 55.6109 22.6286 59.1254 20.1425 61.8295C20.1015 61.8707 20.0604 61.9119 20.0182 61.9543C25.8826 61.9543 31.747 61.9543 37.7891 61.9543C37.297 61.4602 36.8049 60.966 36.2979 60.4568C36.0462 60.1553 35.8143 59.8709 35.5911 59.552C35.5082 59.4354 35.5082 59.4354 35.4237 59.3164C34.562 58.0793 33.8599 56.8015 33.3309 55.3869C33.2968 55.2962 33.2627 55.2055 33.2276 55.1121C32.7192 53.6756 32.5112 52.1877 32.3755 50.6759C32.3529 50.4334 32.3529 50.4334 32.3298 50.1861C32.2993 49.8571 32.2693 49.528 32.2398 49.1988C32.2 48.76 32.1574 48.3215 32.1139 47.883C31.8047 44.6687 32.2314 42.5661 34.1852 39.9902C34.2668 39.8819 34.3483 39.7737 34.4323 39.6623C34.8597 39.0952 35.2893 38.5298 35.7212 37.9661C36.07 37.5092 36.4048 37.0459 36.7328 36.5738C37.3162 35.7621 37.9198 35.1223 38.9076 34.8735C39.4151 34.8277 39.9238 34.8219 40.4331 34.8138C40.586 34.8088 40.586 34.8088 40.7421 34.8038C40.8804 34.8013 40.8804 34.8013 41.0215 34.7987C41.341 34.7341 41.4451 34.6326 41.6416 34.3743C41.7474 34.1303 41.7474 34.1303 41.8139 33.8595C41.8407 33.7611 41.8676 33.6626 41.8952 33.5612C41.9217 33.4589 41.9482 33.3565 41.9756 33.2511C42.0035 33.1488 42.0315 33.0465 42.0603 32.9411C42.1704 32.5297 42.2629 32.1818 42.2629 31.7536C42.2027 31.8123 42.1425 31.871 42.0804 31.9315C41.9971 32.0092 41.9138 32.0869 41.828 32.167C41.7472 32.2437 41.6665 32.3204 41.5833 32.3995C40.5846 33.1223 39.5392 33.0557 38.3583 33.0564C37.6091 33.0626 37.6091 33.0626 36.9255 33.3345C36.6341 33.6673 36.3598 34.0033 36.0959 34.3587C35.9881 34.5024 35.8802 34.6461 35.7721 34.7896C35.7163 34.8642 35.6605 34.9388 35.603 35.0156C35.3031 35.4136 34.9968 35.8066 34.6901 36.1995C34.6329 36.2733 34.5757 36.3471 34.5167 36.4231C33.8101 37.3286 33.8101 37.3286 33.3153 37.4942C32.6573 37.5575 32.1155 37.5751 31.5134 37.2836C30.8057 36.6262 30.7433 35.9771 30.6493 35.0539C30.6269 34.8511 30.6269 34.8511 30.6041 34.6443C30.5534 34.18 30.5052 33.7156 30.4571 33.2511C30.4387 33.078 30.4203 32.9049 30.4018 32.7318C30.2809 31.5987 30.1644 30.4652 30.0505 29.3314C30.0005 28.835 29.9493 28.3387 29.8979 27.8425C29.858 27.455 29.819 27.0674 29.7802 26.6798C29.7618 26.4965 29.7429 26.3134 29.7237 26.1302C29.6972 25.8759 29.6719 25.6214 29.647 25.3669C29.6324 25.2231 29.6178 25.0793 29.6027 24.9311C29.5755 24.2044 29.7103 23.5761 29.9682 22.9013C30.0433 22.7028 30.0433 22.7028 30.1199 22.5003C30.1722 22.3648 30.2245 22.2293 30.2784 22.0896C30.3312 21.9507 30.384 21.8118 30.4384 21.6687C30.5681 21.3277 30.6986 20.9871 30.8299 20.6467C30.7234 20.7022 30.6168 20.7577 30.5071 20.8149C30.365 20.8855 30.2229 20.9561 30.0765 21.0289C29.9366 21.0998 29.7968 21.1708 29.6527 21.2438C29.1148 21.4299 28.8912 21.4354 28.3444 21.2707C27.8711 21.0053 27.4293 20.7011 26.9852 20.3893C26.8647 20.3065 26.7441 20.2237 26.6199 20.1385C26.3239 19.9349 26.0289 19.7299 25.7347 19.5235C25.9891 20.1955 26.2637 20.8505 26.5794 21.4959C26.6395 21.6202 26.6995 21.7446 26.7614 21.8727C26.8847 22.1265 27.01 22.3794 27.1372 22.6312C27.1966 22.7559 27.256 22.8806 27.3173 23.009C27.3714 23.1187 27.4255 23.2284 27.4812 23.3414C27.7857 24.4421 27.5832 25.6753 27.4804 26.7992C27.4614 27.009 27.4614 27.009 27.4421 27.223C27.4154 27.516 27.3882 27.8089 27.3606 28.1017C27.3191 28.5487 27.2806 28.9959 27.242 29.4431C27.2155 29.7292 27.1888 30.0153 27.1619 30.3014C27.1509 30.4341 27.1399 30.5668 27.1285 30.7036C27.0451 31.5438 26.9169 32.2441 26.2537 32.826C25.5961 33.1472 25.0716 33.2333 24.3677 33.0015C23.3769 32.5001 22.4975 31.7642 21.607 31.1033C19.541 29.5633 19.541 29.5633 17.0357 29.2576C17.1558 29.3376 17.276 29.4175 17.3997 29.4999C17.7363 29.7241 18.0719 29.9497 18.407 30.1761C18.6876 30.3652 18.9686 30.5481 19.2565 30.726C20.1089 31.2683 20.6522 31.9794 21.232 32.7894C21.4729 33.123 21.7245 33.4479 21.9755 33.7737C22.0779 33.9076 22.1803 34.0415 22.2828 34.1754C22.5411 34.512 22.8014 34.847 23.0624 35.1816C23.4999 35.7426 23.9349 36.3055 24.3677 36.8702C24.461 36.9917 24.5542 37.1131 24.6503 37.2383C26.4846 39.736 26.0569 42.6122 25.7976 45.5286C25.7764 45.7671 25.756 46.0057 25.7362 46.2443C25.7077 46.5836 25.6761 46.9225 25.6435 47.2615C25.631 47.4154 25.631 47.4154 25.6183 47.5723C25.5704 48.0332 25.5354 48.2866 25.2506 48.6619C24.9045 48.9118 24.6691 48.9668 24.2435 48.9755C23.6761 48.7096 23.6761 48.7096 23.4978 48.3515C23.4857 48.1594 23.4817 47.9668 23.4823 47.7743C23.482 47.6723 23.4816 47.5704 23.4813 47.4653C23.5022 47.0069 23.5613 46.5599 23.6221 46.1052C23.4027 46.1592 23.4027 46.1592 23.1789 46.2144C19.9548 46.9619 16.483 46.8436 13.5943 45.0721C11.4616 43.6986 10.1126 41.9359 9.51476 39.4447C9.45505 39.1166 9.45505 39.1166 9.45505 38.6174C9.36149 38.6019 9.26794 38.5865 9.17155 38.5706C6.49576 38.0488 4.16701 36.386 2.64176 34.1343C1.02922 31.6554 0.50627 28.7267 1.08602 25.8398C1.24348 25.1206 1.45952 24.442 1.75016 23.7666C1.8148 23.6138 1.8148 23.6138 1.88075 23.458C2.86929 21.3054 4.62078 19.5797 6.72106 18.5251C6.71845 18.4304 6.71585 18.3357 6.71317 18.238C6.64857 15.5246 6.75119 13.2568 8.21232 10.9125C8.62354 10.5285 8.89249 10.4558 9.45505 10.5382Z" fill="#A6C7A5"/>
<path d="M28.8804 0.000642787C29.027 0.00176888 29.1736 0.00289498 29.3247 0.00405519C32.3351 0.0638076 34.8711 1.38478 36.9615 3.53833C38.4105 5.16103 38.4105 5.16103 38.4105 5.92068C38.6258 5.88979 38.6258 5.88979 38.8455 5.85828C42.1004 5.51044 44.8477 6.30361 47.4358 8.32301C49.3768 9.96724 50.7976 12.4774 51.0863 15.0308C51.0831 15.3161 51.0733 15.6014 51.0581 15.8864C51.0506 16.0361 51.0431 16.1858 51.0353 16.34C51.0174 16.6494 50.9947 16.9585 50.9674 17.2672C50.949 17.7283 50.9504 18.0835 51.0863 18.5251C51.5344 18.9274 52.036 19.1466 52.5775 19.3987C53.1254 19.791 53.5936 20.2949 54.0688 20.7715C54.152 20.8535 54.2351 20.9356 54.3208 21.0201C55.6802 22.4627 56.5907 24.5861 56.8572 26.5355C56.7793 27.0382 56.5834 27.2122 56.1814 27.5105C55.8086 27.5885 55.8086 27.5885 55.4358 27.5105C54.8359 27.0278 54.6825 26.5904 54.5115 25.8725C53.9305 23.6933 52.6155 21.8746 50.6574 20.7306C50.3056 20.5318 49.9502 20.34 49.595 20.1475C48.9905 19.807 48.9905 19.807 48.8494 19.5235C48.8375 19.3444 48.8332 19.1648 48.8338 18.9853C48.8335 18.8906 48.8332 18.7958 48.8329 18.6982C48.8494 18.4003 48.8494 18.4003 48.9096 18.1278C49.3054 15.9565 48.8949 13.7358 47.7246 11.8748C47.314 11.3014 46.8595 10.7889 46.3639 10.2886C46.2906 10.2105 46.2172 10.1325 46.1416 10.0521C44.6707 8.6108 42.4305 7.90725 40.4144 7.87063C39.7731 7.88756 39.1849 7.97534 38.561 8.11583C38.0722 8.2069 37.7749 8.19016 37.2921 8.04222C37.0127 7.74679 36.8479 7.4079 36.6707 7.04385C35.5582 4.76058 33.8343 3.28959 31.4513 2.42638C31.079 2.30868 30.7191 2.23009 30.3328 2.17678C30.224 2.16021 30.1153 2.14364 30.0032 2.12657C27.7496 1.85622 25.5462 2.46182 23.7066 3.78354C22.3726 4.84587 21.5725 6.12434 20.8206 7.64102C20.6159 7.95351 20.4948 8.05368 20.1425 8.16702C19.8755 8.16848 19.8755 8.16848 19.5988 8.12802C19.4628 8.10944 19.4628 8.10944 19.324 8.09048C19.105 8.05525 18.8864 8.01696 18.6682 7.9769C16.3889 7.62915 14.367 8.22575 12.4376 9.41498C12.3761 9.47676 12.3761 9.47676 12.3133 9.53978C11.7722 9.60248 11.5262 9.59989 11.0784 9.27459C10.822 8.9158 10.822 8.9158 10.7444 8.54141C10.8764 7.90484 11.2429 7.68053 11.7512 7.33195C14.0661 5.88139 16.7264 5.53758 19.3968 5.92068C19.4292 5.83204 19.4616 5.7434 19.4949 5.65208C20.5346 3.19682 22.7756 1.61161 25.1333 0.590502C26.3617 0.144873 27.5803 -0.0114202 28.8804 0.000642787Z" fill="#A6C7A5"/>
</svg>
