<svg width="40" height="64" viewBox="0 0 40 64" fill="none" xmlns="http://www.w3.org/2000/svg">
<path d="M21.337 0.284596C21.5925 0.42339 21.5925 0.42339 21.8353 0.580689C21.9219 0.636455 22.0084 0.692221 22.0976 0.749676C22.8224 1.25731 23.4151 1.83352 23.7786 2.64743C23.9043 2.88467 23.9043 2.88467 24.0777 3.0741C24.4473 3.15934 24.6855 3.18267 25.0538 3.16907C25.1481 3.16942 25.2424 3.16977 25.3396 3.17013C25.6406 3.17078 25.9412 3.16573 26.2422 3.15981C26.5422 3.15588 26.8421 3.15323 27.1421 3.15351C27.3285 3.15349 27.5149 3.151 27.7012 3.14565C28.3401 3.14298 28.7001 3.28448 29.1853 3.69746C29.5253 4.13656 29.4726 4.65962 29.4719 5.19253C29.4725 5.29007 29.473 5.38761 29.4736 5.48811C29.4743 5.69497 29.4743 5.90183 29.4738 6.10869C29.4734 6.41925 29.4763 6.72965 29.4795 7.04019C29.4883 9.20381 29.1485 11.5947 27.6904 13.2971C27.3305 13.4772 27.0929 13.4688 26.6938 13.4218C26.3356 13.1568 26.3356 13.1568 26.0709 12.7984C25.9813 12.0756 26.2723 11.5668 26.6001 10.951C27.2627 9.63452 27.3745 8.22751 27.4023 6.77526C27.4066 6.62203 27.4108 6.46879 27.4152 6.31091C27.4253 5.93846 27.434 5.56603 27.4412 5.1935C26.948 5.20371 26.455 5.21777 25.9619 5.23246C25.8238 5.23528 25.6857 5.23809 25.5434 5.24099C24.0447 5.28951 22.9496 5.58614 21.8698 6.65205C21.1194 7.47323 20.832 8.36697 20.8131 9.47483C20.8106 9.60457 20.8081 9.73432 20.8056 9.86799C20.8035 10.0066 20.8014 10.1452 20.7993 10.288C20.7954 10.5025 20.7954 10.5025 20.7914 10.7213C20.7833 11.1773 20.7759 11.6333 20.7686 12.0893C20.7632 12.3988 20.7578 12.7083 20.7523 13.0178C20.739 13.7758 20.7263 14.5338 20.7141 15.2918C21.0114 15.2168 21.3083 15.1407 21.6051 15.0639C21.6884 15.043 21.7718 15.0221 21.8576 15.0005C22.3658 14.8681 22.814 14.7 23.2757 14.4503C23.7323 14.2067 24.0499 14.0474 24.576 14.1698C24.9899 14.476 25.171 14.6592 25.2767 15.1672C25.1684 15.6877 24.9956 15.837 24.576 16.1645C23.4399 16.8694 22.1456 17.1932 20.8387 17.4112C20.8387 22.1425 20.8387 26.8737 20.8387 31.7484C21.9487 30.6375 23.0586 29.5267 24.2022 28.3822C24.2845 28.3411 24.3667 28.3 24.4514 28.2576C24.3781 27.8196 24.2544 27.4672 24.0699 27.0654C23.4211 25.3055 23.7683 23.2694 24.5147 21.6052C25.6971 19.2607 27.6369 17.4609 30.1274 16.6087C31.792 16.0934 33.6522 16.0472 35.2365 16.8195C36.4985 17.5124 37.1553 18.4451 37.6565 19.78C38.2426 21.8018 37.6266 23.8767 36.6823 25.6629C36.3304 26.2987 35.9043 26.8496 35.4141 27.3849C35.344 27.4636 35.2738 27.5424 35.2015 27.6235C33.6368 29.2884 31.4824 30.2481 29.2184 30.377C28.07 30.377 27.1184 30.0671 26.0709 29.629C25.6207 30.0414 25.176 30.4582 24.7361 30.8815C24.3191 31.2802 23.8918 31.6593 23.45 32.0297C23.1489 32.2854 22.8557 32.5493 22.5631 32.8146C22.4181 32.9428 22.2701 33.0678 22.1189 33.1888C21.4414 33.7344 20.9101 34.2701 20.7749 35.1601C20.747 35.6445 20.7372 36.1253 20.7357 36.6104C20.733 36.7801 20.7299 36.9497 20.7266 37.1194C20.7196 37.5316 20.7156 37.9436 20.7141 38.3559C20.7986 38.3554 20.883 38.355 20.9701 38.3545C23.0278 38.3435 25.0856 38.3352 27.1433 38.3301C28.1385 38.3275 29.1336 38.324 30.1287 38.3183C30.9963 38.3133 31.8639 38.3101 32.7315 38.309C33.1907 38.3083 33.6498 38.3068 34.109 38.3032C34.6222 38.2991 35.1354 38.2991 35.6487 38.2993C35.8 38.2975 35.9514 38.2957 36.1073 38.2939C37.0317 38.2984 37.7617 38.3716 38.4681 39.0306C39.1307 39.7743 39.1909 40.4464 39.1933 41.3972C39.1941 41.5102 39.195 41.6231 39.1958 41.7395C39.1971 41.9781 39.1977 42.2167 39.1976 42.4553C39.1982 42.8182 39.2027 43.1808 39.2074 43.5436C39.2081 43.7761 39.2086 44.0087 39.2089 44.2412C39.2107 44.3487 39.2124 44.4561 39.2143 44.5668C39.2079 45.4183 39.002 46.1003 38.3996 46.7205C38.2746 46.8073 38.2746 46.8073 38.147 46.8958C38.0634 46.9563 37.9797 47.0167 37.8935 47.0789C37.6565 47.2075 37.6565 47.2075 37.2828 47.2075C37.2512 47.4357 37.2512 47.4357 37.219 47.6685C36.8416 50.3667 36.3932 53.0534 35.9502 55.7415C35.8464 56.3722 35.7436 57.0031 35.6418 57.6342C35.5179 58.4022 35.3921 59.1699 35.2649 59.9373C35.217 60.2283 35.1698 60.5194 35.1232 60.8106C35.0583 61.2157 34.9911 61.6202 34.9232 62.0248C34.9046 62.1444 34.886 62.2639 34.8668 62.3871C34.7595 63.01 34.6686 63.483 34.1684 63.9134C33.847 63.9925 33.847 63.9925 33.4793 63.994C33.2723 63.997 33.2723 63.997 33.0611 64C32.9126 63.9987 32.7641 63.9975 32.6112 63.9962C32.3817 63.9971 32.3817 63.9971 32.1477 63.998C31.8243 63.9984 31.5009 63.9973 31.1776 63.9947C30.6821 63.9913 30.1869 63.9946 29.6914 63.9986C29.3774 63.9982 29.0633 63.9974 28.7493 63.9962C28.6008 63.9974 28.4524 63.9987 28.2994 64C27.2787 63.9855 27.2787 63.9855 26.8451 63.6248C26.6384 63.1676 26.6855 62.8958 26.8184 62.4173C27.0173 62.1544 27.1223 62.0555 27.4499 61.9983C27.598 61.9996 27.598 61.9996 27.7491 62.0009C27.8613 62.0009 27.9735 62.0009 28.0891 62.0009C28.2702 62.0038 28.2702 62.0038 28.4549 62.0068C28.5788 62.0073 28.7027 62.0079 28.8303 62.0084C29.2264 62.0105 29.6224 62.0152 30.0184 62.0199C30.2868 62.0218 30.5552 62.0235 30.8235 62.0251C31.4817 62.0292 32.1399 62.0356 32.798 62.0433C32.8803 61.3851 32.9625 60.7268 33.0472 60.0486C33.7461 55.8522 34.4449 51.6558 35.165 47.3322C24.9696 47.3322 14.7743 47.3322 4.26999 47.3322C5.05108 52.0223 5.83218 56.7124 6.63694 61.5446C6.63694 61.7092 6.63694 61.8738 6.63694 62.0433C6.72701 62.0428 6.81708 62.0422 6.90987 62.0416C9.10052 62.0278 11.2911 62.0175 13.4818 62.011C14.5412 62.0078 15.6006 62.0034 16.6599 61.9963C17.5832 61.9901 18.5064 61.9861 19.4297 61.9847C19.9187 61.9839 20.4076 61.9819 20.8965 61.9774C21.3567 61.9732 21.8167 61.9719 22.2769 61.9728C22.5265 61.9726 22.776 61.9692 23.0255 61.9658C23.174 61.9666 23.3225 61.9675 23.4755 61.9684C23.6046 61.9678 23.7336 61.9672 23.8666 61.9666C24.2022 62.0433 24.2022 62.0433 24.4973 62.3314C24.7006 62.6667 24.7006 62.6667 24.6928 63.1186C24.5397 63.67 24.5397 63.67 24.2022 63.9134C23.8619 63.9611 23.8619 63.9611 23.4418 63.9626C23.2031 63.9647 23.2031 63.9647 22.9596 63.9668C22.7829 63.9665 22.6062 63.9661 22.4295 63.9657C22.2437 63.9667 22.0579 63.9677 21.8721 63.9689C21.3671 63.9717 20.8621 63.9721 20.3571 63.9718C19.9357 63.9718 19.5144 63.9729 19.093 63.9739C18.0991 63.9763 17.1052 63.9767 16.1112 63.9758C15.0854 63.975 14.0595 63.9779 13.0336 63.9825C12.1533 63.9863 11.273 63.9877 10.3926 63.9872C9.8666 63.987 9.34065 63.9877 8.81467 63.9907C8.32005 63.9935 7.82552 63.9933 7.3309 63.9907C7.14931 63.9903 6.96771 63.9909 6.78612 63.9927C6.53838 63.995 6.29062 63.993 6.04288 63.9909C5.90418 63.991 5.76549 63.991 5.62259 63.9911C5.2666 63.9134 5.2666 63.9134 4.97888 63.6387C4.76311 63.2815 4.67621 63.0306 4.60905 62.6212C4.58635 62.4887 4.56366 62.3563 4.54027 62.2197C4.5176 62.0757 4.49493 61.9316 4.47157 61.7832C4.43319 61.5542 4.43319 61.5542 4.39403 61.3205C4.32445 60.9029 4.25659 60.4851 4.1895 60.0671C4.11885 59.6295 4.04607 59.1922 3.97353 58.7549C3.85208 58.0208 3.73204 57.2866 3.61298 56.5522C3.44503 55.5162 3.27454 54.4806 3.10355 53.4451C2.97085 52.6409 2.83884 51.8367 2.70694 51.0324C2.69278 50.9461 2.67863 50.8598 2.66404 50.7709C2.57032 50.1994 2.47722 49.6278 2.38443 49.0561C2.36075 48.9115 2.33707 48.767 2.31267 48.618C2.29138 48.4862 2.27008 48.3544 2.24815 48.2187C2.2295 48.104 2.21086 47.9893 2.19165 47.8711C2.15218 47.5815 2.15218 47.5815 2.15218 47.2075C2.06482 47.1998 1.97746 47.1921 1.88746 47.1841C1.33271 47.0272 0.957224 46.7199 0.639424 46.248C0.27877 45.5737 0.210157 45.0123 0.217351 44.2544C0.216874 44.1419 0.216398 44.0295 0.215906 43.9136C0.215569 43.6773 0.216475 43.4409 0.218568 43.2045C0.221237 42.845 0.218587 42.4858 0.215405 42.1262C0.215734 41.8954 0.216372 41.6645 0.217351 41.4337C0.215838 41.2743 0.215838 41.2743 0.214294 41.1117C0.226633 40.3141 0.405217 39.6366 0.957709 39.0381C1.50676 38.553 2.03452 38.3264 2.76193 38.3197C2.87959 38.3181 2.99725 38.3165 3.11847 38.3149C3.30692 38.3144 3.30692 38.3144 3.49917 38.314C3.62953 38.3132 3.7599 38.3124 3.89422 38.3115C4.16939 38.3102 4.44457 38.3097 4.71975 38.3097C5.14054 38.3092 5.56118 38.3046 5.98194 38.2999C6.24959 38.2992 6.51723 38.2987 6.78488 38.2984C6.91051 38.2966 7.03613 38.2948 7.16557 38.293C7.71932 38.2966 8.04106 38.3007 8.52232 38.5932C8.77174 38.8737 8.83983 38.9831 8.83261 39.3533C8.83421 39.4355 8.83582 39.5178 8.83747 39.6026C8.70246 40.0095 8.49527 40.1266 8.13186 40.3506C7.70462 40.4253 7.28201 40.4231 6.84911 40.4222C6.66423 40.4249 6.66423 40.4249 6.47562 40.4276C6.08298 40.4328 5.69041 40.4347 5.29774 40.4363C4.90333 40.44 4.50893 40.4443 4.11453 40.4491C3.86928 40.4519 3.62403 40.4539 3.37876 40.455C3.26855 40.4558 3.15833 40.4567 3.04478 40.4576C2.94735 40.458 2.84991 40.4585 2.74953 40.4589C2.52305 40.451 2.52305 40.451 2.40134 40.6C2.38876 40.9309 2.38393 41.2585 2.38479 41.5895C2.38467 41.6887 2.38455 41.7878 2.38443 41.89C2.38434 42.1 2.38457 42.31 2.38509 42.5201C2.38576 42.8427 2.3851 43.1652 2.3843 43.4879C2.38439 43.6914 2.38455 43.895 2.38479 44.0985C2.38454 44.1957 2.38429 44.2928 2.38403 44.3929C2.34423 44.8398 2.34423 44.8398 2.52591 45.2128C2.70957 45.225 2.89381 45.2284 3.07787 45.2285C3.25778 45.229 3.25778 45.229 3.44133 45.2295C3.57466 45.2292 3.708 45.2289 3.84537 45.2286C3.9858 45.2288 4.12622 45.229 4.2709 45.2292C4.74538 45.2297 5.21986 45.2293 5.69434 45.2289C6.03291 45.229 6.37147 45.2293 6.71003 45.2296C7.53652 45.2301 8.363 45.23 9.18949 45.2297C9.86089 45.2294 10.5323 45.2293 11.2037 45.2295C11.3468 45.2295 11.3468 45.2295 11.4927 45.2295C11.6864 45.2296 11.8801 45.2296 12.0739 45.2296C13.8925 45.23 15.7112 45.2296 17.5298 45.2289C19.092 45.2284 20.6542 45.2285 22.2164 45.229C24.0284 45.2297 25.8403 45.23 27.6522 45.2296C27.8452 45.2295 28.0383 45.2295 28.2313 45.2295C28.3263 45.2295 28.4213 45.2294 28.5191 45.2294C29.1901 45.2293 29.8611 45.2295 30.5321 45.2298C31.3492 45.2301 32.1664 45.23 32.9835 45.2294C33.4008 45.229 33.8182 45.229 34.2355 45.2293C34.6869 45.2297 35.1382 45.2292 35.5896 45.2286C35.7896 45.229 35.7896 45.229 35.9937 45.2295C36.1136 45.2291 36.2335 45.2288 36.3571 45.2285C36.5136 45.2284 36.5136 45.2284 36.6733 45.2284C36.9105 45.2387 36.9105 45.2387 37.0336 45.0881C37.0462 44.7572 37.051 44.4295 37.0502 44.0985C37.0503 43.9994 37.0504 43.9002 37.0506 43.7981C37.0506 43.5881 37.0504 43.378 37.0499 43.168C37.0492 42.8454 37.0499 42.5228 37.0507 42.2002C37.0506 41.9967 37.0504 41.7931 37.0502 41.5895C37.0506 41.4438 37.0506 41.4438 37.051 41.2952C37.0907 40.8483 37.0908 40.8483 36.9091 40.4753C36.5812 40.4629 36.2566 40.4588 35.9287 40.4598C35.8248 40.4596 35.7208 40.4594 35.6137 40.4592C35.2626 40.4588 34.9116 40.4592 34.5605 40.4596C34.3099 40.4594 34.0593 40.4592 33.8086 40.4589C33.2675 40.4583 32.7265 40.4581 32.1854 40.4581C31.3301 40.4579 30.4749 40.4563 29.6196 40.4544C29.4755 40.4541 29.3313 40.4538 29.1828 40.4534C28.888 40.4528 28.5932 40.4521 28.2983 40.4515C26.3063 40.4471 24.3142 40.4438 22.3221 40.4441C20.9797 40.4443 19.6374 40.4423 18.295 40.4377C17.5842 40.4354 16.8733 40.4343 16.1625 40.4358C15.4937 40.4372 14.8251 40.4358 14.1563 40.4321C13.9107 40.4313 13.6651 40.4315 13.4195 40.4329C13.0844 40.4346 12.7495 40.4325 12.4144 40.4295C12.317 40.4309 12.2195 40.4323 12.1191 40.4338C11.6213 40.4249 11.3949 40.3696 10.9991 40.0574C10.748 39.7273 10.748 39.7273 10.6701 39.3533C10.7497 38.9708 10.8469 38.7546 11.1321 38.4857C11.6983 38.1779 12.4141 38.2823 13.0395 38.295C13.2018 38.2959 13.364 38.2968 13.5312 38.2977C13.9611 38.3001 14.3909 38.3062 14.8208 38.3131C15.2601 38.3195 15.6993 38.3223 16.1386 38.3255C16.9994 38.3321 17.8601 38.3428 18.7209 38.3559C18.9335 35.8997 18.9335 35.8997 17.9405 33.7431C17.4728 33.2604 16.9799 32.8175 16.4707 32.3795C16.2689 32.1929 16.0678 32.0055 15.8675 31.8173C15.0273 31.0367 14.1667 30.3042 13.2395 29.629C13.1335 29.6826 13.1335 29.6826 13.0254 29.7373C11.3325 30.5764 9.543 30.4994 7.78198 29.9056C6.5195 29.4231 5.52456 28.7858 4.51914 27.8836C4.43997 27.8161 4.3608 27.7486 4.27923 27.679C2.8879 26.4115 1.79759 24.344 1.62629 22.4703C1.56802 21.2241 1.5446 20.0305 2.15218 18.9073C2.23143 18.7585 2.23143 18.7585 2.31228 18.6068C3.00502 17.4501 4.12193 16.6789 5.42135 16.3413C7.76497 15.9858 9.9339 16.5426 11.8614 17.9226C13.7026 19.3711 15.2474 21.3907 15.6065 23.7694C15.689 24.9959 15.7518 26.2235 15.2293 27.361C15.075 27.6822 15.075 27.6822 14.9836 28.2576C15.4769 28.6896 15.4769 28.6896 15.9802 29.1303C16.8435 29.9942 17.7068 30.8582 18.5963 31.7484C18.5963 27.0171 18.5963 22.2859 18.5963 17.4112C18.0208 17.2878 17.4452 17.1644 16.8522 17.0372C14.3916 16.2943 12.4417 14.6719 11.1679 12.4434C10.379 10.9415 9.98738 9.43258 9.97083 7.74097C9.96982 7.6416 9.96882 7.54222 9.96778 7.43983C9.96607 7.23102 9.96473 7.02221 9.96374 6.8134C9.9623 6.60074 9.95974 6.38808 9.95608 6.17544C9.95075 5.86611 9.94875 5.55692 9.94747 5.24756C9.94529 5.15326 9.94311 5.05896 9.94086 4.9618C9.9435 4.31294 10.0778 3.94045 10.4988 3.44811C10.9372 3.1063 11.439 3.17853 11.9689 3.19536C12.162 3.19709 12.3551 3.19845 12.5482 3.1995C12.8511 3.20204 13.1533 3.20655 13.456 3.21713C14.1128 3.23832 14.7174 3.23549 15.3573 3.0741C15.6965 2.75435 15.8692 2.47448 16.0621 2.05208C16.5018 1.13371 17.4446 0.596006 18.3471 0.206677C19.2189 -0.0841248 20.4828 -0.0768457 21.337 0.284596ZM17.5919 3.29228C17.3293 3.65453 17.3293 3.65453 17.3505 3.9468C17.5691 4.1103 17.5691 4.1103 17.8488 4.27406C18.5031 4.69465 19.2375 5.2301 19.5929 5.94153C19.6751 5.94153 19.7574 5.94153 19.8421 5.94153C20.0372 5.74363 20.0372 5.74363 20.2392 5.4896C20.778 4.85597 21.3245 4.30137 22.0844 3.9468C21.8287 3.15567 21.3343 2.54521 20.591 2.1644C19.3567 1.73268 18.3367 2.29353 17.5919 3.29228ZM11.9937 5.1935C11.9105 8.11229 11.9536 10.5865 13.9636 12.9075C15.0935 14.0826 16.4957 14.9391 18.098 15.2918C18.3056 15.2951 18.5133 15.2957 18.7209 15.2918C18.7304 14.3914 18.7369 13.491 18.7414 12.5905C18.7433 12.2846 18.7458 11.9787 18.7491 11.6728C18.7536 11.2315 18.7557 10.7902 18.7574 10.3488C18.7593 10.2135 18.7612 10.0781 18.7632 9.93862C18.7635 8.4486 18.4104 7.38607 17.3603 6.32236C16.4681 5.49527 15.5846 5.17508 14.366 5.18133C14.2275 5.18173 14.089 5.18213 13.9463 5.18255C13.803 5.18359 13.6597 5.18464 13.512 5.18571C13.3663 5.18627 13.2205 5.18684 13.0704 5.18742C12.7115 5.18888 12.3526 5.19093 11.9937 5.1935ZM4.26999 19.406C4.18006 19.5088 4.09013 19.6117 3.99747 19.7176C3.43615 20.8024 3.45405 21.9234 3.75173 23.0867C4.42816 25.1152 5.85276 26.6859 7.72309 27.6917C9.01988 28.3223 10.3412 28.601 11.7446 28.1329C11.5467 27.6505 11.2373 27.3455 10.8706 26.9802C10.8091 26.9187 10.7477 26.8573 10.6843 26.7939C10.5543 26.6642 10.4241 26.5349 10.2935 26.4057C10.0957 26.21 9.89888 26.0134 9.70221 25.8165C8.98862 25.1013 8.98862 25.1013 8.22882 24.4366C7.83803 24.1056 7.64946 23.9191 7.59462 23.4032C7.63355 23.0214 7.63355 23.0214 7.75813 22.7253C8.08029 22.4634 8.3412 22.4701 8.74726 22.4804C9.1866 22.5529 9.40328 22.7977 9.71243 23.1071C9.77726 23.1706 9.84208 23.2342 9.90887 23.2996C10.0593 23.4479 10.2084 23.5974 10.3566 23.7479C10.6719 24.068 10.9907 24.3845 11.3095 24.7011C11.9558 25.3435 12.5984 25.9893 13.2395 26.6369C13.6887 26.1873 13.7289 25.5616 13.7475 24.9436C13.6473 23.0412 12.6273 21.3337 11.2696 20.0449C10.609 19.4864 9.8992 19.0478 9.12847 18.6579C8.99503 18.5902 8.99503 18.5902 8.85888 18.5211C7.29735 17.8725 5.37997 18.11 4.26999 19.406ZM27.3167 20.9429C26.2977 22.3052 25.5246 23.8481 25.7371 25.5932C25.8477 26.1745 25.8477 26.1745 26.1955 26.6369C26.3017 26.5299 26.4078 26.423 26.5172 26.3129C26.9128 25.9148 27.3087 25.5171 27.7048 25.1196C27.8759 24.9477 28.0468 24.7758 28.2177 24.6037C28.4639 24.3558 28.7104 24.1084 28.9571 23.861C29.0708 23.7462 29.0708 23.7462 29.1868 23.6291C30.2462 22.5688 30.2462 22.5688 30.6968 22.4565C31.0965 22.4628 31.361 22.4685 31.6768 22.7253C31.8452 23.1254 31.8776 23.3374 31.8014 23.7694C31.4881 24.2678 31.0514 24.6512 30.6063 25.0298C29.9817 25.5729 29.3967 26.1531 28.8116 26.7382C28.7032 26.8451 28.5948 26.9521 28.4831 27.0622C28.3808 27.1644 28.2785 27.2665 28.1731 27.3717C28.0803 27.4641 27.9875 27.5565 27.8919 27.6517C27.6632 27.8637 27.6632 27.8637 27.6904 28.1329C29.3211 28.5877 30.7243 28.245 32.1829 27.4238C33.8888 26.3417 35.2934 24.7117 35.765 22.7156C35.9674 21.5387 35.9606 20.5919 35.3363 19.554C34.871 18.9076 34.2948 18.5339 33.5455 18.2839C31.0232 18.0898 28.9601 18.9959 27.3167 20.9429Z" fill="#A6C7A5"/>
</svg>
