<svg width="63" height="64" viewBox="0 0 63 64" fill="none" xmlns="http://www.w3.org/2000/svg">
<path d="M28.0305 9.5C28.6864 9.5 29.3423 9.5 30.0181 9.5C29.997 9.95439 29.997 9.95439 29.9754 10.418C29.8831 13.4427 30.4353 15.7411 31.6741 18.4771C32.2399 19.728 32.7409 21.0041 33.2464 22.2806C33.5211 22.9726 33.7993 23.6633 34.0773 24.354C34.1882 24.63 34.2991 24.906 34.41 25.1819C34.4645 25.3175 34.5189 25.4531 34.5751 25.5928C34.8411 26.255 35.107 26.9173 35.3729 27.5796C36.4836 30.3459 37.5963 33.1115 38.7139 35.875C38.7972 35.8819 38.8805 35.8888 38.9663 35.896C39.3455 35.9277 39.7246 35.9599 40.1037 35.9922C40.2347 36.0031 40.3658 36.0139 40.5009 36.0251C40.6278 36.036 40.7547 36.0469 40.8854 36.0581C41.0601 36.0728 41.0601 36.0728 41.2383 36.0879C41.5619 36.124 41.8742 36.1807 42.1922 36.25C42.3668 34.5674 42.3668 34.5674 41.6876 33.0859C41.586 32.9711 41.4845 32.8562 41.3799 32.7378C40.4506 31.635 39.8784 30.1707 39.9183 28.7217C40.0559 27.4617 40.4733 26.4482 41.4469 25.625C42.4129 24.9823 43.4899 24.8522 44.6214 25.0576C45.5899 25.3157 46.4647 25.76 47.0293 26.6172C47.6071 27.6858 47.7369 28.9147 47.4485 30.1016C46.9412 31.4629 45.9531 32.8267 44.7689 33.6597C44.3987 34.026 44.3987 34.026 44.3555 34.4985C44.3604 34.6789 44.3692 34.8591 44.3817 35.0391C44.3851 35.1316 44.3884 35.2242 44.3919 35.3196C44.4006 35.5465 44.414 35.7733 44.4283 36C44.5061 35.9639 44.5839 35.9278 44.6641 35.8906C44.7657 35.8442 44.8672 35.7978 44.9718 35.75C45.0727 35.7036 45.1735 35.6572 45.2775 35.6094C45.5463 35.5 45.5463 35.5 45.7948 35.5C45.845 35.3668 45.845 35.3668 45.8962 35.231C46.5225 33.7148 47.7071 31.9176 49.2731 31.25C50.3808 30.8758 51.7317 30.7506 52.8213 31.25C53.6974 31.7789 54.3146 32.5345 54.6565 33.5039C54.9068 34.6295 54.9193 35.8494 54.3178 36.8608C53.6114 37.7942 52.6557 38.3951 51.5092 38.625C49.8866 38.7687 48.3883 38.3711 46.9584 37.6069C46.6034 37.4778 46.4009 37.5206 46.0432 37.625C46.4716 37.9747 46.9094 38.3062 47.3554 38.6328C48.7656 39.6975 49.963 40.9331 51.1365 42.25C51.7199 42.1607 52.2761 42.0188 52.6716 41.5502C52.9544 41.1337 53.1977 40.6955 53.4463 40.2578C54.1374 39.0464 55.2308 37.888 56.5782 37.4414C57.7323 37.1604 58.8114 37.1705 59.8556 37.7734C60.746 38.3862 61.3255 39.1866 61.5715 40.25C61.6988 41.4297 61.6893 42.513 60.9503 43.5C60.1886 44.3774 59.0691 44.9124 57.9277 45.0298C56.4483 45.0743 55.0917 44.6409 53.7807 43.9883C53.4028 43.8375 53.1317 43.8655 52.7514 44C52.9814 44.3496 53.234 44.6747 53.4968 45C53.5847 45.1138 53.6726 45.2275 53.7632 45.3447C54.2851 45.9253 54.6614 46.2699 55.4431 46.3203C55.9796 46.3247 56.5137 46.2922 57.049 46.2605C58.44 46.2116 59.8276 46.5565 60.9193 47.4375C61.7664 48.2581 62.2272 49.1886 62.2858 50.375C62.2325 51.5029 61.7846 52.4304 61.0202 53.25C60.1332 54.0596 59.2936 54.2977 58.1135 54.2847C56.9807 54.1847 56.0021 53.5785 55.2515 52.7397C54.3892 51.6122 54.0426 50.317 53.885 48.9297C53.6735 47.7468 52.8585 47.1788 51.9842 46.4469C51.4856 46.0136 51.0661 45.5033 50.6396 45C50.5627 44.9106 50.4859 44.8211 50.4067 44.729C50.2349 44.5285 50.0644 44.3269 49.8942 44.125C49.7396 44.7418 49.7935 45.0291 50.1039 45.5781C50.8901 47.0721 51.4573 48.7954 50.9856 50.4897C50.6099 51.4921 50.0476 52.4103 49.0814 52.915C47.868 53.4076 46.7508 53.3853 45.5463 52.875C44.595 52.3925 43.9683 51.7339 43.5781 50.7305C43.2815 49.6465 43.4287 48.4488 43.88 47.4297C44.5963 46.1872 45.8006 45.1616 47.0836 44.5625C47.5233 44.3162 47.6928 44.1042 47.8464 43.6338C47.9808 43.1357 48.0745 42.6344 48.1551 42.125C45.8573 39.8551 43.5108 38.6479 40.3288 38.125C40.0804 38.0834 39.8319 38.0417 39.5835 38C39.6249 38.1001 39.6663 38.2003 39.7089 38.3034C39.8633 38.6795 40.0159 39.0563 40.1673 39.4336C40.2329 39.5959 40.2992 39.758 40.3661 39.9198C40.463 40.154 40.5572 40.3891 40.651 40.6245C40.7083 40.7653 40.7655 40.906 40.8245 41.051C41.1005 42.0388 40.9164 43.0915 40.8037 44.0968C40.7881 44.2398 40.7726 44.3829 40.7566 44.5302C40.7053 45 40.6532 45.4697 40.6011 45.9395C40.5651 46.267 40.5292 46.5946 40.4933 46.9222C40.4182 47.6073 40.3427 48.2924 40.2668 48.9774C40.1792 49.7684 40.0922 50.5595 40.0056 51.3506C39.922 52.1137 39.8381 52.8768 39.7541 53.6398C39.7184 53.9638 39.6828 54.2877 39.6472 54.6117C39.5976 55.0638 39.5475 55.5158 39.4974 55.9679C39.4754 56.1688 39.4754 56.1688 39.453 56.3737C39.4392 56.497 39.4255 56.6204 39.4113 56.7474C39.3995 56.8542 39.3877 56.9609 39.3755 57.0709C39.334 57.3827 39.2721 57.6915 39.2108 58C39.9077 58 40.6046 58 41.3226 58C41.3226 59.98 41.3226 61.96 41.3226 64C34.0666 64 26.8106 64 19.3347 64C19.3347 62.02 19.3347 60.04 19.3347 58C20.0316 58 20.7285 58 21.4465 58C21.4242 57.8331 21.4019 57.6661 21.3789 57.4941C21.14 55.6892 20.9267 53.882 20.7273 52.0723C20.6771 51.6184 20.6262 51.1647 20.5752 50.7109C20.5429 50.4193 20.5106 50.1276 20.4784 49.8359C20.4633 49.7018 20.4481 49.5677 20.4325 49.4295C20.3619 48.7819 20.3108 48.1515 20.3285 47.5C20.1747 47.5464 20.021 47.5928 19.8626 47.6406C18.8669 47.8577 17.9346 47.6622 17.052 47.1641C16.1496 46.5616 15.5525 45.7996 15.2352 44.75C15.1942 44.42 15.1532 44.09 15.111 43.75C14.4141 44.1213 13.7172 44.4925 12.9991 44.875C12.9879 45.9854 13 47.0932 13.038 48.2031C13.0408 48.3216 13.0435 48.44 13.0464 48.5621C13.0901 49.676 13.4907 50.1459 14.2725 50.8828C15.3423 51.9241 16.2416 53.157 16.2762 54.7137C16.2733 55.8687 16.1425 56.9314 15.3279 57.8276C14.3334 58.6179 13.1416 58.9964 11.8811 58.875C10.8708 58.684 10.0646 58.2932 9.42667 57.4673C8.96794 56.7571 8.7423 56.0891 8.65123 55.25C8.63586 55.1134 8.62048 54.9767 8.60465 54.8359C8.77741 53.1265 9.58506 51.6774 10.684 50.3989C11.0231 49.9421 11.0263 49.5416 11.0008 48.9834C10.9954 48.8621 10.99 48.7407 10.9843 48.6157C10.9779 48.4899 10.9715 48.364 10.9649 48.2344C10.9595 48.1076 10.954 47.9808 10.9484 47.8501C10.9424 47.2169 10.9424 47.2169 10.7631 46.625C10.6745 46.7307 10.586 46.8364 10.4947 46.9453C10.2483 47.2393 10.0012 47.5326 9.75374 47.8257C9.55244 48.0641 9.35303 48.3035 9.1559 48.5454C7.95465 49.9953 6.30545 51.1879 4.40814 51.4058C3.2519 51.445 2.22424 51.1011 1.3219 50.375C0.441372 49.3538 0.256563 48.3046 0.289274 46.9902C0.339621 46.3545 0.476666 45.904 0.824999 45.375C0.901863 45.2563 0.901863 45.2563 0.980281 45.1353C1.53504 44.3915 2.4026 43.9176 3.30952 43.75C5.56485 43.5737 7.05202 44.5185 8.77546 45.875C8.80316 45.8057 8.83086 45.7364 8.85941 45.665C9.8993 43.8316 12.5234 42.5683 14.3656 41.75C14.4476 41.75 14.5296 41.75 14.6141 41.75C14.6141 41.6675 14.6141 41.585 14.6141 41.5C14.4911 41.4588 14.3681 41.4175 14.2414 41.375C14.0463 41.1113 14.0463 41.1113 13.8532 40.7812C13.7888 40.6736 13.7244 40.566 13.6581 40.4551C13.36 39.8479 13.3588 39.2951 13.3718 38.625C13.3041 38.6113 13.2363 38.5976 13.1666 38.5835C12.6559 38.4755 12.1752 38.3506 11.687 38.1641C11.0185 37.936 10.4769 38.0302 9.81245 38.2183C8.35625 38.6124 6.3353 38.8947 4.94144 38.1821C3.87762 37.4522 3.22103 36.7329 2.81261 35.5C2.67549 34.2405 2.93763 33.2121 3.66133 32.1733C4.32903 31.3637 4.987 30.9128 6.02696 30.7656C7.25894 30.6898 8.41591 31.0531 9.39319 31.8164C9.98711 32.3733 10.3793 33.0363 10.7631 33.75C10.821 33.8565 10.879 33.963 10.9387 34.0728C11.2704 34.708 11.4903 35.2968 11.6327 36C11.7212 36.0242 11.8098 36.0483 11.901 36.0732C12.5582 36.253 13.2145 36.4348 13.8687 36.625C13.8103 36.5673 13.7518 36.5096 13.6916 36.4502C12.9551 35.6738 12.6346 34.9085 12.5721 33.8359C12.6247 32.64 13.0133 31.5803 13.8498 30.7261C14.6749 30.0284 15.5564 29.8249 16.6167 29.8408C18.5782 30.0283 19.7457 31.1595 20.9496 32.625C21.695 33.6315 21.695 33.6315 21.695 34C21.8999 34.0412 22.1049 34.0825 22.3161 34.125C22.1963 33.6318 22.0745 33.1394 21.9478 32.6479C21.8719 32.3506 21.8103 32.0664 21.7643 31.7622C21.5753 30.7051 20.7272 30.2493 19.9158 29.6567C18.8702 28.8709 18.1807 27.8452 17.7197 26.625C17.6233 26.6294 17.5269 26.6337 17.4276 26.6382C16.0024 26.6741 14.5081 26.5754 13.3718 25.625C13.285 25.5528 13.1982 25.4806 13.1088 25.4062C12.3612 24.7229 11.9623 24.0187 11.8345 23.0059C11.7845 21.7786 12.1608 20.7968 12.92 19.8442C13.5426 19.1729 14.2306 18.802 15.1479 18.708C16.6581 18.6908 17.5797 19.0062 18.6796 20.0605C19.1672 20.6034 19.7073 21.2437 19.7073 22C19.7826 21.9729 19.8579 21.9459 19.9354 21.918C21.0347 21.5504 21.8739 21.4929 22.977 21.8784C23.1096 21.9243 23.2422 21.9702 23.3789 22.0175C23.4791 22.053 23.5793 22.0885 23.6826 22.125C23.7299 22.036 23.7772 21.947 23.826 21.8553C24.7137 20.1866 25.602 18.5183 26.4932 16.8516C26.5636 16.7198 26.634 16.588 26.7065 16.4522C26.807 16.2644 26.807 16.2644 26.9095 16.0728C26.9728 15.9519 27.0361 15.8311 27.1012 15.7066C27.2851 15.375 27.2851 15.375 27.4688 15.1194C28.1412 14.1457 28.0037 12.9421 28.0072 11.8047C28.0101 11.581 28.0132 11.3573 28.0166 11.1335C28.0249 10.589 28.0276 10.0448 28.0305 9.5ZM28.7758 16.875C28.7347 16.9553 28.6936 17.0355 28.6512 17.1182C27.9021 18.579 27.1477 20.0358 26.3612 21.4766C25.7712 22.5584 25.7712 22.5584 25.1966 23.6484C25.1394 23.7585 25.0822 23.8685 25.0233 23.9819C24.8871 24.2666 24.8871 24.2666 25.0491 24.625C25.1785 26.302 24.9707 27.7112 24.0158 29.136C23.5005 29.865 23.5005 29.865 23.4574 30.7188C23.5276 30.9391 23.6037 31.1576 23.6826 31.375C23.7367 31.5579 23.7895 31.7412 23.8412 31.9248C23.9899 32.4516 24.1454 32.976 24.3037 33.5C24.4267 33.5 24.5497 33.5 24.6764 33.5C24.8855 32.8419 24.976 32.2257 25.0335 31.5391C25.189 29.9615 25.5788 28.5191 26.7572 27.4062C27.6987 26.6367 28.5055 26.4126 29.7235 26.4521C30.6978 26.5635 31.4689 27.0301 32.1299 27.75C32.7977 28.609 33.0937 29.5256 32.9995 30.625C32.7615 31.8507 32.1868 32.7448 31.1677 33.4609C30.1037 34.0843 28.8119 34.393 27.5845 34.3647C27.1172 34.3592 26.7409 34.3684 26.2913 34.5C25.7566 35.0373 25.4115 35.656 25.1733 36.375C25.2478 36.7011 25.3315 37.0132 25.4285 37.3325C25.456 37.4257 25.4834 37.5189 25.5117 37.615C25.5998 37.9129 25.6893 38.2103 25.7789 38.5078C25.8383 38.7087 25.8977 38.9096 25.957 39.1106C26.1991 40.0122 26.1991 40.0122 26.5398 40.875C26.8677 40.875 27.1957 40.875 27.5336 40.875C27.5699 40.8088 27.6062 40.7426 27.6437 40.6744C27.8087 40.374 27.9739 40.0737 28.1392 39.7734C28.1963 39.6693 28.2535 39.5651 28.3124 39.4578C28.3677 39.3575 28.4229 39.2572 28.4798 39.1538C28.5306 39.0615 28.5813 38.9692 28.6336 38.8741C28.7553 38.6609 28.8887 38.4546 29.0243 38.25C29.5659 38.4186 30.057 38.6311 30.5616 38.8906C30.6932 38.958 30.8248 39.0253 30.9605 39.0947C31.0594 39.146 31.1584 39.1972 31.2603 39.25C31.3284 39.1909 31.3965 39.1317 31.4666 39.0708C32.7915 37.9588 34.1567 37.1239 35.8106 36.6174C36.0363 36.5465 36.2577 36.4618 36.4778 36.375C36.6301 35.9154 36.5622 35.8249 36.3754 35.3901C36.3207 35.2602 36.2659 35.1303 36.2095 34.9965C36.1156 34.7778 36.1156 34.7778 36.0197 34.5547C35.88 34.2235 35.7414 33.8918 35.6029 33.5601C35.5647 33.4687 35.5264 33.3773 35.487 33.2832C35.006 32.1293 34.5482 30.9661 34.0884 29.8036C33.0696 27.2281 32.0357 24.6592 30.9924 22.0937C30.2864 20.3575 29.5862 18.6192 28.9001 16.875C28.8591 16.875 28.8181 16.875 28.7758 16.875ZM14.1172 21.625C13.8382 22.0946 13.821 22.4526 13.8687 23C14.1146 23.5967 14.5765 24.03 15.111 24.375C15.9124 24.6855 16.9016 24.7744 17.7197 24.5C18.0728 23.8656 18.1659 23.4714 17.9682 22.75C17.5902 21.8712 17.1407 21.3797 16.3688 20.8359C15.3485 20.5038 14.7866 20.847 14.1172 21.625ZM19.9014 24.2734C19.5507 24.9088 19.5136 25.4813 19.6918 26.1719C20.0723 27.1915 20.9785 27.9743 21.8192 28.625C22.2144 28.493 22.3132 28.3801 22.5233 28.0083C22.5856 27.8638 22.6479 27.7192 22.7121 27.5703C22.7753 27.4261 22.8386 27.2819 22.9037 27.1333C23.2522 26.2864 23.3398 25.449 23.0381 24.5703C22.6558 24.0265 22.3682 23.7936 21.7182 23.6328C21.0004 23.5768 20.4331 23.7933 19.9014 24.2734ZM42.5649 27.375C42.1042 27.8887 41.9645 28.3703 41.9244 29.0454C41.9866 30.1025 42.6573 31.1982 43.3103 32C43.7498 32 43.7875 31.9487 44.0867 31.6484C44.9283 30.7673 45.5958 29.7795 45.5817 28.5356C45.5146 27.9944 45.2177 27.6484 44.8214 27.2988C44.1251 26.8486 43.2218 26.8871 42.5649 27.375ZM27.5457 29.4033C27.2886 29.8213 27.162 30.2781 27.0367 30.75C26.9944 30.9047 26.9944 30.9047 26.9513 31.0625C26.8918 31.5412 26.9031 32.0183 26.9124 32.5C27.9435 32.5622 29.2036 32.454 30.0957 31.8906C30.5825 31.4524 30.9644 31.0192 31.1361 30.375C31.1096 29.7483 30.9029 29.3603 30.515 28.875C30.027 28.4509 29.6514 28.2907 29.018 28.3271C28.389 28.4515 27.9319 28.9111 27.5457 29.4033ZM14.9479 32.5781C14.6887 33.0999 14.5871 33.542 14.6141 34.125C14.7931 34.6369 14.9919 35.0026 15.4837 35.25C15.61 35.2222 15.61 35.2222 15.7389 35.1938C16.0632 35.1328 16.3159 35.1227 16.6425 35.1348C18.2166 35.2174 18.2166 35.2174 19.5831 34.5C19.2433 33.4742 18.3859 32.6059 17.448 32.1016C16.4848 31.6845 15.6619 31.7626 14.9479 32.5781ZM5.54558 33.125C5.07624 33.61 4.83867 34.072 4.75364 34.7422C4.83461 35.4075 5.18895 35.8298 5.70087 36.2344C6.61135 36.7689 7.95817 36.5847 8.95403 36.3984C9.1731 36.325 9.1731 36.325 9.39659 36.25C9.55162 35.782 9.42812 35.5989 9.22262 35.1688C9.17754 35.0796 9.13247 34.9904 9.08602 34.8984C9.01744 34.7626 9.01744 34.7626 8.94748 34.6239C8.49089 33.7544 8.03535 33.26 7.1217 32.8906C6.48445 32.695 6.11994 32.8005 5.54558 33.125ZM48.7553 34.3267C48.1645 35.0324 48.1645 35.0324 47.9066 35.875C48.1626 35.9772 48.4189 36.0786 48.6753 36.1797C48.8179 36.2362 48.9606 36.2928 49.1076 36.3511C49.9918 36.6692 50.9194 36.8224 51.7964 36.4141C52.2247 36.1655 52.5177 35.9508 52.7514 35.5C52.8524 34.8777 52.833 34.32 52.534 33.7578C52.226 33.336 51.9961 33.0453 51.4723 32.9458C50.2161 32.9438 49.555 33.3665 48.7553 34.3267ZM20.4527 36.25C20.6565 36.7109 20.9406 37.0849 21.2446 37.4844C21.5392 37.8719 21.8232 38.2562 22.088 38.665C22.2821 39.0082 22.2821 39.0082 22.5645 39.125C22.6426 39.4166 22.7081 39.7116 22.7664 40.0078C22.8149 40.2498 22.8149 40.2498 22.8644 40.4966C22.8884 40.6215 22.9125 40.7463 22.9372 40.875C23.4291 40.875 23.9211 40.875 24.4279 40.875C24.3709 40.6137 24.3137 40.3524 24.2554 40.0914C24.2043 39.8618 24.1544 39.6319 24.1055 39.4017C23.8164 37.7713 23.8164 37.7713 22.8833 36.498C22.4656 36.2646 22.0337 36.1192 21.5707 36C21.4321 35.9553 21.4321 35.9553 21.2907 35.9097C20.9386 35.8534 20.7332 36.054 20.4527 36.25ZM15.8563 37.375C15.4522 38.0066 15.2559 38.6156 15.3837 39.3647C15.571 39.8524 15.9146 40.1159 16.3532 40.375C16.7004 40.553 16.7004 40.553 17.0986 40.5C17.4037 40.3667 17.6914 40.2123 17.9832 40.0518C18.6113 39.7413 19.2838 39.5647 19.9558 39.375C19.9558 38.7401 19.4969 38.3301 19.0862 37.875C18.319 37.2056 17.8321 36.9577 16.8123 36.9751C16.3746 37.0077 16.17 37.0594 15.8563 37.375ZM32.8753 40.5C32.9573 40.6237 33.0393 40.7475 33.1237 40.875C33.3637 40.9295 33.3637 40.9295 33.6423 40.9176C33.7492 40.9175 33.8561 40.9175 33.9663 40.9175C34.1397 40.9146 34.1397 40.9146 34.3165 40.9116C34.4938 40.9108 34.4938 40.9108 34.6747 40.91C35.0532 40.9079 35.4316 40.9032 35.8101 40.8984C36.0663 40.8966 36.3225 40.8948 36.5788 40.8933C37.2077 40.8892 37.8366 40.8827 38.4654 40.875C38.3465 40.5547 38.2274 40.2343 38.1083 39.9141C38.0748 39.8239 38.0414 39.7338 38.0069 39.6409C37.8335 39.1751 37.6577 38.7108 37.4716 38.25C35.8031 38.25 34.0524 39.3963 32.8753 40.5ZM56.3409 39.8247C55.6798 40.4513 55.1689 41.197 54.739 42C54.739 42.0825 54.739 42.165 54.739 42.25C55.0158 42.3521 55.2927 42.4536 55.5698 42.5547C55.6475 42.5835 55.7253 42.6122 55.8054 42.6418C56.7972 43.0024 57.633 43.1882 58.6211 42.7266C59.0961 42.4658 59.4134 42.2891 59.5839 41.75C59.7017 40.934 59.563 40.4153 59.0869 39.75C58.316 38.9475 57.1421 39.2129 56.3409 39.8247ZM29.7696 40.75C29.6475 41.0311 29.526 41.3123 29.4047 41.5938C29.3702 41.673 29.3357 41.7523 29.3001 41.834C28.9217 42.7148 28.7031 43.5865 28.985 44.5361C29.2486 45.124 29.5491 45.4691 30.1423 45.75C30.8183 45.8366 31.2831 45.6931 31.8815 45.375C32.2289 45.0806 32.3582 44.9359 32.5026 44.5C32.5811 43.5682 32.3891 42.9616 31.7907 42.2412C31.2266 41.6453 30.6022 41.1617 29.8939 40.75C29.8529 40.75 29.8119 40.75 29.7696 40.75ZM20.8254 41.125C18.9542 41.562 18.9542 41.562 17.5256 42.7734C17.2408 43.3342 17.1699 43.7465 17.2228 44.375C17.6001 45.1495 18.1155 45.4462 18.8999 45.7422C19.4634 45.7564 19.8804 45.5529 20.2926 45.1855C21.0303 44.3816 21.1151 43.517 21.1049 42.4609C21.1058 42.3597 21.1068 42.2584 21.1078 42.1541C21.1304 41.5797 21.1304 41.5797 20.8254 41.125ZM23.0614 42.875C23.0102 43.1844 22.959 43.4938 22.9062 43.8125C22.8051 44.3909 22.7113 44.9144 22.417 45.4297C21.9951 46.264 22.1993 47.2309 22.3059 48.1375C22.318 48.2449 22.3301 48.3524 22.3426 48.4631C22.3823 48.8142 22.423 49.1651 22.4636 49.5161C22.4915 49.7611 22.5194 50.0061 22.5472 50.2512C22.6201 50.893 22.6938 51.5347 22.7677 52.1764C22.8564 52.948 22.9441 53.7198 23.032 54.4915C23.1653 55.6611 23.2998 56.8305 23.4341 58C26.3037 58 29.1733 58 32.1299 58C32.1299 58.6188 32.1299 59.2375 32.1299 59.875C28.5634 59.875 24.9969 59.875 21.3223 59.875C21.3223 60.6175 21.3223 61.36 21.3223 62.125C27.2665 62.125 33.2107 62.125 39.335 62.125C39.335 61.3825 39.335 60.64 39.335 59.875C37.5723 59.875 35.8095 59.875 33.9933 59.875C33.9933 59.2562 33.9933 58.6375 33.9933 58C35.0592 58 36.125 58 37.2232 58C37.3788 56.6262 37.5344 55.2525 37.6898 53.8787C37.762 53.2404 37.8342 52.602 37.9066 51.9637C38.3054 48.4484 38.3054 48.4484 38.6921 44.9316C38.7074 44.7919 38.7227 44.6522 38.7384 44.5082C38.7519 44.382 38.7654 44.2557 38.7793 44.1256C38.7965 43.9652 38.7965 43.9652 38.8141 43.8015C38.8386 43.4935 38.8381 43.1839 38.8381 42.875C37.3623 42.875 35.8865 42.875 34.366 42.875C34.366 43.535 34.366 44.195 34.366 44.875C34.1102 45.7913 33.7691 46.4313 32.9995 47C31.9109 47.6069 30.8129 47.7929 29.5784 47.5674C28.7294 47.3178 28.1407 46.9027 27.6913 46.1309C27.0844 44.9299 27.0173 44.3516 26.9124 42.875C25.6416 42.875 24.3708 42.875 23.0614 42.875ZM2.51758 46.4453C2.2131 47.0934 2.18895 47.6977 2.39335 48.3867C2.59716 48.8188 2.84691 49.0602 3.2707 49.25C4.05806 49.4847 4.75011 49.3702 5.47571 49C6.1531 48.5918 6.71695 48.0475 7.28475 47.5C6.53313 46.6681 5.55081 45.8363 4.40862 45.7236C3.60394 45.6886 3.0811 45.8335 2.51758 46.4453ZM48.0308 46.25C47.0085 46.944 45.9851 47.6533 45.4764 48.8203C45.3896 49.5072 45.3759 50.0231 45.8103 50.6016C46.3187 50.9908 46.7831 51.2135 47.4175 51.3047C47.9883 51.2191 48.3565 50.9346 48.7451 50.5156C49.1931 49.7493 49.2055 49.101 49.0247 48.25C48.7097 47.1418 48.7097 47.1418 48.0308 46.25ZM55.8571 48.375C55.8873 49.6265 56.2531 50.8102 57.0993 51.75C57.5287 52.0552 57.9633 52.2291 58.4813 52.3125C59.2182 52.1836 59.6608 51.7198 60.0808 51.125C60.2825 50.7189 60.2736 50.3139 60.205 49.875C59.9472 49.2969 59.5371 48.8854 58.9729 48.5972C58.0016 48.2322 56.8626 48.097 55.8571 48.375ZM12.1296 51.75C10.9972 53.3052 10.9972 53.3052 10.6466 55.1406C10.8209 55.8654 11.0006 56.3362 11.6559 56.75C12.362 56.9364 12.9317 56.8813 13.6047 56.6016C14.0267 56.2394 14.2054 55.8888 14.2812 55.3335C14.3335 54.1912 13.9183 53.5503 13.1855 52.7109C12.8549 52.3482 12.5301 52.033 12.1296 51.75Z" fill="#A6C7A5"/>
<path d="M28.0305 0C28.6864 0 29.3423 0 30.0181 0C30.0181 2.5575 30.0181 5.115 30.0181 7.75C29.3622 7.75 28.7063 7.75 28.0305 7.75C28.0305 5.1925 28.0305 2.635 28.0305 0Z" fill="#A6C7A5"/>
</svg>
