<svg width="16" height="15" viewBox="0 0 16 15" fill="none" xmlns="http://www.w3.org/2000/svg">
<path d="M8.66935 0.767225C9.88673 -0.0580861 11.7657 -0.468543 13.8453 0.849856L13.9871 0.944506C15.4321 1.95006 16.2333 3.92723 15.9399 6.18855C15.645 8.46065 14.2573 11.0209 11.3431 13.3421L11.056 13.566C9.93213 14.4258 9.21138 15 8 15C6.94001 15 6.25556 14.5606 5.34804 13.8747L4.94397 13.566C1.83355 11.1864 0.364485 8.53399 0.0601244 6.18855C-0.242755 3.85435 0.620668 1.82243 2.15465 0.849856L2.36178 0.723656C4.4965 -0.521233 6.4007 0.0336846 7.5654 0.937745L7.84375 1.15183C7.90382 1.19738 7.9556 1.23407 8 1.26526C8.10095 1.19433 8.23739 1.09082 8.4346 0.937745L8.66935 0.767225ZM13.2618 1.83391C11.5998 0.780192 10.1834 1.1175 9.2791 1.73325L9.10468 1.86021C8.8969 2.02149 8.71881 2.16016 8.57705 2.25608C8.50519 2.3047 8.42561 2.35423 8.34303 2.3928C8.26465 2.42941 8.14424 2.47543 8 2.47543C7.85576 2.47543 7.73535 2.42941 7.65697 2.3928C7.57439 2.35423 7.49481 2.3047 7.42295 2.25608C7.35206 2.20811 7.27209 2.14938 7.18385 2.08256L6.89532 1.86021C6.03267 1.1906 4.60357 0.738069 2.90322 1.7325L2.73824 1.83391C1.65313 2.52193 0.910645 4.05979 1.16698 6.03531C1.42194 7.99956 2.67753 10.3969 5.60823 12.639L6.01667 12.9493C6.89847 13.6114 7.31325 13.8462 8 13.8462C8.7848 13.8462 9.21451 13.5397 10.3918 12.639L10.6621 12.4279C13.4003 10.2471 14.586 7.93811 14.833 6.03531C15.0733 4.18324 14.4357 2.71597 13.4609 1.97288L13.2618 1.83391Z" fill="#FB6487"/>
</svg>
