<svg width="22" height="23" viewBox="0 0 22 23" fill="none" xmlns="http://www.w3.org/2000/svg">
<path d="M20 14C20 12.3379 19.9987 11.1569 19.8916 10.251C19.7996 9.47307 19.6367 8.97281 19.3789 8.59375L19.2627 8.43848C19.1614 8.31503 19.0508 8.19894 18.9326 8.0918L18.8115 7.9873C18.2801 7.55139 17.5342 7.35506 16.0449 7.28613L6.53516 16.7744C6.60324 18.277 6.79919 19.0275 7.2373 19.5615L7.3418 19.6826C7.44894 19.8008 7.56503 19.9114 7.68848 20.0127L7.84375 20.1289C8.22281 20.3867 8.72307 20.5496 9.50098 20.6416C10.4069 20.7487 11.5879 20.75 13.25 20.75C14.9121 20.75 16.0931 20.7487 16.999 20.6416C17.8879 20.5365 18.4142 20.3386 18.8115 20.0127L18.9326 19.9082C19.0508 19.8011 19.1614 19.685 19.2627 19.5615L19.3789 19.4062C19.6367 19.0272 19.7996 18.5269 19.8916 17.749C19.9987 16.8431 20 15.6621 20 14ZM14.25 11.75C14.5528 11.75 14.8259 11.9324 14.9424 12.2119L17.4424 18.2119L17.4678 18.2842C17.5776 18.648 17.3965 19.0431 17.0381 19.1924C16.6796 19.3415 16.2716 19.1918 16.0908 18.8574L16.0576 18.7881L15.417 17.25H13.083L12.4424 18.7881C12.2831 19.1703 11.8442 19.3514 11.4619 19.1924C11.0797 19.0331 10.8986 18.5942 11.0576 18.2119L13.5576 12.2119L13.6084 12.1113C13.7428 11.8893 13.9851 11.75 14.25 11.75ZM13.708 15.75H14.792L14.25 14.4492L13.708 15.75ZM6.15039 4.5C6.15039 4.08579 6.48618 3.75 6.90039 3.75C7.31442 3.75021 7.65039 4.08592 7.65039 4.5V4.71582H10.75C11.1642 4.71582 11.5 5.05161 11.5 5.46582C11.4998 5.87989 11.1641 6.21582 10.75 6.21582H9.54688C9.17707 7.24664 8.60241 8.20931 7.96191 9.0752L8.86523 10.0146C9.15239 10.3132 9.14325 10.788 8.84473 11.0752C8.54619 11.3621 8.07127 11.3531 7.78418 11.0547L7.00977 10.25C6.40848 10.9309 5.79017 11.5389 5.23242 12.0518L5.17383 12.1016C4.86946 12.3292 4.43569 12.2936 4.17285 12.0078C3.89248 11.7029 3.91287 11.2286 4.21777 10.9482L4.75293 10.4424C5.16673 10.0405 5.59198 9.59682 6.00293 9.12207C5.87814 8.96166 5.7528 8.79514 5.63574 8.63281C5.45887 8.38753 5.27838 8.1231 5.14746 7.89453L5.03516 7.68066L5.00586 7.60938C4.88097 7.25039 5.0465 6.84762 5.39844 6.68359C5.75031 6.51979 6.16483 6.65212 6.35938 6.97852L6.39453 7.04688L6.45703 7.16309C6.53815 7.3026 6.67505 7.50973 6.85254 7.75586C6.88742 7.80422 6.92484 7.85163 6.96094 7.90039C7.34163 7.35652 7.67373 6.79215 7.92969 6.21582H3.75C3.33589 6.21582 3.00016 5.87989 3 5.46582C3 5.05161 3.33579 4.71582 3.75 4.71582H6.15039V4.5ZM21.5 14C21.5 15.6254 21.5008 16.9104 21.3809 17.9248C21.2666 18.8913 21.0353 19.6978 20.5273 20.3789L20.4219 20.5137C20.2739 20.6939 20.113 20.8631 19.9404 21.0195L19.7637 21.1719C19.0547 21.7537 18.2057 22.009 17.1748 22.1309C16.1604 22.2508 14.8754 22.25 13.25 22.25C11.6246 22.25 10.3396 22.2508 9.3252 22.1309C8.35872 22.0166 7.55223 21.7853 6.87109 21.2773L6.73633 21.1719C6.55608 21.0239 6.38694 20.863 6.23047 20.6904L6.07812 20.5137C5.37246 19.6538 5.14048 18.5758 5.05469 17.1943C3.77416 17.1147 2.75463 16.9103 1.92773 16.3184L1.73633 16.1719C1.55608 16.0239 1.38694 15.863 1.23047 15.6904L1.07813 15.5137C0.496327 14.8047 0.24101 13.9557 0.119141 12.9248C-0.00076668 11.9104 1.22285e-07 10.6254 1.22285e-07 9C1.22285e-07 7.37463 -0.00076668 6.08961 0.119141 5.0752C0.24101 4.04427 0.496327 3.19525 1.07813 2.48633L1.23047 2.30957C1.38694 2.13696 1.55608 1.97606 1.73633 1.82813L1.87109 1.72266C2.55223 1.21474 3.35872 0.983391 4.3252 0.869141C5.33961 0.749233 6.62463 0.75 8.25 0.75C9.87537 0.75 11.1604 0.749233 12.1748 0.869141C13.2057 0.99101 14.0547 1.24633 14.7637 1.82813L14.9404 1.98047C15.113 2.13694 15.2739 2.30608 15.4219 2.48633L15.5684 2.67773C16.1602 3.50442 16.3647 4.52364 16.4443 5.80371C17.8255 5.88948 18.9036 6.12225 19.7637 6.82812L19.9404 6.98047C20.113 7.13694 20.2739 7.30608 20.4219 7.48633L20.5273 7.62109C21.0353 8.30223 21.2666 9.10872 21.3809 10.0752C21.5008 11.0896 21.5 12.3746 21.5 14ZM1.5 9C1.5 10.6621 1.50132 11.8431 1.6084 12.749C1.7135 13.6379 1.91138 14.1642 2.2373 14.5615L2.3418 14.6826C2.44894 14.8008 2.56503 14.9114 2.68848 15.0127L2.79785 15.0967C3.32535 15.4762 4.07235 15.6503 5.47461 15.7139L14.9648 6.24707C14.9021 4.83031 14.7283 4.07816 14.3467 3.54785L14.2627 3.43848C14.1614 3.31503 14.0508 3.19894 13.9326 3.0918L13.8115 2.9873C13.4142 2.66138 12.8879 2.4635 11.999 2.3584C11.0931 2.25132 9.91211 2.25 8.25 2.25C6.58789 2.25 5.40689 2.25132 4.50098 2.3584C3.72307 2.45038 3.22281 2.61333 2.84375 2.87109L2.68848 2.9873C2.56503 3.08861 2.44894 3.19917 2.3418 3.31738L2.2373 3.43848C1.91138 3.83579 1.7135 4.3621 1.6084 5.25098C1.50132 6.15689 1.5 7.33789 1.5 9Z" fill="#3D853C"/>
</svg>
