<svg width="21" height="22" viewBox="0 0 21 22" fill="none" xmlns="http://www.w3.org/2000/svg">
<path d="M9.5 19.5C9.5 19.0858 9.16421 18.75 8.75 18.75C8.33579 18.75 8 19.0858 8 19.5C8 19.9142 8.33579 20.25 8.75 20.25C9.16421 20.25 9.5 19.9142 9.5 19.5ZM16.5 19.5C16.5 19.0858 16.1642 18.75 15.75 18.75C15.3358 18.75 15 19.0858 15 19.5C15 19.9142 15.3358 20.25 15.75 20.25C16.1642 20.25 16.5 19.9142 16.5 19.5ZM6.85938 14.25H13.5137C14.5593 14.25 15.3283 14.0849 15.9111 13.8145C16.4855 13.5479 16.9168 13.1614 17.2656 12.6523C17.9973 11.5845 18.3532 10.0184 18.7754 7.9209L18.9248 7.1543C18.9618 6.94499 18.9853 6.77649 18.9951 6.63379C19.0044 6.4992 18.9977 6.42182 18.9893 6.37891C18.9825 6.34483 18.9764 6.33694 18.9756 6.33594C18.9749 6.33554 18.9736 6.33547 18.9727 6.33496C18.9565 6.32675 18.909 6.30724 18.8008 6.29004C18.5623 6.25218 18.2203 6.25 17.6445 6.25H5.17871L6.85938 14.25ZM18 19.5C18 20.7426 16.9926 21.75 15.75 21.75C14.5074 21.75 13.5 20.7426 13.5 19.5C13.5 19.2367 13.5477 18.9848 13.6309 18.75H10.8691C10.9523 18.9848 11 19.2367 11 19.5C11 20.7426 9.99264 21.75 8.75 21.75C7.50736 21.75 6.5 20.7426 6.5 19.5C6.5 19.2367 6.54775 18.9848 6.63086 18.75H4.66113C3.99122 18.7498 3.5 18.1929 3.5 17.5713C3.50004 16.2433 4.26443 15.0715 5.3877 14.5449L3.53125 5.70312C3.519 5.65969 3.50717 5.61558 3.50293 5.56934L2.89746 2.68652C2.7547 2.1357 2.25841 1.75001 1.68848 1.75H0.75C0.335786 1.75 0 1.41421 0 1C0 0.585786 0.335786 0.25 0.75 0.25H1.68848C2.87135 0.250011 3.9123 1.00454 4.29004 2.10742L4.35645 2.33301L4.3623 2.36035L4.86426 4.75H17.6445C18.1689 4.75 18.6527 4.74771 19.0361 4.80859C19.399 4.86625 19.7751 4.99533 20.0684 5.30859L20.1885 5.4541L20.2871 5.6084C20.4913 5.97333 20.5175 6.37019 20.4922 6.7373C20.4782 6.94045 20.4449 7.16733 20.4014 7.41504L20.2461 8.2168C19.8406 10.231 19.4413 12.1303 18.5029 13.5C18.0167 14.2097 17.3846 14.7852 16.543 15.1758C15.71 15.5623 14.7114 15.75 13.5137 15.75H6.71875L6.54785 15.7588C5.79769 15.8386 5.16327 16.4389 5.02832 17.25H15.75C16.9926 17.25 18 18.2574 18 19.5Z" fill="#3D853C"/>
</svg>
