<svg width="22" height="21" viewBox="0 0 22 21" fill="none" xmlns="http://www.w3.org/2000/svg">
<path d="M11.6491 1.74741C13.285 0.674487 15.8098 0.140884 18.6042 1.85483L18.7947 1.97788C20.7364 3.28512 21.813 5.85548 21.4187 8.79526C21.0225 11.749 19.1577 15.0775 15.2419 18.0951L14.8562 18.3861C13.346 19.5039 12.3775 20.2503 10.7497 20.2503C9.32541 20.2503 8.40571 19.6791 7.18626 18.7874L6.64329 18.3861C2.46378 15.2925 0.489765 11.8444 0.0807902 8.79526C-0.326194 5.76075 0.834002 3.1192 2.89524 1.85483L3.17356 1.69077C6.04203 0.0723853 8.60073 0.793791 10.1658 1.96909L10.5398 2.24741C10.6205 2.30662 10.6901 2.35432 10.7497 2.39487C10.8854 2.30266 11.0687 2.1681 11.3337 1.96909L11.6491 1.74741ZM17.82 3.13413C15.5868 1.76427 13.6836 2.20277 12.4685 3.00327L12.2341 3.16831C11.9549 3.37798 11.7156 3.55825 11.5251 3.68296C11.4286 3.74617 11.3216 3.81055 11.2107 3.86069C11.1054 3.90828 10.9436 3.96811 10.7497 3.96811C10.5559 3.96811 10.3941 3.90828 10.2888 3.86069C10.1778 3.81055 10.0709 3.74617 9.97435 3.68296C9.87908 3.62059 9.77163 3.54424 9.65306 3.45737L9.26536 3.16831C8.10621 2.29781 6.18589 1.70951 3.9011 3.00229L3.67942 3.13413C2.22134 4.02857 1.22365 6.02782 1.56809 8.59604C1.91069 11.1496 3.59784 14.2662 7.53587 17.181L8.0847 17.5843C9.26959 18.4451 9.82693 18.7503 10.7497 18.7503C11.8043 18.7503 12.3817 18.3519 13.9636 17.181L14.3269 16.9066C18.0062 14.0715 19.5995 11.0697 19.9314 8.59604C20.2543 6.18831 19.3975 4.28083 18.0876 3.31479L17.82 3.13413Z" fill="#3D853C"/>
</svg>
