<svg width="40" height="40" viewBox="0 0 40 40" fill="none" xmlns="http://www.w3.org/2000/svg">
<rect width="40" height="40" rx="5" fill="#ECF3EC"/>
<path d="M14.2794 22.6445C17.778 20.7225 22.1128 20.787 25.5558 22.8369L26.1544 23.1777C26.8598 23.5775 27.8271 24.1462 28.507 24.8115C28.9686 25.2634 29.4077 25.8593 29.4874 26.5889C29.5616 27.2677 29.3116 27.9098 28.7931 28.4932L28.5548 28.7393C27.3834 29.8553 25.9776 30.75 24.1593 30.75H15.3409C13.6364 30.75 12.2944 29.964 11.1681 28.9463L10.9454 28.7393C10.2666 28.0924 9.92806 27.3646 10.0128 26.5889C10.0926 25.8593 10.5316 25.2634 10.9933 24.8115C11.8999 23.9243 13.3185 23.2096 13.9445 22.8369L14.2794 22.6445ZM24.7892 24.126C21.8044 22.3487 18.0368 22.293 15.003 23.959L14.7111 24.126C13.9223 24.5956 12.779 25.1625 12.0421 25.8838C11.682 26.2363 11.5286 26.5273 11.504 26.752C11.4846 26.9303 11.5301 27.2242 11.9806 27.6533L12.3693 28.0059C13.2821 28.7837 14.2275 29.25 15.3409 29.25H24.1593C25.4317 29.25 26.4839 28.6401 27.5196 27.6533L27.671 27.499C27.9811 27.1528 28.0132 26.908 27.9962 26.752C27.9717 26.5273 27.8183 26.2363 27.4581 25.8838C26.9053 25.3427 26.1237 24.8885 25.4347 24.4971L24.7892 24.126ZM23.5001 14.5C23.5001 12.4289 21.8212 10.75 19.7501 10.75C17.6791 10.75 16.0001 12.4289 16.0001 14.5C16.0001 16.5711 17.6791 18.25 19.7501 18.25C21.8212 18.25 23.5001 16.5711 23.5001 14.5ZM25.0001 14.5C25.0001 17.3995 22.6496 19.75 19.7501 19.75C16.8506 19.75 14.5001 17.3995 14.5001 14.5C14.5001 11.6005 16.8506 9.25 19.7501 9.25C22.6496 9.25 25.0001 11.6005 25.0001 14.5Z" fill="#3D853C"/>
</svg>
