<svg width="16" height="16" viewBox="0 0 16 16" fill="none" xmlns="http://www.w3.org/2000/svg">
<path d="M15.0127 13.9756C14.9873 14.0466 14.9604 14.1169 14.9316 14.1865L10.3975 15.0488C10.4229 14.9779 10.4497 14.9075 10.4785 14.8379L15.0127 13.9756ZM5.75391 12.7402C5.64467 12.862 5.48842 12.9646 5.2959 13.0186L5.20117 13.041L5.19824 13.042L0.985352 13.8418C1.01078 13.7708 1.03856 13.7006 1.06738 13.6309L5.75391 12.7402ZM6.77832 8.65625L7.66895 8.4873L9.55078 8.12891L10.1611 8.0127V2.55859C10.2822 2.43953 10.4095 2.32495 10.543 2.21582V7.94043L11.4336 7.77051L15.0127 7.08984C14.9873 7.16081 14.9604 7.23114 14.9316 7.30078L11.1533 8.01953L10.543 8.13477V11.3838L11.4336 11.2148L15.0137 10.5332C14.9884 10.6039 14.9613 10.6738 14.9326 10.7432L10.1611 11.6504V8.20801L9.27051 8.37695L7.38867 8.73535L6.77832 8.85059V11.3867L6.76953 11.4004L6.76855 11.4014L6.39648 11.8945V8.92383L5.50586 9.09277L1.87402 9.7832C1.89943 9.71227 1.9263 9.64189 1.95508 9.57227L5.78613 8.84473L6.39648 8.72852V1.7168C6.51767 1.59757 6.64465 1.48231 6.77832 1.37305V8.65625Z" stroke="#9FAB9E" stroke-width="1.5"/>
</svg>
